{
DisplayStrings = (
"\U00C1/Cacute \U00C9\U00CD/Lacute/Nacute \U00D3/Racute/Sacute \U00DA/Wacute \U00DD/Zacute \U00B4\U00E1/cacute \U00E9\U00ED/lacute/nacute \U00F3/racute/sacute \U00FA/wacute \U00FD/zacute",
"`\U00E0",
"\U00B4/breve/Abreve/Gbreve/abreve/gbreve/caron \U00B8/circumflex \U00C2\U00CA\U00CE\U00D4\U00DB/Wcircumflex/Ycircumflex \U00E2\U00EA\U00EE\U00F4\U00FB/wcircumflex/ycircumflex \U00A8/elem.dotaccent_another i/dotaccent `/hungarumlaut/Ohungarumlaut/Uhungarumlaut/ohungarumlaut/uhungarumlaut \U00AF/Amacron/Emacron/Imacron/Omacron/Umacron/amacron/emacron/imacron/omacron \U00AF/umacron/ogonek/ring \U00C5/Uring \U00E5/ring/uring/tilde",
"\U00B4/breve/caron \U00B8/circumflex \U00A8/dotaccent `/hungarumlaut \U00AF/ogonek/ring/tilde",
"\U00C2",
"/acute.cap A\U00C1",
"\U00B4/breve/caron \U00B8/circumflex/dieresis.cap \U00A8/dotaccent.cap/dotaccent `/hungarumlaut.cap/hungarumlaut/macron.cap \U00AF/ogonek/ring.cap/ring/tilde.cap/tilde/acute.cap/breve.cap/circumflex.cap/caron.cap/grave.cap",
"/acute.cap \U00C1/Cacute \U00C9\U00CD/Lacute/Nacute \U00D3R/Racute S/Sacute \U00DA/Wacute \U00DD/Zacute/breve.cap/caron.cap/circumflex.cap/dieresis.cap/dotaccent.cap/grave.cap/hungarumlaut.cap/Ohungarumlaut/Uhungarumlaut/macron.cap/ring.cap \U00C5/Uring/tilde.cap",
ABCDEFGHIJKLMNOPQRSTUVWXYZ,
/Hbar,
"/commaaccentcomb L/Lcaron",
K
);
classes = (
{
automatic = 1;

glyphs = (
{
glyphname = A;
lastChange = "2015-10-12 13:28:16 +0000";
layers = (
{
anchors = (
{
name = top;
position = "{359, 740}";
}
);
layerId = "284DCAF7-AB20-402F-AEDF-E1CEEB9773D4";
name = Regular;
paths = (
{
closed = 1;
nodes = (
"125 0 LINE",
"219 271 LINE",
"231 315 LINE",
"373 716 LINE",
"339 717 LINE",
"469 315 LINE",
"482 271 LINE",
"570 0 LINE",
"670 0 LINE",
"419 740 LINE",
"299 740 LINE",
"29 0 LINE"
);
},
{
closed = 1;
nodes = (
"512 242 LINE",
"488 320 LINE",
"211 320 LINE",
"186 242 LINE"
);
}
);
width = 703;
},
{
anchors = (
{
name = top;
position = "{391, 730}";
}
);
layerId = "005AA5DB-9C20-42D5-964E-7DFE1013E61C";
name = Bold;
paths = (
{
closed = 1;
nodes = (
"208 0 LINE",
"289 253 LINE",
"297 297 LINE",
"423 716 LINE",
"353 717 LINE",
"467 297 LINE",
"476 253 LINE",
"551 0 LINE",
"749 0 LINE",
"512 740 LINE",
"270 740 LINE",
"14 0 LINE"
);
},
{
closed = 1;
nodes = (
"553 199 LINE",
"508 335 LINE",
"260 335 LINE",
"215 199 LINE"
);
}
);
width = 765;
},
{
anchors = (
{
name = top;
position = "{330, 730}";
}
);
layerId = "D0F50BF8-B137-4291-8B58-E185C78D1B48";
name = Light;
paths = (
{
closed = 1;
nodes = (
"58 0 LINE",
"168 290 LINE",
"175 305 LINE",
"334 721 LINE",
"324 721 LINE",
"471 305 LINE",
"477 289 LINE",
"578 0 LINE",
"606 0 LINE",
"342 740 LINE",
"317 740 LINE",
"31 0 LINE"
);
},
{
closed = 1;
nodes = (
"483 287 LINE",
"474 310 LINE",
"163 310 LINE",
"153 287 LINE"
);
}
);
width = 654;
}
);
leftKerningGroup = A;
rightKerningGroup = A;
unicode = 0041;
},
{
glyphname = Aogonek;
lastChange = "2015-06-30 14:30:14 +0000";
layers = (
{
components = (
{
name = A;
},
{
name = elem.ogonekunder;
transform = "{1, 0, 0, 1, 190, 0}";
}
);
layerId = "D0F50BF8-B137-4291-8B58-E185C78D1B48";
name = Light;
paths = (
{
closed = 1;
nodes = (
"501 -141 LINE",
"501 -82 OFFCURVE",
"539 -37 OFFCURVE",
"606 0 CURVE",
"579 4 LINE",
"525 -27 OFFCURVE",
"477 -74 OFFCURVE",
"477 -144 CURVE"
);
}
);
width = 638;
},
{
components = (
{
name = A;
},
{
name = elem.ogonekunder;
transform = "{1, 0, 0, 1, 449, 0}";
}
);
layerId = "284DCAF7-AB20-402F-AEDF-E1CEEB9773D4";
name = Regular;
paths = (
{
closed = 1;
nodes = (
"573 -106 LINE",
"573 -39 OFFCURVE",
"623 0 OFFCURVE",
"670 0 CURVE",
"570 0 LINE",
"524 -35 OFFCURVE",
"491 -76 OFFCURVE",
"491 -135 CURVE"
);
}
);
width = 683;
},
{
components = (
{
name = A;
},
{
name = elem.ogonekunder;
transform = "{1, 0, 0, 1, 479, 0}";
}
);
layerId = "005AA5DB-9C20-42D5-964E-7DFE1013E61C";
name = Bold;
paths = (
{
closed = 1;
nodes = (
"607 -77 LINE",
"607 -31 OFFCURVE",
"651 0 OFFCURVE",
"731 0 CURVE",
"548 0 LINE",
"511 -40 OFFCURVE",
"493 -79 OFFCURVE",
"493 -119 CURVE"
);
}
);
width = 749;
}
);
leftKerningGroup = A;
rightKerningGroup = A;
unicode = 0104;
},
{
glyphname = AE;
lastChange = "2015-06-30 14:30:30 +0000";
layers = (
{
anchors = (
{
name = ogonek;
position = "{346, 0}";
},
{
name = top;
position = "{70, 740}";
}
);
components = (
{
name = E;
transform = "{1, 0, 0, 1, 378, 0}";
}
);
layerId = "D0F50BF8-B137-4291-8B58-E185C78D1B48";
rightMetricsKey = "=E";
name = Light;
paths = (
{
closed = 1;
nodes = (
"14 0 LINE",
"476 717 LINE",
"497 717 LINE",
"497 740 LINE",
"465 740 LINE",
"-14 0 LINE"
);
},
{
closed = 1;
nodes = (
"499 287 LINE",
"499 310 LINE",
"209 310 LINE",
"194 287 LINE"
);
}
);
width = 901;
},
{
anchors = (
{
name = ogonek;
position = "{269, 0}";
},
{
name = top;
position = "{21, 740}";
}
);
components = (
{
name = E;
transform = "{1, 0, 0, 1, 333, 0}";
}
);
layerId = "284DCAF7-AB20-402F-AEDF-E1CEEB9773D4";
rightMetricsKey = "=E";
name = Regular;
paths = (
{
closed = 1;
nodes = (
"77 0 LINE",
"447.221 666 LINE",
"479 666 LINE",
"479 740 LINE",
"398 740 LINE",
"-19 0 LINE"
);
},
{
closed = 1;
nodes = (
"474 242 LINE",
"474 320 LINE",
"250 320 LINE",
"206 242 LINE"
);
}
);
width = 893;
},
{
anchors = (
{
name = ogonek;
position = "{344, 10}";
},
{
name = top;
position = "{64, 740}";
}
);
components = (
{
name = E;
transform = "{1, 0, 0, 1, 419, 0}";
}
);
layerId = "005AA5DB-9C20-42D5-964E-7DFE1013E61C";
rightMetricsKey = "=E";
name = Bold;
paths = (
{
closed = 1;
nodes = (
"163 0 LINE",
"489 604 LINE",
"571 604 LINE",
"571 740 LINE",
"393 740 LINE",
"-29 0 LINE"
);
},
{
closed = 1;
nodes = (
"520 179 LINE",
"520 315 LINE",
"319 315 LINE",
"245 179 LINE"
);
}
);
width = 1031;
}
);
leftKerningGroup = A;
rightKerningGroup = E;
rightMetricsKey = E;
unicode = 00C6;
},
{
glyphname = B;
lastChange = "2015-07-04 01:34:10 +0000";
layers = (
{
layerId = "284DCAF7-AB20-402F-AEDF-E1CEEB9773D4";
leftMetricsKey = "=H";
name = Regular;
paths = (
{
closed = 1;
nodes = (
"240 0 LINE SMOOTH",
"281 0 OFFCURVE",
"318 2 OFFCURVE",
"350 5 CURVE SMOOTH",
"458 16 OFFCURVE",
"566 79 OFFCURVE",
"566 209 CURVE SMOOTH",
"566 318 OFFCURVE",
"495 391 OFFCURVE",
"377 395 CURVE",
"397 381 LINE",
"473 409 OFFCURVE",
"522 489 OFFCURVE",
"522 563 CURVE SMOOTH",
"522 668 OFFCURVE",
"459 730 OFFCURVE",
"345 738 CURVE SMOOTH",
"315 740 OFFCURVE",
"285 740 OFFCURVE",
"253 740 CURVE SMOOTH",
"162 740 LINE",
"162 662 LINE",
"282 662 LINE SMOOTH",
"387 662 OFFCURVE",
"424 635 OFFCURVE",
"424 541 CURVE SMOOTH",
"424 489 OFFCURVE",
"398 419 OFFCURVE",
"348 419 CURVE SMOOTH",
"162 419 LINE",
"162 341 LINE",
"337 341 LINE SMOOTH",
"431 341 OFFCURVE",
"468 292 OFFCURVE",
"468 212 CURVE SMOOTH",
"468 119 OFFCURVE",
"406 78 OFFCURVE",
"280 78 CURVE SMOOTH",
"162 78 LINE",
"162 0 LINE"
);
},
{
closed = 1;
nodes = (
"178 0 LINE",
"178 740 LINE",
"88 740 LINE",
"88 0 LINE"
);
}
);
width = 622;
},
{
layerId = "005AA5DB-9C20-42D5-964E-7DFE1013E61C";
leftMetricsKey = "=H";
name = Bold;
paths = (
{
closed = 1;
nodes = (
"298 0 LINE SMOOTH",
"339 0 OFFCURVE",
"376 2 OFFCURVE",
"408 5 CURVE SMOOTH",
"516 16 OFFCURVE",
"624 79 OFFCURVE",
"624 217 CURVE SMOOTH",
"624 326 OFFCURVE",
"563 391 OFFCURVE",
"415 405 CURVE",
"435 391 LINE",
"541 409 OFFCURVE",
"590 489 OFFCURVE",
"590 563 CURVE SMOOTH",
"590 668 OFFCURVE",
"527 730 OFFCURVE",
"413 738 CURVE SMOOTH",
"383 740 OFFCURVE",
"353 740 OFFCURVE",
"321 740 CURVE SMOOTH",
"230 740 LINE",
"230 604 LINE",
"304 604 LINE SMOOTH",
"369 604 OFFCURVE",
"406 585 OFFCURVE",
"406 531 CURVE SMOOTH",
"406 489 OFFCURVE",
"384 448 OFFCURVE",
"354 448 CURVE SMOOTH",
"230 448 LINE",
"230 312 LINE",
"339 312 LINE SMOOTH",
"413 312 OFFCURVE",
"440 272 OFFCURVE",
"440 222 CURVE SMOOTH",
"440 159 OFFCURVE",
"388 136 OFFCURVE",
"332 136 CURVE SMOOTH",
"230 136 LINE",
"230 0 LINE"
);
},
{
closed = 1;
nodes = (
"246 0 LINE",
"246 740 LINE",
"62 740 LINE",
"62 0 LINE"
);
}
);
width = 658;
},
{
layerId = "D0F50BF8-B137-4291-8B58-E185C78D1B48";
leftMetricsKey = "=H";
name = Light;
paths = (
{
closed = 1;
nodes = (
"210 0 LINE SMOOTH",
"251 0 OFFCURVE",
"288 2 OFFCURVE",
"320 5 CURVE SMOOTH",
"428 16 OFFCURVE",
"507 80 OFFCURVE",
"507 199 CURVE SMOOTH",
"507 318 OFFCURVE",
"429 385 OFFCURVE",
"307 385 CURVE",
"330 378 LINE",
"397 392 OFFCURVE",
"462 470 OFFCURVE",
"462 557 CURVE SMOOTH",
"462 669 OFFCURVE",
"400 731 OFFCURVE",
"286 739 CURVE SMOOTH",
"256 740 OFFCURVE",
"226 740 OFFCURVE",
"194 740 CURVE SMOOTH",
"115 740 LINE",
"115 717 LINE",
"246 717 LINE SMOOTH",
"371 717 OFFCURVE",
"436 671 OFFCURVE",
"436 557 CURVE SMOOTH",
"436 459 OFFCURVE",
"360 392 OFFCURVE",
"300 392 CURVE SMOOTH",
"115 392 LINE",
"115 369 LINE",
"285 369 LINE SMOOTH",
"410 369 OFFCURVE",
"481 302 OFFCURVE",
"481 197 CURVE SMOOTH",
"481 89 OFFCURVE",
"414 23 OFFCURVE",
"253 23 CURVE SMOOTH",
"115 23 LINE",
"115 0 LINE"
);
},
{
closed = 1;
nodes = (
"124 0 LINE",
"124 740 LINE",
"100 740 LINE",
"100 0 LINE"
);
}
);
width = 585;
}
);
leftKerningGroup = H;
leftMetricsKey = "=H";
rightKerningGroup = B;
unicode = 0042;
},
{
glyphname = C;
lastChange = "2015-10-12 14:36:26 +0000";
layers = (
{
anchors = (
{
name = bottom;
position = "{378, 0}";
},
{
name = top;
position = "{360, 740}";
}
);
layerId = "284DCAF7-AB20-402F-AEDF-E1CEEB9773D4";
name = Regular;
paths = (
{
closed = 1;
nodes = (
"472 -14 OFFCURVE",
"542 10 OFFCURVE",
"607 54 CURVE",
"574 120 LINE",
"521 84 OFFCURVE",
"469 66 OFFCURVE",
"391 66 CURVE SMOOTH",
"257 66 OFFCURVE",
"140 148 OFFCURVE",
"140 366 CURVE SMOOTH",
"140 571 OFFCURVE",
"250 674 OFFCURVE",
"407 674 CURVE SMOOTH",
"480 674 OFFCURVE",
"538 662 OFFCURVE",
"586 639 CURVE",
"612 706 LINE",
"558 737 OFFCURVE",
"491 754 OFFCURVE",
"407 754 CURVE SMOOTH",
"204 754 OFFCURVE",
"42 613 OFFCURVE",
"42 359 CURVE SMOOTH",
"42 103 OFFCURVE",
"178 -14 OFFCURVE",
"377 -14 CURVE SMOOTH"
);
}
);
width = 651;
},
{
anchors = (
{
name = bottom;
position = "{383, 0}";
},
{
name = top;
position = "{372, 730}";
}
);
layerId = "005AA5DB-9C20-42D5-964E-7DFE1013E61C";
leftMetricsKey = "=O";
name = Bold;
paths = (
{
closed = 1;
nodes = (
"474 -14 OFFCURVE",
"551 0 OFFCURVE",
"636 41 CURVE",
"618 169 LINE",
"558 139 OFFCURVE",
"502 126 OFFCURVE",
"434 126 CURVE SMOOTH",
"291 126 OFFCURVE",
"221 233 OFFCURVE",
"221 371 CURVE SMOOTH",
"221 517 OFFCURVE",
"301 614 OFFCURVE",
"430 614 CURVE SMOOTH",
"515 614 OFFCURVE",
"573 599 OFFCURVE",
"631 573 CURVE",
"651 704 LINE",
"594 735 OFFCURVE",
"517 754 OFFCURVE",
"430 754 CURVE SMOOTH",
"222 754 OFFCURVE",
"33 628 OFFCURVE",
"33 365 CURVE SMOOTH",
"33 98 OFFCURVE",
"200 -14 OFFCURVE",
"390 -14 CURVE SMOOTH"
);
}
);
width = 658;
},
{
anchors = (
{
name = bottom;
position = "{349, 0}";
},
{
name = top;
position = "{366, 730}";
}
);
layerId = "D0F50BF8-B137-4291-8B58-E185C78D1B48";
leftMetricsKey = "=O";
name = Light;
paths = (
{
closed = 1;
nodes = (
"444 -14 OFFCURVE",
"514 13 OFFCURVE",
"569 52 CURVE",
"558 70 LINE",
"495 28 OFFCURVE",
"436 9 OFFCURVE",
"357 9 CURVE SMOOTH",
"190 9 OFFCURVE",
"74 113 OFFCURVE",
"74 364 CURVE SMOOTH",
"74 597 OFFCURVE",
"213 731 OFFCURVE",
"401 731 CURVE SMOOTH",
"464 731 OFFCURVE",
"522 719 OFFCURVE",
"566 699 CURVE",
"574 717 LINE",
"527 741 OFFCURVE",
"470 754 OFFCURVE",
"401 754 CURVE SMOOTH",
"191 754 OFFCURVE",
"48 603 OFFCURVE",
"48 364 CURVE SMOOTH",
"48 99 OFFCURVE",
"169 -14 OFFCURVE",
"358 -14 CURVE SMOOTH"
);
}
);
width = 623;
}
);
leftKerningGroup = O;
leftMetricsKey = "=O";
rightKerningGroup = C;
unicode = 0043;
},
{
glyphname = D;
lastChange = "2015-10-12 14:36:29 +0000";
layers = (
{
anchors = (
{
name = center;
position = "{177, 360}";
},
{
name = top;
position = "{341, 740}";
}
);
layerId = "284DCAF7-AB20-402F-AEDF-E1CEEB9773D4";
leftMetricsKey = "=H";
rightMetricsKey = "=O";
name = Regular;
paths = (
{
closed = 1;
nodes = (
"265 0 LINE SMOOTH",
"308 0 OFFCURVE",
"358 3 OFFCURVE",
"395 10 CURVE SMOOTH",
"544 40 OFFCURVE",
"678 165 OFFCURVE",
"678 397 CURVE SMOOTH",
"678 607 OFFCURVE",
"553 712 OFFCURVE",
"388 735 CURVE SMOOTH",
"357 739 OFFCURVE",
"315 740 OFFCURVE",
"279 740 CURVE SMOOTH",
"88 740 LINE",
"88 0 LINE"
);
},
{
closed = 1;
nodes = (
"178 662 LINE",
"295 662 LINE SMOOTH",
"490 662 OFFCURVE",
"580 561 OFFCURVE",
"580 386 CURVE SMOOTH",
"580 188 OFFCURVE",
"474 78 OFFCURVE",
"299 78 CURVE SMOOTH",
"178 78 LINE"
);
}
);
width = 720;
},
{
anchors = (
{
name = center;
position = "{204, 360}";
},
{
name = top;
position = "{382, 730}";
}
);
layerId = "005AA5DB-9C20-42D5-964E-7DFE1013E61C";
leftMetricsKey = "=H";
rightMetricsKey = "=O";
name = Bold;
paths = (
{
closed = 1;
nodes = (
"333 0 LINE SMOOTH",
"376 0 OFFCURVE",
"426 3 OFFCURVE",
"463 10 CURVE SMOOTH",
"612 40 OFFCURVE",
"746 159 OFFCURVE",
"746 391 CURVE SMOOTH",
"746 601 OFFCURVE",
"621 712 OFFCURVE",
"456 735 CURVE SMOOTH",
"425 739 OFFCURVE",
"383 740 OFFCURVE",
"347 740 CURVE SMOOTH",
"62 740 LINE",
"62 0 LINE"
);
},
{
closed = 1;
nodes = (
"246 604 LINE",
"363 604 LINE SMOOTH",
"498 604 OFFCURVE",
"558 525 OFFCURVE",
"558 380 CURVE SMOOTH",
"558 222 OFFCURVE",
"482 136 OFFCURVE",
"367 136 CURVE SMOOTH",
"246 136 LINE"
);
}
);
width = 779;
},
{
anchors = (
{
name = center;
position = "{162, 360}";
},
{
name = top;
position = "{304, 730}";
}
);
layerId = "D0F50BF8-B137-4291-8B58-E185C78D1B48";
leftMetricsKey = "=H";
rightMetricsKey = "=O";
name = Light;
paths = (
{
closed = 1;
nodes = (
"230 0 LINE SMOOTH",
"273 0 OFFCURVE",
"323 3 OFFCURVE",
"360 10 CURVE SMOOTH",
"509 40 OFFCURVE",
"643 167 OFFCURVE",
"643 389 CURVE SMOOTH",
"643 609 OFFCURVE",
"518 712 OFFCURVE",
"353 735 CURVE SMOOTH",
"322 739 OFFCURVE",
"280 740 OFFCURVE",
"244 740 CURVE SMOOTH",
"100 740 LINE",
"100 0 LINE"
);
},
{
closed = 1;
nodes = (
"124 717 LINE",
"277 717 LINE SMOOTH",
"485 717 OFFCURVE",
"617 613 OFFCURVE",
"617 388 CURVE SMOOTH",
"617 158 OFFCURVE",
"469 23 OFFCURVE",
"264 23 CURVE SMOOTH",
"124 23 LINE"
);
}
);
width = 691;
}
);
leftKerningGroup = H;
leftMetricsKey = "=H";
rightKerningGroup = O;
rightMetricsKey = "=O";
unicode = 0044;
},
{
glyphname = E;
lastChange = "2015-10-12 14:36:32 +0000";
layers = (
{
anchors = (
{
name = bottom;
position = "{307, 0}";
},
{
name = top;
position = "{307, 740}";
}
);
layerId = "284DCAF7-AB20-402F-AEDF-E1CEEB9773D4";
leftMetricsKey = "=H";
name = Regular;
paths = (
{
closed = 1;
nodes = (
"507 0 LINE",
"517 74 LINE",
"178 74 LINE",
"178 340 LINE",
"472 340 LINE",
"482 414 LINE",
"178 414 LINE",
"178 666 LINE",
"503 666 LINE",
"513 740 LINE",
"88 740 LINE",
"88 0 LINE"
);
}
);
width = 560;
},
{
anchors = (
{
name = bottom;
position = "{302, 0}";
},
{
name = top;
position = "{312, 730}";
}
);
layerId = "005AA5DB-9C20-42D5-964E-7DFE1013E61C";
leftMetricsKey = "=H";
name = Bold;
paths = (
{
closed = 1;
nodes = (
"563 0 LINE",
"583 136 LINE",
"246 136 LINE",
"246 309 LINE",
"515 309 LINE",
"535 445 LINE",
"246 445 LINE",
"246 604 LINE",
"556 604 LINE",
"576 740 LINE",
"62 740 LINE",
"62 0 LINE"
);
}
);
width = 612;
},
{
anchors = (
{
name = bottom;
position = "{262, 0}";
},
{
name = top;
position = "{290, 730}";
}
);
layerId = "D0F50BF8-B137-4291-8B58-E185C78D1B48";
leftMetricsKey = "=H";
name = Light;
paths = (
{
closed = 1;
nodes = (
"465 0 LINE",
"470 23 LINE",
"124 23 LINE",
"124 366 LINE",
"440 366 LINE",
"445 389 LINE",
"124 389 LINE",
"124 717 LINE",
"466 717 LINE",
"471 740 LINE",
"100 740 LINE",
"100 0 LINE"
);
}
);
width = 523;
}
);
leftKerningGroup = H;
leftMetricsKey = "=H";
rightKerningGroup = E;
unicode = 0045;
},
{
glyphname = Eogonek;
lastChange = "2015-06-30 14:30:14 +0000";
layers = (
{
components = (
{
name = E;
},
{
name = elem.ogonekunder;
transform = "{1, 0, 0, 1, 49, 0}";
}
);
layerId = "D0F50BF8-B137-4291-8B58-E185C78D1B48";
name = Light;
paths = (
{
closed = 1;
nodes = (
"360 -141 LINE",
"360 -82 OFFCURVE",
"398 -37 OFFCURVE",
"465 0 CURVE",
"438 4 LINE",
"384 -27 OFFCURVE",
"336 -74 OFFCURVE",
"336 -144 CURVE"
);
}
);
width = 523;
},
{
components = (
{
name = E;
},
{
name = elem.ogonekunder;
transform = "{1, 0, 0, 1, 296, 0}";
}
);
layerId = "284DCAF7-AB20-402F-AEDF-E1CEEB9773D4";
name = Regular;
paths = (
{
closed = 1;
nodes = (
"420 -106 LINE",
"420 -56 OFFCURVE",
"456 -20 OFFCURVE",
"507 0 CURVE",
"435 7 LINE",
"369 -37 OFFCURVE",
"338 -86 OFFCURVE",
"338 -135 CURVE"
);
}
);
width = 586;
},
{
components = (
{
name = E;
},
{
name = elem.ogonekunder;
transform = "{1, 0, 0, 1, 319, 0}";
}
);
layerId = "005AA5DB-9C20-42D5-964E-7DFE1013E61C";
name = Bold;
paths = (
{
closed = 1;
nodes = (
"447 -77 LINE",
"447 -31 OFFCURVE",
"491 0 OFFCURVE",
"571 0 CURVE",
"452 10 LINE",
"379 0 OFFCURVE",
"333 -59 OFFCURVE",
"333 -119 CURVE"
);
}
);
width = 612;
}
);
leftKerningGroup = H;
rightKerningGroup = E;
unicode = 0118;
},
{
glyphname = F;
lastChange = "2015-07-04 01:34:10 +0000";
layers = (
{
layerId = "284DCAF7-AB20-402F-AEDF-E1CEEB9773D4";
leftMetricsKey = "=H";
name = Regular;
paths = (
{
closed = 1;
nodes = (
"178 0 LINE",
"178 336 LINE",
"476 336 LINE",
"486 410 LINE",
"178 410 LINE",
"178 666 LINE",
"503 666 LINE",
"513 740 LINE",
"88 740 LINE",
"88 0 LINE"
);
}
);
width = 547;
},
{
layerId = "005AA5DB-9C20-42D5-964E-7DFE1013E61C";
leftMetricsKey = "=H";
name = Bold;
paths = (
{
closed = 1;
nodes = (
"246 0 LINE",
"246 301 LINE",
"521 301 LINE",
"541 437 LINE",
"246 437 LINE",
"246 604 LINE",
"556 604 LINE",
"576 740 LINE",
"62 740 LINE",
"62 0 LINE"
);
}
);
width = 590;
},
{
layerId = "D0F50BF8-B137-4291-8B58-E185C78D1B48";
leftMetricsKey = "=H";
name = Light;
paths = (
{
closed = 1;
nodes = (
"124 0 LINE",
"124 364 LINE",
"444 364 LINE",
"449 387 LINE",
"124 387 LINE",
"124 717 LINE",
"466 717 LINE",
"471 740 LINE",
"100 740 LINE",
"100 0 LINE"
);
}
);
width = 519;
}
);
leftKerningGroup = H;
leftMetricsKey = "=H";
rightKerningGroup = F;
unicode = 0046;
},
{
glyphname = G;
lastChange = "2015-10-12 14:36:35 +0000";
layers = (
{
anchors = (
{
name = bottom;
position = "{380, 0}";
},
{
name = top;
position = "{360, 740}";
}
);
layerId = "284DCAF7-AB20-402F-AEDF-E1CEEB9773D4";
leftMetricsKey = "=O";
name = Regular;
paths = (
{
closed = 1;
nodes = (
"483 -14 OFFCURVE",
"546 2 OFFCURVE",
"611 37 CURVE",
"611 352 LINE",
"521 352 LINE",
"521 42 LINE",
"548 100 LINE",
"498 73 OFFCURVE",
"460 66 OFFCURVE",
"395 66 CURVE SMOOTH",
"247 66 OFFCURVE",
"140 161 OFFCURVE",
"140 369 CURVE SMOOTH",
"140 574 OFFCURVE",
"250 674 OFFCURVE",
"407 674 CURVE SMOOTH",
"490 674 OFFCURVE",
"548 662 OFFCURVE",
"596 639 CURVE",
"622 710 LINE",
"568 739 OFFCURVE",
"503 754 OFFCURVE",
"407 754 CURVE SMOOTH",
"204 754 OFFCURVE",
"42 623 OFFCURVE",
"42 359 CURVE SMOOTH",
"42 103 OFFCURVE",
"186 -14 OFFCURVE",
"381 -14 CURVE SMOOTH"
);
}
);
width = 687;
},
{
anchors = (
{
name = bottom;
position = "{395, 0}";
},
{
name = top;
position = "{387, 730}";
}
);
layerId = "005AA5DB-9C20-42D5-964E-7DFE1013E61C";
leftMetricsKey = "=O";
name = Bold;
paths = (
{
closed = 1;
nodes = (
"504 -14 OFFCURVE",
"581 3 OFFCURVE",
"676 40 CURVE",
"676 402 LINE",
"492 402 LINE",
"492 42 LINE",
"529 147 LINE",
"479 131 OFFCURVE",
"454 126 OFFCURVE",
"419 126 CURVE SMOOTH",
"301 126 OFFCURVE",
"221 208 OFFCURVE",
"221 369 CURVE SMOOTH",
"221 515 OFFCURVE",
"301 614 OFFCURVE",
"448 614 CURVE SMOOTH",
"531 614 OFFCURVE",
"589 604 OFFCURVE",
"647 580 CURVE",
"675 706 LINE",
"609 740 OFFCURVE",
"534 754 OFFCURVE",
"438 754 CURVE SMOOTH",
"222 754 OFFCURVE",
"33 633 OFFCURVE",
"33 359 CURVE SMOOTH",
"33 113 OFFCURVE",
"187 -14 OFFCURVE",
"402 -14 CURVE SMOOTH"
);
}
);
width = 722;
},
{
anchors = (
{
name = bottom;
position = "{337, 0}";
},
{
name = top;
position = "{362, 730}";
}
);
layerId = "D0F50BF8-B137-4291-8B58-E185C78D1B48";
leftMetricsKey = "=O";
name = Light;
paths = (
{
closed = 1;
nodes = (
"444 -14 OFFCURVE",
"526 5 OFFCURVE",
"571 34 CURVE",
"571 355 LINE",
"547 355 LINE",
"547 34 LINE",
"559 53 LINE",
"506 20 OFFCURVE",
"440 9 OFFCURVE",
"363 9 CURVE SMOOTH",
"222 9 OFFCURVE",
"72 91 OFFCURVE",
"72 364 CURVE SMOOTH",
"72 619 OFFCURVE",
"211 731 OFFCURVE",
"378 731 CURVE SMOOTH",
"461 731 OFFCURVE",
"505 723 OFFCURVE",
"557 701 CURVE",
"565 719 LINE",
"520 741 OFFCURVE",
"464 754 OFFCURVE",
"378 754 CURVE SMOOTH",
"187 754 OFFCURVE",
"48 623 OFFCURVE",
"48 364 CURVE SMOOTH",
"48 85 OFFCURVE",
"198 -14 OFFCURVE",
"362 -14 CURVE SMOOTH"
);
}
);
width = 646;
}
);
leftKerningGroup = O;
leftMetricsKey = "=O";
rightKerningGroup = G;
unicode = 0047;
},
{
glyphname = H;
lastChange = "2015-10-12 14:36:38 +0000";
layers = (
{
anchors = (
{
name = center;
position = "{368, 370}";
},
{
name = top;
position = "{368, 740}";
}
);
layerId = "284DCAF7-AB20-402F-AEDF-E1CEEB9773D4";
name = Regular;
paths = (
{
closed = 1;
nodes = (
"178 0 LINE",
"178 336 LINE",
"578 336 LINE",
"578 0 LINE",
"668 0 LINE",
"668 740 LINE",
"578 740 LINE",
"578 410 LINE",
"178 410 LINE",
"178 740 LINE",
"88 740 LINE",
"88 0 LINE"
);
}
);
width = 756;
},
{
anchors = (
{
name = center;
position = "{389, 370}";
},
{
name = top;
position = "{389, 730}";
}
);
layerId = "005AA5DB-9C20-42D5-964E-7DFE1013E61C";
name = Bold;
paths = (
{
closed = 1;
nodes = (
"246 0 LINE",
"246 305 LINE",
"552 305 LINE",
"552 0 LINE",
"736 0 LINE",
"736 740 LINE",
"552 740 LINE",
"552 441 LINE",
"246 441 LINE",
"246 740 LINE",
"62 740 LINE",
"62 0 LINE"
);
}
);
width = 798;
},
{
anchors = (
{
name = center;
position = "{357, 370}";
},
{
name = top;
position = "{357, 730}";
}
);
layerId = "D0F50BF8-B137-4291-8B58-E185C78D1B48";
name = Light;
paths = (
{
closed = 1;
nodes = (
"124 0 LINE",
"124 362 LINE",
"590 362 LINE",
"590 0 LINE",
"614 0 LINE",
"614 740 LINE",
"590 740 LINE",
"590 385 LINE",
"124 385 LINE",
"124 740 LINE",
"100 740 LINE",
"100 0 LINE"
);
}
);
width = 714;
}
);
leftKerningGroup = H;
rightKerningGroup = H;
unicode = 0048;
},
{
glyphname = Hbar;
lastChange = "2015-07-01 16:22:26 +0000";
layers = (
{
components = (
{
name = H;
}
);
layerId = "D0F50BF8-B137-4291-8B58-E185C78D1B48";
name = Light;
paths = (
{
closed = 1;
nodes = (
"673 555 LINE",
"673 577 LINE",
"41 577 LINE",
"41 555 LINE"
);
}
);
width = 714;
},
{
components = (
{
name = H;
}
);
layerId = "284DCAF7-AB20-402F-AEDF-E1CEEB9773D4";
name = Regular;
paths = (
{
closed = 1;
nodes = (
"715 529 LINE",
"715 599 LINE",
"41 599 LINE",
"41 529 LINE"
);
}
);
width = 756;
},
{
components = (
{
name = H;
transform = "{1, 0, 0, 1, 6, 0}";
}
);
layerId = "005AA5DB-9C20-42D5-964E-7DFE1013E61C";
name = Bold;
paths = (
{
closed = 1;
nodes = (
"798 508 LINE",
"798 634 LINE",
"22 634 LINE",
"22 508 LINE"
);
}
);
width = 820;
}
);
unicode = 0126;
},
{
glyphname = I;
lastChange = "2015-10-12 14:36:41 +0000";
layers = (
{
anchors = (
{
name = ogonek;
position = "{242, 10}";
},
{
name = top;
position = "{133, 740}";
}
);
layerId = "284DCAF7-AB20-402F-AEDF-E1CEEB9773D4";
leftMetricsKey = "=H";
rightMetricsKey = "=H";
name = Regular;
paths = (
{
closed = 1;
nodes = (
"178 0 LINE",
"178 740 LINE",
"88 740 LINE",
"88 0 LINE"
);
}
);
width = 266;
},
{
anchors = (
{
name = ogonek;
position = "{266, 10}";
},
{
name = top;
position = "{154, 730}";
}
);
layerId = "005AA5DB-9C20-42D5-964E-7DFE1013E61C";
leftMetricsKey = "=H";
rightMetricsKey = "=H";
name = Bold;
paths = (
{
closed = 1;
nodes = (
"246 0 LINE",
"246 740 LINE",
"62 740 LINE",
"62 0 LINE"
);
}
);
width = 308;
},
{
anchors = (
{
name = ogonek;
position = "{112, 0}";
},
{
name = top;
position = "{112, 730}";
}
);
layerId = "D0F50BF8-B137-4291-8B58-E185C78D1B48";
leftMetricsKey = "=H";
rightMetricsKey = "=H";
name = Light;
paths = (
{
closed = 1;
nodes = (
"124 0 LINE",
"124 740 LINE",
"100 740 LINE",
"100 0 LINE"
);
}
);
width = 224;
}
);
leftKerningGroup = H;
leftMetricsKey = "=H";
rightKerningGroup = H;
rightMetricsKey = "=H";
unicode = 0049;
},
{
glyphname = Iogonek;
lastChange = "2015-06-30 14:30:14 +0000";
layers = (
{
components = (
{
name = I;
},
{
name = elem.ogonekunder;
transform = "{1, 0, 0, 1, -276, 0}";
}
);
layerId = "D0F50BF8-B137-4291-8B58-E185C78D1B48";
name = Light;
paths = (
{
closed = 1;
nodes = (
"35 -141 LINE",
"35 -102 OFFCURVE",
"52 -57 OFFCURVE",
"124 0 CURVE",
"100 5 LINE",
"46 -41 OFFCURVE",
"11 -90 OFFCURVE",
"11 -144 CURVE"
);
}
);
width = 224;
},
{
components = (
{
name = I;
},
{
name = elem.ogonekunder;
transform = "{1, 0, 0, 1, -25, 0}";
}
);
layerId = "284DCAF7-AB20-402F-AEDF-E1CEEB9773D4";
name = Regular;
paths = (
{
closed = 1;
nodes = (
"99 -106 LINE",
"99 -53 OFFCURVE",
"131 -17 OFFCURVE",
"178 0 CURVE",
"88 0 LINE",
"40 -48 OFFCURVE",
"17 -94 OFFCURVE",
"17 -135 CURVE"
);
}
);
width = 298;
},
{
components = (
{
name = I;
},
{
name = elem.ogonekunder;
transform = "{1, 0, 0, 1, -3, 0}";
}
);
layerId = "005AA5DB-9C20-42D5-964E-7DFE1013E61C";
name = Bold;
paths = (
{
closed = 1;
nodes = (
"125 -77 LINE",
"125 -31 OFFCURVE",
"169 0 OFFCURVE",
"249 0 CURVE",
"70 0 LINE",
"29 -47 OFFCURVE",
"11 -79 OFFCURVE",
"11 -119 CURVE"
);
}
);
width = 304;
}
);
leftKerningGroup = H;
rightKerningGroup = H;
unicode = 012E;
},
{
glyphname = J;
lastChange = "2015-10-12 14:36:43 +0000";
layers = (
{
anchors = (
{
name = top;
position = "{268, 740}";
}
);
layerId = "284DCAF7-AB20-402F-AEDF-E1CEEB9773D4";
rightMetricsKey = "=H";
name = Regular;
paths = (
{
closed = 1;
nodes = (
"248 -14 OFFCURVE",
"304 39 OFFCURVE",
"311 136 CURVE SMOOTH",
"313 158 OFFCURVE",
"313 176 OFFCURVE",
"313 200 CURVE SMOOTH",
"313 740 LINE",
"223 740 LINE",
"223 187 LINE SMOOTH",
"223 88 OFFCURVE",
"198 62 OFFCURVE",
"128 62 CURVE SMOOTH",
"105 62 OFFCURVE",
"88 64 OFFCURVE",
"66 70 CURVE",
"55 5 LINE",
"79 -8 OFFCURVE",
"109 -14 OFFCURVE",
"143 -14 CURVE SMOOTH"
);
}
);
width = 401;
},
{
anchors = (
{
name = top;
position = "{289, 730}";
}
);
layerId = "005AA5DB-9C20-42D5-964E-7DFE1013E61C";
rightMetricsKey = "=H";
name = Bold;
paths = (
{
closed = 1;
nodes = (
"302 -14 OFFCURVE",
"370 75 OFFCURVE",
"378 186 CURVE SMOOTH",
"380 218 OFFCURVE",
"381 246 OFFCURVE",
"381 280 CURVE SMOOTH",
"381 740 LINE",
"197 740 LINE",
"197 254 LINE SMOOTH",
"197 162 OFFCURVE",
"172 126 OFFCURVE",
"102 126 CURVE SMOOTH",
"79 126 OFFCURVE",
"62 128 OFFCURVE",
"40 134 CURVE",
"7 15 LINE",
"57 -10 OFFCURVE",
"93 -14 OFFCURVE",
"147 -14 CURVE SMOOTH"
);
}
);
width = 443;
},
{
anchors = (
{
name = top;
position = "{227, 730}";
}
);
layerId = "D0F50BF8-B137-4291-8B58-E185C78D1B48";
rightMetricsKey = "=H";
name = Light;
paths = (
{
closed = 1;
nodes = (
"194 -14 OFFCURVE",
"234 33 OFFCURVE",
"238 111 CURVE SMOOTH",
"239 128 OFFCURVE",
"239 161 OFFCURVE",
"239 200 CURVE SMOOTH",
"239 740 LINE",
"215 740 LINE",
"215 147 LINE SMOOTH",
"215 50 OFFCURVE",
"190 9 OFFCURVE",
"118 9 CURVE SMOOTH",
"98 9 OFFCURVE",
"80 11 OFFCURVE",
"58 17 CURVE",
"53 -3 LINE",
"71 -11 OFFCURVE",
"96 -14 OFFCURVE",
"119 -14 CURVE SMOOTH"
);
}
);
width = 339;
}
);
leftKerningGroup = J;
rightKerningGroup = J;
rightMetricsKey = "=H";
unicode = 004A;
},
{
glyphname = K;
lastChange = "2015-10-12 14:50:06 +0000";
layers = (
{
anchors = (
{
name = bottom;
position = "{328, 0}";
},
{
name = top;
position = "{323, 740}";
}
);
layerId = "284DCAF7-AB20-402F-AEDF-E1CEEB9773D4";
name = Regular;
paths = (
{
closed = 1;
nodes = (
"634 0 LINE",
"299 378 LINE",
"612 730 LINE",
"509 740 LINE",
"188 370 LINE",
"505 0 LINE"
);
},
{
closed = 1;
nodes = (
"178 0 LINE",
"178 740 LINE",
"88 740 LINE",
"88 0 LINE"
);
}
);
width = 632;
},
{
anchors = (
{
name = bottom;
position = "{345, 0}";
},
{
name = top;
position = "{345, 730}";
}
);
layerId = "005AA5DB-9C20-42D5-964E-7DFE1013E61C";
leftMetricsKey = "=H";
name = Bold;
paths = (
{
closed = 1;
nodes = (
"721 0 LINE",
"422 384 LINE",
"718 730 LINE",
"509 740 LINE",
"236 376 LINE",
"499 0 LINE"
);
},
{
closed = 1;
nodes = (
"246 0 LINE",
"246 740 LINE",
"62 740 LINE",
"62 0 LINE"
);
}
);
width = 723;
},
{
anchors = (
{
name = bottom;
position = "{268, 0}";
},
{
name = top;
position = "{288, 730}";
}
);
layerId = "D0F50BF8-B137-4291-8B58-E185C78D1B48";
leftMetricsKey = "=H";
name = Light;
paths = (
{
closed = 1;
nodes = (
"527 0 LINE",
"178 367 LINE",
"527 730 LINE",
"505 740 LINE",
"146 367 LINE",
"492 0 LINE"
);
},
{
closed = 1;
nodes = (
"124 0 LINE",
"124 740 LINE",
"100 740 LINE",
"100 0 LINE"
);
}
);
width = 558;
}
);
leftKerningGroup = H;
leftMetricsKey = "=H";
rightKerningGroup = K;
unicode = 004B;
},
{
glyphname = L;
lastChange = "2015-10-12 14:41:47 +0000";
layers = (
{
anchors = (
{
name = bottom;
position = "{315, 0}";
},
{
name = center;
position = "{163, 358}";
},
{
name = top;
position = "{133, 740}";
}
);
layerId = "284DCAF7-AB20-402F-AEDF-E1CEEB9773D4";
leftMetricsKey = "=H";
name = Regular;
paths = (
{
closed = 1;
nodes = (
"527 0 LINE",
"537 74 LINE",
"178 74 LINE",
"178 740 LINE",
"88 740 LINE",
"88 0 LINE"
);
}
);
width = 573;
},
{
anchors = (
{
name = bottom;
position = "{342, 0}";
},
{
name = center;
position = "{184, 368}";
},
{
name = top;
position = "{154, 730}";
}
);
layerId = "005AA5DB-9C20-42D5-964E-7DFE1013E61C";
leftMetricsKey = "=H";
name = Bold;
paths = (
{
closed = 1;
nodes = (
"575 0 LINE",
"595 136 LINE",
"246 136 LINE",
"246 740 LINE",
"62 740 LINE",
"62 0 LINE"
);
}
);
width = 605;
},
{
anchors = (
{
name = bottom;
position = "{295, 0}";
},
{
name = center;
position = "{142, 338}";
},
{
name = top;
position = "{112, 730}";
}
);
layerId = "D0F50BF8-B137-4291-8B58-E185C78D1B48";
leftMetricsKey = "=H";
name = Light;
paths = (
{
closed = 1;
nodes = (
"492 0 LINE",
"497 23 LINE",
"124 23 LINE",
"124 740 LINE",
"100 740 LINE",
"100 0 LINE"
);
}
);
width = 538;
}
);
leftKerningGroup = H;
leftMetricsKey = "=H";
rightKerningGroup = L;
unicode = 004C;
},
{
glyphname = Lcaron;
lastChange = "2015-10-12 14:45:25 +0000";
layers = (
{
components = (
{
name = L;
},
{
disableAlignment = 1;
name = commaaccentcomb;
transform = "{1, 0, 0, 1, 363, 806}";
}
);
layerId = "D0F50BF8-B137-4291-8B58-E185C78D1B48";
name = Light;
width = 538;
},
{
anchors = (
{
name = _bottom;
position = "{343, 809}";
}
);
components = (
{
name = L;
}
);
layerId = "284DCAF7-AB20-402F-AEDF-E1CEEB9773D4";
name = Regular;
paths = (
{
closed = 1;
nodes = (
"311 549 LINE",
"365 604 OFFCURVE",
"399 668 OFFCURVE",
"396 758 CURVE",
"375 760 OFFCURVE",
"328 749 OFFCURVE",
"311 738 CURVE",
"306 676 OFFCURVE",
"291 628 OFFCURVE",
"248 549 CURVE"
);
}
);
width = 573;
},
{
components = (
{
name = L;
},
{
disableAlignment = 1;
name = commaaccentcomb;
transform = "{1, 0, 0, 1, 437, 804}";
}
);
layerId = "005AA5DB-9C20-42D5-964E-7DFE1013E61C";
name = Bold;
width = 621;
}
);
leftKerningGroup = H;
rightKerningGroup = L;
unicode = 013D;
},
{
glyphname = M;
lastChange = "2015-06-30 14:30:14 +0000";
layers = (
{
hints = (
{
horizontal = 1;
place = "{76650.000000, 100.000000}";
}
);
layerId = "284DCAF7-AB20-402F-AEDF-E1CEEB9773D4";
name = Regular;
paths = (
{
closed = 1;
nodes = (
"153 0 LINE",
"212 653 LINE",
"187 650 LINE",
"413 20 LINE",
"483 20 LINE",
"726 661 LINE",
"707 664 LINE",
"759 0 LINE",
"849 0 LINE",
"788 740 LINE",
"680 740 LINE",
"436 98 LINE",
"472 98 LINE",
"242 740 LINE",
"140 740 LINE",
"70 0 LINE"
);
}
);
width = 924;
},
{
layerId = "005AA5DB-9C20-42D5-964E-7DFE1013E61C";
name = Bold;
paths = (
{
closed = 1;
nodes = (
"216 0 LINE",
"270 663 LINE",
"202 660 LINE",
"393 20 LINE",
"543 20 LINE",
"771 671 LINE",
"702 674 LINE",
"737 0 LINE",
"917 0 LINE",
"864 740 LINE",
"644 740 LINE",
"431 98 LINE",
"519 98 LINE",
"338 740 LINE",
"126 740 LINE",
"45 0 LINE"
);
}
);
width = 969;
},
{
hints = (
{
horizontal = 1;
place = "{114975.000000, 150.000000}";
}
);
layerId = "D0F50BF8-B137-4291-8B58-E185C78D1B48";
name = Light;
paths = (
{
closed = 1;
nodes = (
"112 0 LINE",
"196 723 LINE",
"184 721 LINE",
"437 20 LINE",
"460 20 LINE",
"733 717 LINE",
"727 720 LINE",
"798 0 LINE",
"821 0 LINE",
"748 740 LINE",
"718 740 LINE",
"441 32 LINE",
"458 32 LINE",
"202 740 LINE",
"175 740 LINE",
"90 0 LINE"
);
}
);
width = 911;
}
);
leftKerningGroup = M;
rightKerningGroup = M;
unicode = 004D;
},
{
glyphname = N;
lastChange = "2015-10-12 14:36:55 +0000";
layers = (
{
anchors = (
{
name = bottom;
position = "{369, 0}";
},
{
name = top;
position = "{369, 740}";
}
);
layerId = "284DCAF7-AB20-402F-AEDF-E1CEEB9773D4";
leftMetricsKey = "=H";
rightMetricsKey = "=H";
name = Regular;
paths = (
{
closed = 1;
nodes = (
"174 0 LINE",
"174 628 LINE",
"150 621 LINE",
"588 0 LINE",
"670 0 LINE",
"670 740 LINE",
"584 740 LINE",
"584 112 LINE",
"608 119 LINE",
"170 740 LINE",
"88 740 LINE",
"88 0 LINE"
);
}
);
width = 758;
},
{
anchors = (
{
name = bottom;
position = "{388, 0}";
},
{
name = top;
position = "{378, 730}";
}
);
layerId = "005AA5DB-9C20-42D5-964E-7DFE1013E61C";
leftMetricsKey = "=H";
rightMetricsKey = "=H";
name = Bold;
paths = (
{
closed = 1;
nodes = (
"238 0 LINE",
"238 491 LINE",
"214 491 LINE",
"552 0 LINE",
"714 0 LINE",
"714 740 LINE",
"538 740 LINE",
"538 249 LINE",
"562 249 LINE",
"224 740 LINE",
"62 740 LINE",
"62 0 LINE"
);
}
);
width = 776;
},
{
anchors = (
{
name = bottom;
position = "{365, 0}";
},
{
name = top;
position = "{365, 730}";
}
);
layerId = "D0F50BF8-B137-4291-8B58-E185C78D1B48";
leftMetricsKey = "=H";
rightMetricsKey = "=H";
name = Light;
paths = (
{
closed = 1;
nodes = (
"123 0 LINE",
"123 723 LINE",
"114 705 LINE",
"610 0 LINE",
"630 0 LINE",
"630 740 LINE",
"607 740 LINE",
"607 16 LINE",
"622 28 LINE",
"119 740 LINE",
"100 740 LINE",
"100 0 LINE"
);
}
);
width = 730;
}
);
leftKerningGroup = H;
leftMetricsKey = "=H";
rightKerningGroup = H;
rightMetricsKey = "=H";
unicode = 004E;
},
{
glyphname = Eng;
lastChange = "2015-06-30 14:30:14 +0000";
layers = (
{
components = (
{
name = N;
}
);
layerId = "D0F50BF8-B137-4291-8B58-E185C78D1B48";
name = Light;
paths = (
{
closed = 1;
nodes = (
"583 -223 OFFCURVE",
"619 -167 OFFCURVE",
"626 -98 CURVE SMOOTH",
"629 -64 OFFCURVE",
"630 -35 OFFCURVE",
"630 0 CURVE",
"607 112 LINE",
"608 -13 LINE SMOOTH",
"609 -154 OFFCURVE",
"584 -195 OFFCURVE",
"488 -201 CURVE",
"488 -223 LINE"
);
}
);
width = 732;
},
{
components = (
{
name = N;
}
);
layerId = "284DCAF7-AB20-402F-AEDF-E1CEEB9773D4";
name = Regular;
paths = (
{
closed = 1;
nodes = (
"617 -223 OFFCURVE",
"655 -167 OFFCURVE",
"665 -98 CURVE SMOOTH",
"670 -64 OFFCURVE",
"670 -35 OFFCURVE",
"670 0 CURVE",
"580 112 LINE",
"585 -13 LINE SMOOTH",
"590 -132 OFFCURVE",
"556 -149 OFFCURVE",
"462 -149 CURVE",
"462 -223 LINE"
);
}
);
width = 790;
},
{
components = (
{
name = N;
}
);
layerId = "005AA5DB-9C20-42D5-964E-7DFE1013E61C";
name = Bold;
paths = (
{
closed = 1;
nodes = (
"655 -243 OFFCURVE",
"712 -148 OFFCURVE",
"720 -61 CURVE SMOOTH",
"722 -37 OFFCURVE",
"722 -22 OFFCURVE",
"722 0 CURVE",
"554 112 LINE",
"558 39 LINE SMOOTH",
"563 -44 OFFCURVE",
"550 -93 OFFCURVE",
"448 -87 CURVE",
"448 -223 LINE"
);
}
);
width = 772;
}
);
leftKerningGroup = Eng;
rightKerningGroup = Eng;
unicode = 014A;
},
{
glyphname = Oslash;
lastChange = "2015-07-04 01:34:08 +0000";
layers = (
{
components = (
{
name = O;
}
);
layerId = "D0F50BF8-B137-4291-8B58-E185C78D1B48";
name = Light;
paths = (
{
closed = 1;
nodes = (
"653 750 LINE",
"630 760 LINE",
"87 -10 LINE",
"110 -20 LINE"
);
}
);
width = 744;
},
{
components = (
{
name = O;
}
);
layerId = "284DCAF7-AB20-402F-AEDF-E1CEEB9773D4";
leftMetricsKey = "=O";
rightMetricsKey = "=O";
name = Regular;
paths = (
{
closed = 1;
nodes = (
"707 738 LINE",
"644 773 LINE",
"73 3 LINE",
"136 -32 LINE"
);
}
);
width = 764;
},
{
components = (
{
name = O;
}
);
layerId = "005AA5DB-9C20-42D5-964E-7DFE1013E61C";
name = Bold;
paths = (
{
closed = 1;
nodes = (
"730 730 LINE",
"617 770 LINE",
"78 10 LINE",
"191 -30 LINE"
);
}
);
width = 808;
}
);
leftKerningGroup = O;
rightKerningGroup = O;
unicode = 00D8;
},
{
glyphname = OE;
lastChange = "2015-07-04 01:35:08 +0000";
layers = (
{
anchors = (
{
name = top;
position = "{99, 740}";
}
);
components = (
{
disableAlignment = 1;
name = elem.Ohalf;
transform = "{1, 0, 0, 1, -30, 0}";
},
{
disableAlignment = 1;
name = elem.Ohalf;
transform = "{1, 0, 0, -1, -30, 740}";
},
{
name = E;
transform = "{1, 0, 0, 1, 482, 0}";
}
);
layerId = "D0F50BF8-B137-4291-8B58-E185C78D1B48";
leftMetricsKey = "=O";
rightMetricsKey = "=E";
name = Light;
paths = (
{
closed = 1;
nodes = (
"582 740 LINE",
"523 740 OFFCURVE",
"438 754 OFFCURVE",
"372 754 CURVE",
"372 731 LINE",
"438 731 OFFCURVE",
"509 718 OFFCURVE",
"585 718 CURVE"
);
},
{
closed = 1;
nodes = (
"438 -14 OFFCURVE",
"523 0 OFFCURVE",
"582 0 CURVE",
"585 22 LINE",
"515 22 OFFCURVE",
"450 9 OFFCURVE",
"372 9 CURVE",
"372 -14 LINE"
);
}
);
width = 1005;
},
{
anchors = (
{
name = top;
position = "{80, 740}";
}
);
components = (
{
disableAlignment = 1;
name = elem.Ohalf;
transform = "{1, 0, 0, 1, -20, 0}";
},
{
disableAlignment = 1;
name = elem.Ohalf;
transform = "{1, 0, 0, -1, -20, 740}";
},
{
name = E;
transform = "{1, 0, 0, 1, 460, 0}";
}
);
layerId = "284DCAF7-AB20-402F-AEDF-E1CEEB9773D4";
leftMetricsKey = "=O";
rightMetricsKey = "=E";
name = Regular;
paths = (
{
closed = 1;
nodes = (
"574 740 LINE",
"515 740 OFFCURVE",
"460 754 OFFCURVE",
"382 754 CURVE",
"382 678 LINE",
"480 678 OFFCURVE",
"574 663 OFFCURVE",
"616 649 CURVE"
);
},
{
closed = 1;
nodes = (
"460 -14 OFFCURVE",
"515 0 OFFCURVE",
"574 0 CURVE",
"616 91 LINE",
"574 77 OFFCURVE",
"480 62 OFFCURVE",
"382 62 CURVE",
"382 -14 LINE"
);
}
);
width = 1020;
},
{
anchors = (
{
name = top;
position = "{362, 740}";
}
);
components = (
{
disableAlignment = 1;
name = elem.Ohalf;
transform = "{1, 0, 0, 1, 3, 0}";
},
{
disableAlignment = 1;
name = elem.Ohalf;
transform = "{1, 0, 0, -1, 3, 740}";
},
{
name = E;
transform = "{1, 0, 0, 1, 511, 0}";
}
);
layerId = "005AA5DB-9C20-42D5-964E-7DFE1013E61C";
leftMetricsKey = "=O";
rightMetricsKey = "=E";
name = Bold;
paths = (
{
closed = 1;
nodes = (
"581 740 LINE",
"540 740 OFFCURVE",
"466 754 OFFCURVE",
"405 754 CURVE",
"405 614 LINE",
"481 614 OFFCURVE",
"549 602 OFFCURVE",
"625 573 CURVE"
);
},
{
closed = 1;
nodes = (
"466 -14 OFFCURVE",
"540 0 OFFCURVE",
"581 0 CURVE",
"625 167 LINE",
"549 138 OFFCURVE",
"481 126 OFFCURVE",
"405 126 CURVE",
"405 -14 LINE"
);
}
);
width = 1123;
}
);
leftKerningGroup = O;
leftMetricsKey = O;
rightKerningGroup = E;
rightMetricsKey = E;
unicode = 0152;
},
{
glyphname = P;
lastChange = "2015-07-04 01:34:10 +0000";
layers = (
{
layerId = "284DCAF7-AB20-402F-AEDF-E1CEEB9773D4";
leftMetricsKey = "=H";
name = Regular;
paths = (
{
closed = 1;
nodes = (
"178 0 LINE",
"178 662 LINE",
"284 662 LINE SMOOTH",
"399 662 OFFCURVE",
"448 616 OFFCURVE",
"448 517 CURVE SMOOTH",
"448 416 OFFCURVE",
"394 365 OFFCURVE",
"276 365 CURVE SMOOTH",
"162 365 LINE",
"162 286 LINE",
"223 286 LINE SMOOTH",
"265 286 OFFCURVE",
"296 287 OFFCURVE",
"342 293 CURVE SMOOTH",
"464 308 OFFCURVE",
"542 395 OFFCURVE",
"542 521 CURVE SMOOTH",
"542 652 OFFCURVE",
"469 722 OFFCURVE",
"339 736 CURVE SMOOTH",
"307 739 OFFCURVE",
"254 740 OFFCURVE",
"198 740 CURVE SMOOTH",
"88 740 LINE",
"88 0 LINE"
);
}
);
width = 568;
},
{
layerId = "005AA5DB-9C20-42D5-964E-7DFE1013E61C";
leftMetricsKey = "=H";
name = Bold;
paths = (
{
closed = 1;
nodes = (
"246 0 LINE",
"246 604 LINE",
"307 604 LINE SMOOTH",
"371 604 OFFCURVE",
"417 573 OFFCURVE",
"417 499 CURVE SMOOTH",
"417 418 OFFCURVE",
"364 392 OFFCURVE",
"307 392 CURVE SMOOTH",
"230 392 LINE",
"230 255 LINE",
"257 255 LINE SMOOTH",
"290 255 OFFCURVE",
"332 257 OFFCURVE",
"363 261 CURVE SMOOTH",
"516 279 OFFCURVE",
"605 367 OFFCURVE",
"605 510 CURVE SMOOTH",
"605 641 OFFCURVE",
"522 722 OFFCURVE",
"392 736 CURVE SMOOTH",
"360 739 OFFCURVE",
"307 740 OFFCURVE",
"251 740 CURVE SMOOTH",
"62 740 LINE",
"62 0 LINE"
);
}
);
width = 620;
},
{
layerId = "D0F50BF8-B137-4291-8B58-E185C78D1B48";
leftMetricsKey = "=H";
name = Light;
paths = (
{
closed = 1;
nodes = (
"124 0 LINE",
"124 717 LINE",
"264 717 LINE SMOOTH",
"410 717 OFFCURVE",
"470 632 OFFCURVE",
"470 528 CURVE SMOOTH",
"470 423 OFFCURVE",
"388 337 OFFCURVE",
"249 337 CURVE SMOOTH",
"115 337 LINE",
"115 314 LINE",
"172 314 LINE SMOOTH",
"208 314 OFFCURVE",
"237 314 OFFCURVE",
"273 316 CURVE SMOOTH",
"405 322 OFFCURVE",
"496 414 OFFCURVE",
"496 528 CURVE SMOOTH",
"496 639 OFFCURVE",
"434 724 OFFCURVE",
"304 738 CURVE SMOOTH",
"272 740 OFFCURVE",
"229 740 OFFCURVE",
"193 740 CURVE SMOOTH",
"100 740 LINE",
"100 0 LINE"
);
}
);
width = 543;
}
);
leftKerningGroup = H;
leftMetricsKey = "=H";
rightKerningGroup = P;
unicode = 0050;
},
{
glyphname = Thorn;
lastChange = "2015-07-04 01:34:08 +0000";
layers = (
{
layerId = "D0F50BF8-B137-4291-8B58-E185C78D1B48";
leftMetricsKey = "=H";
name = Light;
paths = (
{
closed = 1;
nodes = (
"167 194 LINE SMOOTH",
"203 194 OFFCURVE",
"232 194 OFFCURVE",
"268 196 CURVE SMOOTH",
"400 202 OFFCURVE",
"491 290 OFFCURVE",
"491 398 CURVE SMOOTH",
"491 503 OFFCURVE",
"429 584 OFFCURVE",
"299 598 CURVE SMOOTH",
"267 600 OFFCURVE",
"224 600 OFFCURVE",
"188 600 CURVE SMOOTH",
"116 600 LINE",
"117 577 LINE",
"259 577 LINE SMOOTH",
"405 577 OFFCURVE",
"465 497 OFFCURVE",
"465 398 CURVE SMOOTH",
"465 298 OFFCURVE",
"383 217 OFFCURVE",
"244 217 CURVE SMOOTH",
"115 217 LINE",
"115 194 LINE"
);
},
{
closed = 1;
nodes = (
"124 0 LINE",
"124 740 LINE",
"100 740 LINE",
"100 0 LINE"
);
}
);
width = 536;
},
{
layerId = "284DCAF7-AB20-402F-AEDF-E1CEEB9773D4";
leftMetricsKey = "=H";
name = Regular;
paths = (
{
closed = 1;
nodes = (
"228 168 LINE SMOOTH",
"270 168 OFFCURVE",
"301 169 OFFCURVE",
"347 175 CURVE SMOOTH",
"469 190 OFFCURVE",
"537 274 OFFCURVE",
"537 390 CURVE SMOOTH",
"537 502 OFFCURVE",
"474 584 OFFCURVE",
"344 598 CURVE SMOOTH",
"308 601 OFFCURVE",
"265 602 OFFCURVE",
"222 602 CURVE SMOOTH",
"162 602 LINE",
"162 524 LINE",
"279 524 LINE SMOOTH",
"394 524 OFFCURVE",
"443 480 OFFCURVE",
"443 386 CURVE SMOOTH",
"443 285 OFFCURVE",
"389 246 OFFCURVE",
"271 247 CURVE SMOOTH",
"162 247 LINE",
"162 168 LINE"
);
},
{
closed = 1;
nodes = (
"178 0 LINE",
"178 740 LINE",
"88 740 LINE",
"88 0 LINE"
);
}
);
width = 589;
},
{
layerId = "005AA5DB-9C20-42D5-964E-7DFE1013E61C";
name = Bold;
paths = (
{
closed = 1;
nodes = (
"265 138 LINE SMOOTH",
"298 138 OFFCURVE",
"340 140 OFFCURVE",
"371 144 CURVE SMOOTH",
"524 162 OFFCURVE",
"613 250 OFFCURVE",
"613 393 CURVE SMOOTH",
"613 524 OFFCURVE",
"530 605 OFFCURVE",
"400 619 CURVE SMOOTH",
"370 621 OFFCURVE",
"322 623 OFFCURVE",
"271 623 CURVE SMOOTH",
"238 623 LINE",
"238 487 LINE",
"315 487 LINE SMOOTH",
"379 487 OFFCURVE",
"425 456 OFFCURVE",
"425 382 CURVE SMOOTH",
"425 301 OFFCURVE",
"372 275 OFFCURVE",
"315 275 CURVE SMOOTH",
"238 275 LINE",
"238 138 LINE"
);
},
{
closed = 1;
nodes = (
"254 0 LINE",
"254 740 LINE",
"70 740 LINE",
"70 0 LINE"
);
}
);
width = 651;
}
);
leftKerningGroup = H;
rightKerningGroup = Thorn;
unicode = 00DE;
},
{
glyphname = Q;
lastChange = "2015-07-04 01:34:08 +0000";
layers = (
{
components = (
{
disableAlignment = 1;
name = elem.Ohalf;
transform = "{1, 0, 0, 1, -20, 0}";
},
{
disableAlignment = 1;
name = elem.Ohalf;
transform = "{1, 0, 0, -1, -20, 740}";
},
{
disableAlignment = 1;
name = elem.Ohalf;
transform = "{-1, 0, 0, 1, 784, 0}";
},
{
disableAlignment = 1;
name = elem.Ohalf;
transform = "{-1, 0, 0, -1, 784, 740}";
}
);
layerId = "284DCAF7-AB20-402F-AEDF-E1CEEB9773D4";
leftMetricsKey = "=O";
rightMetricsKey = "=O";
name = Regular;
paths = (
{
closed = 1;
nodes = (
"707 -161 LINE",
"440 30 LINE",
"339 -12 LINE",
"368 -14 OFFCURVE",
"401 -22 OFFCURVE",
"450 -65 CURVE SMOOTH",
"616 -211 LINE"
);
}
);
width = 764;
},
{
components = (
{
disableAlignment = 1;
name = elem.Ohalf;
transform = "{1, 0, 0, 1, 2, 0}";
},
{
disableAlignment = 1;
name = elem.Ohalf;
transform = "{1, 0, 0, -1, 2, 740}";
},
{
disableAlignment = 1;
name = elem.Ohalf;
transform = "{-1, 0, 0, 1, 806, 0}";
},
{
disableAlignment = 1;
name = elem.Ohalf;
transform = "{-1, 0, 0, -1, 806, 740}";
}
);
layerId = "005AA5DB-9C20-42D5-964E-7DFE1013E61C";
rightMetricsKey = "=O";
name = Bold;
paths = (
{
closed = 1;
nodes = (
"779 -141 LINE",
"532 60 LINE",
"361 -12 LINE",
"408 -16 OFFCURVE",
"442 -32 OFFCURVE",
"482 -75 CURVE SMOOTH",
"608 -211 LINE"
);
}
);
width = 812;
},
{
components = (
{
disableAlignment = 1;
name = elem.Ohalf;
transform = "{1, 0, 0, 1, -30, 0}";
},
{
disableAlignment = 1;
name = elem.Ohalf;
transform = "{1, 0, 0, -1, -30, 740}";
},
{
disableAlignment = 1;
name = elem.Ohalf;
transform = "{-1, 0, 0, 1, 774, 0}";
},
{
disableAlignment = 1;
name = elem.Ohalf;
transform = "{-1, 0, 0, -1, 774, 740}";
}
);
layerId = "D0F50BF8-B137-4291-8B58-E185C78D1B48";
leftMetricsKey = "=O";
rightMetricsKey = "=O";
name = Light;
paths = (
{
closed = 1;
nodes = (
"630 -198 LINE",
"402 -3 LINE",
"335 -12 LINE",
"378 -15 OFFCURVE",
"391 -22 OFFCURVE",
"417 -45 CURVE SMOOTH",
"606 -211 LINE"
);
}
);
width = 744;
}
);
leftKerningGroup = O;
rightKerningGroup = O;
rightMetricsKey = "=O";
unicode = 0051;
},
{
glyphname = R;
lastChange = "2015-10-12 14:37:02 +0000";
layers = (
{
anchors = (
{
name = bottom;
position = "{300, 0}";
},
{
name = top;
position = "{284, 740}";
}
);
layerId = "284DCAF7-AB20-402F-AEDF-E1CEEB9773D4";
leftMetricsKey = "=H";
name = Regular;
paths = (
{
closed = 1;
nodes = (
"178 0 LINE",
"178 666 LINE",
"302 666 LINE SMOOTH",
"397 666 OFFCURVE",
"452 627 OFFCURVE",
"452 521 CURVE SMOOTH",
"452 445 OFFCURVE",
"401 378 OFFCURVE",
"314 378 CURVE SMOOTH",
"162 378 LINE",
"162 304 LINE",
"333 304 LINE",
"316 315 LINE",
"465 0 LINE",
"574 0 LINE",
"390 361 LINE",
"377 316 LINE",
"484 346 OFFCURVE",
"550 424 OFFCURVE",
"550 531 CURVE SMOOTH",
"550 643 OFFCURVE",
"481 724 OFFCURVE",
"358 737 CURVE SMOOTH",
"336 739 OFFCURVE",
"301 740 OFFCURVE",
"265 740 CURVE SMOOTH",
"88 740 LINE",
"88 0 LINE"
);
}
);
width = 604;
},
{
anchors = (
{
name = bottom;
position = "{323, 0}";
},
{
name = top;
position = "{323, 730}";
}
);
layerId = "005AA5DB-9C20-42D5-964E-7DFE1013E61C";
leftMetricsKey = "=H";
name = Bold;
paths = (
{
closed = 1;
nodes = (
"246 0 LINE",
"246 604 LINE",
"322 604 LINE SMOOTH",
"387 604 OFFCURVE",
"425 574 OFFCURVE",
"425 504 CURVE SMOOTH",
"425 447 OFFCURVE",
"396 402 OFFCURVE",
"339 402 CURVE SMOOTH",
"230 402 LINE",
"230 272 LINE",
"330 272 LINE",
"308 291 LINE",
"426 0 LINE",
"632 0 LINE",
"473 338 LINE",
"435 293 LINE",
"541 319 OFFCURVE",
"615 400 OFFCURVE",
"615 508 CURVE SMOOTH",
"615 658 OFFCURVE",
"512 726 OFFCURVE",
"409 735 CURVE SMOOTH",
"357 740 OFFCURVE",
"322 740 OFFCURVE",
"266 740 CURVE SMOOTH",
"62 740 LINE",
"62 0 LINE"
);
}
);
width = 656;
},
{
anchors = (
{
name = bottom;
position = "{281, 0}";
},
{
name = top;
position = "{271, 730}";
}
);
layerId = "D0F50BF8-B137-4291-8B58-E185C78D1B48";
leftMetricsKey = "=H";
name = Light;
paths = (
{
closed = 1;
nodes = (
"124 0 LINE",
"124 717 LINE",
"250 717 LINE SMOOTH",
"404 717 OFFCURVE",
"466 652 OFFCURVE",
"466 533 CURVE SMOOTH",
"466 452 OFFCURVE",
"417 359 OFFCURVE",
"315 359 CURVE SMOOTH",
"115 359 LINE",
"115 336 LINE",
"334 336 LINE",
"326 339 LINE",
"485 0 LINE",
"513 0 LINE",
"346 351 LINE",
"349 340 LINE",
"431 355 OFFCURVE",
"492 430 OFFCURVE",
"492 535 CURVE SMOOTH",
"492 648 OFFCURVE",
"431 723 OFFCURVE",
"313 737 CURVE SMOOTH",
"287 740 OFFCURVE",
"256 740 OFFCURVE",
"220 740 CURVE SMOOTH",
"100 740 LINE",
"100 0 LINE"
);
}
);
width = 573;
}
);
leftKerningGroup = H;
leftMetricsKey = "=H";
rightKerningGroup = R;
unicode = 0052;
},
{
glyphname = S;
lastChange = "2015-10-12 14:37:05 +0000";
layers = (
{
anchors = (
{
name = bottom;
position = "{278, 0}";
},
{
name = top;
position = "{295, 740}";
}
);
layerId = "284DCAF7-AB20-402F-AEDF-E1CEEB9773D4";
name = Regular;
paths = (
{
closed = 1;
nodes = (
"390 -14 OFFCURVE",
"503 55 OFFCURVE",
"503 189 CURVE SMOOTH",
"503 295 OFFCURVE",
"433 347 OFFCURVE",
"300 425 CURVE SMOOTH",
"228 467 OFFCURVE",
"184 513 OFFCURVE",
"184 575 CURVE SMOOTH",
"184 638 OFFCURVE",
"232 674 OFFCURVE",
"319 674 CURVE SMOOTH",
"362 674 OFFCURVE",
"415 668 OFFCURVE",
"451 649 CURVE",
"481 716 LINE",
"435 743 OFFCURVE",
"384 754 OFFCURVE",
"326 754 CURVE SMOOTH",
"187 754 OFFCURVE",
"90 683 OFFCURVE",
"90 563 CURVE SMOOTH",
"90 458 OFFCURVE",
"157 405 OFFCURVE",
"243 355 CURVE SMOOTH",
"356 289 OFFCURVE",
"405 249 OFFCURVE",
"405 181 CURVE SMOOTH",
"405 103 OFFCURVE",
"339 66 OFFCURVE",
"254 66 CURVE SMOOTH",
"198 66 OFFCURVE",
"141 82 OFFCURVE",
"94 113 CURVE",
"54 49 LINE",
"99 5 OFFCURVE",
"178 -14 OFFCURVE",
"251 -14 CURVE SMOOTH"
);
}
);
width = 561;
},
{
anchors = (
{
name = bottom;
position = "{267, 0}";
},
{
name = top;
position = "{302, 730}";
}
);
layerId = "005AA5DB-9C20-42D5-964E-7DFE1013E61C";
name = Bold;
paths = (
{
closed = 1;
nodes = (
"409 -14 OFFCURVE",
"542 76 OFFCURVE",
"542 229 CURVE SMOOTH",
"542 337 OFFCURVE",
"468 394 OFFCURVE",
"347 441 CURVE SMOOTH",
"259 475 OFFCURVE",
"235 507 OFFCURVE",
"235 547 CURVE SMOOTH",
"235 588 OFFCURVE",
"287 614 OFFCURVE",
"339 614 CURVE SMOOTH",
"392 614 OFFCURVE",
"441 604 OFFCURVE",
"489 588 CURVE",
"518 711 LINE",
"465 739 OFFCURVE",
"392 754 OFFCURVE",
"322 754 CURVE SMOOTH",
"162 754 OFFCURVE",
"51 654 OFFCURVE",
"51 530 CURVE SMOOTH",
"51 411 OFFCURVE",
"126 363 OFFCURVE",
"231 318 CURVE SMOOTH",
"332 275 OFFCURVE",
"358 248 OFFCURVE",
"358 204 CURVE SMOOTH",
"358 163 OFFCURVE",
"322 126 OFFCURVE",
"240 126 CURVE SMOOTH",
"184 126 OFFCURVE",
"122 136 OFFCURVE",
"52 166 CURVE",
"23 38 LINE",
"79 4 OFFCURVE",
"162 -14 OFFCURVE",
"229 -14 CURVE SMOOTH"
);
}
);
width = 568;
},
{
anchors = (
{
name = bottom;
position = "{271, 0}";
},
{
name = top;
position = "{293, 730}";
}
);
layerId = "D0F50BF8-B137-4291-8B58-E185C78D1B48";
name = Light;
paths = (
{
closed = 1;
nodes = (
"370 -14 OFFCURVE",
"463 57 OFFCURVE",
"463 163 CURVE SMOOTH",
"463 249 OFFCURVE",
"408 313 OFFCURVE",
"283 391 CURVE SMOOTH",
"169 462 OFFCURVE",
"130 509 OFFCURVE",
"130 580 CURVE SMOOTH",
"130 663 OFFCURVE",
"198 731 OFFCURVE",
"308 731 CURVE SMOOTH",
"365 731 OFFCURVE",
"399 723 OFFCURVE",
"448 698 CURVE",
"456 717 LINE",
"413 742 OFFCURVE",
"372 754 OFFCURVE",
"313 754 CURVE SMOOTH",
"195 754 OFFCURVE",
"104 685 OFFCURVE",
"104 580 CURVE SMOOTH",
"104 497 OFFCURVE",
"143 447 OFFCURVE",
"263 372 CURVE SMOOTH",
"394 291 OFFCURVE",
"437 237 OFFCURVE",
"437 162 CURVE SMOOTH",
"437 63 OFFCURVE",
"350 9 OFFCURVE",
"261 9 CURVE SMOOTH",
"185 9 OFFCURVE",
"133 26 OFFCURVE",
"75 73 CURVE",
"65 52 LINE",
"123 0 OFFCURVE",
"188 -14 OFFCURVE",
"257 -14 CURVE SMOOTH"
);
}
);
width = 545;
},
{
anchors = (
{
name = bottom;
position = "{276, 0}";
},
{
name = top;
position = "{301, 730}";
}
);
associatedMasterId = "005AA5DB-9C20-42D5-964E-7DFE1013E61C";
layerId = "AB44B0AB-8BC1-4438-A750-2E53DCDDD2E4";
name = "Bold Jun 2 15, 23:26";
paths = (
{
closed = 1;
nodes = (
"426 -14 OFFCURVE",
"542 71 OFFCURVE",
"542 214 CURVE SMOOTH",
"542 329 OFFCURVE",
"465 389 OFFCURVE",
"352 447 CURVE SMOOTH",
"285 481 OFFCURVE",
"246 503 OFFCURVE",
"246 545 CURVE SMOOTH",
"246 592 OFFCURVE",
"277 614 OFFCURVE",
"336 614 CURVE SMOOTH",
"384 614 OFFCURVE",
"451 599 OFFCURVE",
"487 579 CURVE",
"520 701 LINE",
"470 734 OFFCURVE",
"404 754 OFFCURVE",
"315 754 CURVE SMOOTH",
"169 754 OFFCURVE",
"62 656 OFFCURVE",
"62 534 CURVE SMOOTH",
"62 431 OFFCURVE",
"115 376 OFFCURVE",
"230 312 CURVE SMOOTH",
"322 262 OFFCURVE",
"358 235 OFFCURVE",
"358 191 CURVE SMOOTH",
"358 152 OFFCURVE",
"322 126 OFFCURVE",
"257 126 CURVE SMOOTH",
"187 126 OFFCURVE",
"115 139 OFFCURVE",
"68 166 CURVE",
"35 42 LINE",
"91 4 OFFCURVE",
"170 -14 OFFCURVE",
"260 -14 CURVE SMOOTH"
);
}
);
width = 585;
}
);
leftKerningGroup = S;
rightKerningGroup = S;
unicode = 0053;
},
{
glyphname = T;
lastChange = "2015-10-12 14:37:08 +0000";
layers = (
{
anchors = (
{
name = bottom;
position = "{284, 0}";
},
{
name = center;
position = "{288, 390}";
},
{
name = top;
position = "{284, 740}";
}
);
layerId = "284DCAF7-AB20-402F-AEDF-E1CEEB9773D4";
name = Regular;
paths = (
{
closed = 1;
nodes = (
"333 0 LINE",
"333 666 LINE",
"561 666 LINE",
"571 740 LINE",
"16 740 LINE",
"16 666 LINE",
"243 666 LINE",
"243 0 LINE"
);
}
);
width = 580;
},
{
anchors = (
{
name = bottom;
position = "{324, 0}";
},
{
name = center;
position = "{324, 370}";
},
{
name = top;
position = "{324, 730}";
}
);
layerId = "005AA5DB-9C20-42D5-964E-7DFE1013E61C";
name = Bold;
paths = (
{
closed = 1;
nodes = (
"416 0 LINE",
"416 604 LINE",
"628 604 LINE",
"648 740 LINE",
"15 740 LINE",
"15 604 LINE",
"232 604 LINE",
"232 0 LINE"
);
}
);
width = 650;
},
{
anchors = (
{
name = bottom;
position = "{264, 0}";
},
{
name = center;
position = "{264, 390}";
},
{
name = top;
position = "{264, 730}";
}
);
layerId = "D0F50BF8-B137-4291-8B58-E185C78D1B48";
name = Light;
paths = (
{
closed = 1;
nodes = (
"276 0 LINE",
"276 717 LINE",
"513 717 LINE",
"523 740 LINE",
"15 740 LINE",
"15 717 LINE",
"252 717 LINE",
"252 0 LINE"
);
}
);
width = 536;
}
);
leftKerningGroup = T;
rightKerningGroup = T;
unicode = 0054;
},
{
glyphname = U;
lastChange = "2015-10-12 14:37:11 +0000";
layers = (
{
anchors = (
{
name = top;
position = "{331, 740}";
}
);
layerId = "284DCAF7-AB20-402F-AEDF-E1CEEB9773D4";
leftMetricsKey = "=H-10";
rightMetricsKey = "=H-10";
name = Regular;
paths = (
{
closed = 1;
nodes = (
"479 -14 OFFCURVE",
"567 72 OFFCURVE",
"580 208 CURVE SMOOTH",
"583 241 OFFCURVE",
"584 295 OFFCURVE",
"584 346 CURVE SMOOTH",
"584 740 LINE",
"494 740 LINE",
"494 260 LINE SMOOTH",
"494 120 OFFCURVE",
"436 62 OFFCURVE",
"336 62 CURVE SMOOTH",
"236 62 OFFCURVE",
"168 105 OFFCURVE",
"168 260 CURVE SMOOTH",
"168 740 LINE",
"78 740 LINE",
"78 346 LINE SMOOTH",
"78 295 OFFCURVE",
"79 241 OFFCURVE",
"82 208 CURVE SMOOTH",
"96 60 OFFCURVE",
"180 -14 OFFCURVE",
"333 -14 CURVE SMOOTH"
);
}
);
width = 662;
},
{
anchors = (
{
name = top;
position = "{355, 730}";
}
);
layerId = "005AA5DB-9C20-42D5-964E-7DFE1013E61C";
leftMetricsKey = "=H-7";
rightMetricsKey = "=H-7";
name = Bold;
paths = (
{
closed = 1;
nodes = (
"535 -14 OFFCURVE",
"635 76 OFFCURVE",
"645 220 CURVE SMOOTH",
"647 253 OFFCURVE",
"647 291 OFFCURVE",
"647 332 CURVE SMOOTH",
"647 740 LINE",
"471 740 LINE",
"471 262 LINE SMOOTH",
"471 177 OFFCURVE",
"431 126 OFFCURVE",
"358 126 CURVE SMOOTH",
"279 126 OFFCURVE",
"239 170 OFFCURVE",
"239 264 CURVE SMOOTH",
"239 740 LINE",
"55 740 LINE",
"55 332 LINE SMOOTH",
"55 291 OFFCURVE",
"55 253 OFFCURVE",
"57 220 CURVE SMOOTH",
"67 76 OFFCURVE",
"163 -14 OFFCURVE",
"350 -14 CURVE SMOOTH"
);
}
);
width = 702;
},
{
anchors = (
{
name = top;
position = "{311, 730}";
}
);
layerId = "D0F50BF8-B137-4291-8B58-E185C78D1B48";
leftMetricsKey = "=H-10";
rightMetricsKey = "=H-10";
name = Light;
paths = (
{
closed = 1;
nodes = (
"438 -14 OFFCURVE",
"515 54 OFFCURVE",
"528 198 CURVE SMOOTH",
"531 231 OFFCURVE",
"531 263 OFFCURVE",
"531 304 CURVE SMOOTH",
"531 740 LINE",
"507 740 LINE",
"507 245 LINE SMOOTH",
"507 81 OFFCURVE",
"436 9 OFFCURVE",
"311 9 CURVE SMOOTH",
"195 9 OFFCURVE",
"114 74 OFFCURVE",
"114 245 CURVE SMOOTH",
"114 740 LINE",
"90 740 LINE",
"90 304 LINE SMOOTH",
"90 263 OFFCURVE",
"90 231 OFFCURVE",
"93 198 CURVE SMOOTH",
"106 54 OFFCURVE",
"182 -14 OFFCURVE",
"310 -14 CURVE SMOOTH"
);
}
);
width = 621;
}
);
leftKerningGroup = U;
leftMetricsKey = "=H-7";
rightKerningGroup = U;
rightMetricsKey = "=H-7";
unicode = 0055;
},
{
glyphname = Uogonek;
lastChange = "2015-06-30 14:30:14 +0000";
layers = (
{
components = (
{
name = U;
},
{
name = elem.ogonekunder;
transform = "{1, 0, 0, 1, 9, 0}";
}
);
layerId = "D0F50BF8-B137-4291-8B58-E185C78D1B48";
name = Light;
paths = (
{
closed = 1;
nodes = (
"320 -141 LINE",
"320 -82 OFFCURVE",
"357 -27 OFFCURVE",
"424 10 CURVE",
"397 10 LINE",
"343 -16 OFFCURVE",
"296 -74 OFFCURVE",
"296 -144 CURVE"
);
}
);
width = 620;
},
{
components = (
{
name = U;
},
{
name = elem.ogonekunder;
transform = "{1, 0, 0, 1, 261, 0}";
}
);
layerId = "284DCAF7-AB20-402F-AEDF-E1CEEB9773D4";
name = Regular;
paths = (
{
closed = 1;
nodes = (
"385 -106 LINE",
"385 -53 OFFCURVE",
"417 -14 OFFCURVE",
"475 23 CURVE",
"395 2 LINE",
"345 -32 OFFCURVE",
"303 -75 OFFCURVE",
"303 -135 CURVE"
);
}
);
width = 694;
},
{
components = (
{
name = U;
},
{
name = elem.ogonekunder;
transform = "{1, 0, 0, 1, 304, 0}";
}
);
layerId = "005AA5DB-9C20-42D5-964E-7DFE1013E61C";
name = Bold;
paths = (
{
closed = 1;
nodes = (
"432 -77 LINE",
"432 -41 OFFCURVE",
"459 -12 OFFCURVE",
"530 22 CURVE",
"447 20 LINE",
"371 -4 OFFCURVE",
"318 -53 OFFCURVE",
"318 -119 CURVE"
);
}
);
width = 702;
}
);
leftKerningGroup = U;
rightKerningGroup = U;
unicode = 0172;
},
{
glyphname = V;
lastChange = "2015-06-30 15:30:42 +0000";
layers = (
{
layerId = "284DCAF7-AB20-402F-AEDF-E1CEEB9773D4";
name = Regular;
paths = (
{
closed = 1;
nodes = (
"390 0 LINE",
"660 740 LINE",
"564 740 LINE",
"316 24 LINE",
"350 23 LINE",
"119 740 LINE",
"19 740 LINE",
"270 0 LINE"
);
}
);
width = 671;
},
{
layerId = "005AA5DB-9C20-42D5-964E-7DFE1013E61C";
name = Bold;
paths = (
{
closed = 1;
nodes = (
"498 0 LINE",
"754 740 LINE",
"559 740 LINE",
"340 24 LINE",
"420 23 LINE",
"218 740 LINE",
"19 740 LINE",
"256 0 LINE"
);
}
);
width = 764;
},
{
layerId = "D0F50BF8-B137-4291-8B58-E185C78D1B48";
name = Light;
paths = (
{
closed = 1;
nodes = (
"319 0 LINE",
"605 740 LINE",
"578 740 LINE",
"302 20 LINE",
"311 20 LINE",
"56 740 LINE",
"30 740 LINE",
"294 0 LINE"
);
}
);
width = 633;
}
);
leftKerningGroup = V;
rightKerningGroup = V;
unicode = 0056;
},
{
glyphname = W;
lastChange = "2015-10-12 14:37:15 +0000";
layers = (
{
anchors = (
{
name = top;
position = "{493, 740}";
}
);
layerId = "284DCAF7-AB20-402F-AEDF-E1CEEB9773D4";
leftMetricsKey = "=V";
rightMetricsKey = "=V";
name = Regular;
paths = (
{
closed = 1;
nodes = (
"316 0 LINE",
"503 630 LINE",
"478 630 LINE",
"654 0 LINE",
"754 0 LINE",
"960 740 LINE",
"871 740 LINE",
"699 58 LINE",
"720 58 LINE",
"534 719 LINE",
"452 719 LINE",
"256 59 LINE",
"280 59 LINE",
"119 740 LINE",
"19 740 LINE",
"216 0 LINE"
);
}
);
width = 971;
},
{
anchors = (
{
name = top;
position = "{536, 730}";
}
);
layerId = "005AA5DB-9C20-42D5-964E-7DFE1013E61C";
leftMetricsKey = "=V";
rightMetricsKey = "=V";
name = Bold;
paths = (
{
closed = 1;
nodes = (
"412 0 LINE",
"576 688 LINE",
"475 688 LINE",
"650 0 LINE",
"854 0 LINE",
"1060 740 LINE",
"861 740 LINE",
"729 38 LINE",
"793 38 LINE",
"621 727 LINE",
"452 727 LINE",
"286 39 LINE",
"350 39 LINE",
"229 740 LINE",
"19 740 LINE",
"206 0 LINE"
);
}
);
width = 1070;
},
{
anchors = (
{
name = top;
position = "{468, 730}";
}
);
layerId = "D0F50BF8-B137-4291-8B58-E185C78D1B48";
leftMetricsKey = "=V";
rightMetricsKey = "=V";
name = Light;
paths = (
{
closed = 1;
nodes = (
"262 0 LINE",
"472 705 LINE",
"463 705 LINE",
"656 0 LINE",
"687 0 LINE",
"906 740 LINE",
"881 740 LINE",
"671 19 LINE",
"675 19 LINE",
"482 719 LINE",
"453 719 LINE",
"244 20 LINE",
"253 20 LINE",
"55 740 LINE",
"30 740 LINE",
"235 0 LINE"
);
}
);
width = 934;
}
);
leftKerningGroup = W;
leftMetricsKey = "=V";
rightKerningGroup = W;
rightMetricsKey = "=V";
unicode = 0057;
},
{
glyphname = X;
lastChange = "2015-06-30 14:30:14 +0000";
layers = (
{
layerId = "284DCAF7-AB20-402F-AEDF-E1CEEB9773D4";
name = Regular;
paths = (
{
closed = 1;
nodes = (
"145 0 LINE",
"340 348 LINE",
"295 348 LINE",
"488 0 LINE",
"597 0 LINE",
"352 417 LINE",
"351 348 LINE",
"593 740 LINE",
"490 740 LINE",
"301 404 LINE",
"341 404 LINE",
"160 740 LINE",
"52 740 LINE",
"290 336 LINE",
"290 405 LINE",
"35 0 LINE"
);
}
);
width = 647;
},
{
layerId = "005AA5DB-9C20-42D5-964E-7DFE1013E61C";
name = Bold;
paths = (
{
closed = 1;
nodes = (
"209 0 LINE",
"399 348 LINE",
"300 348 LINE",
"488 0 LINE",
"689 0 LINE",
"429 417 LINE",
"428 348 LINE",
"685 740 LINE",
"490 740 LINE",
"306 404 LINE",
"400 404 LINE",
"224 740 LINE",
"24 740 LINE",
"277 336 LINE",
"277 405 LINE",
"7 0 LINE"
);
}
);
width = 706;
},
{
layerId = "D0F50BF8-B137-4291-8B58-E185C78D1B48";
name = Light;
paths = (
{
closed = 1;
nodes = (
"94 0 LINE",
"331 367 LINE",
"321 367 LINE",
"544 0 LINE",
"575 0 LINE",
"338 383 LINE",
"340 376 LINE",
"575 740 LINE",
"547 740 LINE",
"322 389 LINE",
"331 389 LINE",
"122 740 LINE",
"94 740 LINE",
"312 374 LINE",
"313 380 LINE",
"66 0 LINE"
);
}
);
width = 625;
}
);
leftKerningGroup = X;
rightKerningGroup = X;
unicode = 0058;
},
{
glyphname = Y;
lastChange = "2015-10-12 14:37:18 +0000";
layers = (
{
anchors = (
{
name = top;
position = "{307, 740}";
}
);
layerId = "284DCAF7-AB20-402F-AEDF-E1CEEB9773D4";
name = Regular;
paths = (
{
closed = 1;
nodes = (
"345 0 LINE",
"345 368 LINE",
"325 293 LINE",
"585 740 LINE",
"487 740 LINE",
"285 367 LINE",
"323 367 LINE",
"128 740 LINE",
"20 740 LINE",
"275 295 LINE",
"255 370 LINE",
"255 0 LINE"
);
}
);
width = 599;
},
{
anchors = (
{
name = top;
position = "{355, 730}";
}
);
layerId = "005AA5DB-9C20-42D5-964E-7DFE1013E61C";
name = Bold;
paths = (
{
closed = 1;
nodes = (
"444 0 LINE",
"444 368 LINE",
"437 293 LINE",
"697 740 LINE",
"499 740 LINE",
"321 367 LINE",
"391 367 LINE",
"220 740 LINE",
"12 740 LINE",
"267 291 LINE",
"260 370 LINE",
"260 0 LINE"
);
}
);
width = 709;
},
{
anchors = (
{
name = top;
position = "{269, 730}";
}
);
layerId = "D0F50BF8-B137-4291-8B58-E185C78D1B48";
name = Light;
paths = (
{
closed = 1;
nodes = (
"279 0 LINE",
"279 335 LINE",
"263 292 LINE",
"522 740 LINE",
"494 740 LINE",
"259 331 LINE",
"276 331 LINE",
"42 740 LINE",
"15 740 LINE",
"269 296 LINE",
"255 337 LINE",
"255 0 LINE"
);
}
);
width = 536;
}
);
leftKerningGroup = Y;
rightKerningGroup = Y;
unicode = 0059;
},
{
glyphname = Z;
lastChange = "2015-10-12 14:37:23 +0000";
layers = (
{
anchors = (
{
name = top;
position = "{313, 740}";
}
);
layerId = "284DCAF7-AB20-402F-AEDF-E1CEEB9773D4";
name = Regular;
paths = (
{
closed = 1;
nodes = (
"571 0 LINE",
"581 74 LINE",
"125 74 LINE",
"144 39 LINE",
"546 686 LINE",
"546 740 LINE",
"79 740 LINE",
"79 666 LINE",
"476 666 LINE",
"457 701 LINE",
"56 56 LINE",
"56 0 LINE"
);
}
);
width = 620;
},
{
anchors = (
{
name = top;
position = "{336, 730}";
}
);
layerId = "005AA5DB-9C20-42D5-964E-7DFE1013E61C";
name = Bold;
paths = (
{
closed = 1;
nodes = (
"619 0 LINE",
"629 136 LINE",
"107 136 LINE",
"226 72 LINE",
"594 661 LINE",
"594 740 LINE",
"63 740 LINE",
"63 604 LINE",
"430 604 LINE",
"401 668 LINE",
"34 83 LINE",
"34 0 LINE"
);
}
);
width = 658;
},
{
anchors = (
{
name = top;
position = "{311, 730}";
}
);
layerId = "D0F50BF8-B137-4291-8B58-E185C78D1B48";
name = Light;
paths = (
{
closed = 1;
nodes = (
"551 0 LINE",
"561 23 LINE",
"94 23 LINE",
"108 12 LINE",
"527 728 LINE",
"527 740 LINE",
"109 740 LINE",
"109 717 LINE",
"518 717 LINE",
"500 728 LINE",
"80 12 LINE",
"80 0 LINE"
);
}
);
width = 608;
}
);
leftKerningGroup = Z;
rightKerningGroup = Z;
unicode = 005A;
},
{
glyphname = a;
lastChange = "2015-06-30 14:30:14 +0000";
layers = (
{
anchors = (
{
name = ogonek;
position = "{399, 0}";
},
{
name = top;
position = "{270, 520}";
}
);
layerId = "284DCAF7-AB20-402F-AEDF-E1CEEB9773D4";
name = Regular;
paths = (
{
closed = 1;
nodes = (
"462 0 LINE",
"451 54 OFFCURVE",
"449 82 OFFCURVE",
"449 135 CURVE SMOOTH",
"449 298 LINE SMOOTH",
"449 333 OFFCURVE",
"449 358 OFFCURVE",
"448 381 CURVE SMOOTH",
"443 478 OFFCURVE",
"381 534 OFFCURVE",
"266 534 CURVE SMOOTH",
"208 534 OFFCURVE",
"151 522 OFFCURVE",
"94 489 CURVE",
"119 431 LINE",
"163 454 OFFCURVE",
"210 464 OFFCURVE",
"247 464 CURVE SMOOTH",
"328 464 OFFCURVE",
"361 420 OFFCURVE",
"361 352 CURVE SMOOTH",
"361 287 LINE",
"361 264 LINE",
"361 48 LINE",
"376 -11 LINE"
);
},
{
closed = 1;
nodes = (
"266 -14 OFFCURVE",
"319 6 OFFCURVE",
"400 69 CURVE",
"370 99 LINE",
"320 69 OFFCURVE",
"280 56 OFFCURVE",
"238 56 CURVE SMOOTH",
"174 56 OFFCURVE",
"138 87 OFFCURVE",
"138 155 CURVE SMOOTH",
"138 215 OFFCURVE",
"186 241 OFFCURVE",
"260 241 CURVE SMOOTH",
"307 241 OFFCURVE",
"339 238 OFFCURVE",
"369 233 CURVE",
"369 295 LINE",
"340 303 OFFCURVE",
"301 309 OFFCURVE",
"265 309 CURVE SMOOTH",
"139 309 OFFCURVE",
"48 255 OFFCURVE",
"48 147 CURVE SMOOTH",
"48 24 OFFCURVE",
"118 -14 OFFCURVE",
"204 -14 CURVE SMOOTH"
);
}
);
width = 532;
},
{
anchors = (
{
name = ogonek;
position = "{326, -122}";
},
{
name = top;
position = "{298, 520}";
}
);
layerId = "005AA5DB-9C20-42D5-964E-7DFE1013E61C";
name = Bold;
paths = (
{
closed = 1;
nodes = (
"524 0 LINE",
"515 47 OFFCURVE",
"512 82 OFFCURVE",
"512 135 CURVE SMOOTH",
"512 265 LINE SMOOTH",
"512 307 OFFCURVE",
"513 343 OFFCURVE",
"510 368 CURVE SMOOTH",
"497 478 OFFCURVE",
"428 538 OFFCURVE",
"273 538 CURVE SMOOTH",
"205 538 OFFCURVE",
"136 521 OFFCURVE",
"78 487 CURVE",
"96 370 LINE",
"143 394 OFFCURVE",
"194 402 OFFCURVE",
"231 402 CURVE SMOOTH",
"286 402 OFFCURVE",
"340 384 OFFCURVE",
"336 318 CURVE SMOOTH",
"334 287 LINE",
"332 264 LINE",
"332 48 LINE",
"347 -12 LINE"
);
},
{
closed = 1;
nodes = (
"259 -14 OFFCURVE",
"333 22 OFFCURVE",
"394 82 CURVE",
"351 131 LINE",
"324 118 OFFCURVE",
"305 110 OFFCURVE",
"273 110 CURVE SMOOTH",
"235 110 OFFCURVE",
"211 130 OFFCURVE",
"211 166 CURVE SMOOTH",
"211 201 OFFCURVE",
"235 226 OFFCURVE",
"273 226 CURVE SMOOTH",
"297 226 OFFCURVE",
"318 224 OFFCURVE",
"341 220 CURVE",
"341 305 LINE",
"313 314 OFFCURVE",
"278 319 OFFCURVE",
"241 319 CURVE SMOOTH",
"132 319 OFFCURVE",
"35 273 OFFCURVE",
"35 154 CURVE SMOOTH",
"35 38 OFFCURVE",
"108 -14 OFFCURVE",
"196 -14 CURVE SMOOTH"
);
}
);
width = 565;
},
{
anchors = (
{
name = ogonek;
position = "{422, 0}";
},
{
name = top;
position = "{263, 520}";
}
);
layerId = "D0F50BF8-B137-4291-8B58-E185C78D1B48";
name = Light;
paths = (
{
closed = 1;
nodes = (
"409 0 LINE",
"398 46 OFFCURVE",
"396 60 OFFCURVE",
"396 90 CURVE SMOOTH",
"396 323 LINE SMOOTH",
"396 355 OFFCURVE",
"396 374 OFFCURVE",
"394 396 CURVE SMOOTH",
"387 488 OFFCURVE",
"324 530 OFFCURVE",
"251 530 CURVE SMOOTH",
"190 530 OFFCURVE",
"144 513 OFFCURVE",
"103 485 CURVE",
"113 466 LINE",
"155 493 OFFCURVE",
"193 507 OFFCURVE",
"246 507 CURVE SMOOTH",
"334 507 OFFCURVE",
"372 454 OFFCURVE",
"372 362 CURVE SMOOTH",
"372 272 LINE",
"372 260 LINE",
"372 51 LINE",
"384 -3 LINE"
);
},
{
closed = 1;
nodes = (
"263 -14 OFFCURVE",
"337 13 OFFCURVE",
"383 54 CURVE",
"379 77 LINE",
"328 29 OFFCURVE",
"258 9 OFFCURVE",
"207 9 CURVE SMOOTH",
"126 9 OFFCURVE",
"86 54 OFFCURVE",
"86 137 CURVE SMOOTH",
"86 227 OFFCURVE",
"150 265 OFFCURVE",
"261 265 CURVE SMOOTH",
"311 265 OFFCURVE",
"350 260 OFFCURVE",
"380 253 CURVE",
"380 276 LINE",
"350 283 OFFCURVE",
"307 288 OFFCURVE",
"262 288 CURVE SMOOTH",
"132 288 OFFCURVE",
"61 236 OFFCURVE",
"61 136 CURVE SMOOTH",
"61 30 OFFCURVE",
"119 -14 OFFCURVE",
"205 -14 CURVE SMOOTH"
);
}
);
width = 488;
}
);
leftKerningGroup = a;
rightKerningGroup = n;
unicode = 0061;
},
{
glyphname = aogonek;
lastChange = "2015-06-30 14:30:14 +0000";
layers = (
{
components = (
{
name = a;
},
{
name = elem.ogonekunder;
transform = "{1, 0, 0, 1, -7, 0}";
}
);
layerId = "D0F50BF8-B137-4291-8B58-E185C78D1B48";
name = Light;
paths = (
{
closed = 1;
nodes = (
"304 -141 LINE",
"304 -82 OFFCURVE",
"342 -37 OFFCURVE",
"409 0 CURVE",
"382 8 LINE",
"328 -28 OFFCURVE",
"280 -80 OFFCURVE",
"280 -144 CURVE"
);
}
);
width = 507;
},
{
components = (
{
name = a;
},
{
name = elem.ogonekunder;
transform = "{1, 0, 0, 1, 247, 0}";
}
);
layerId = "284DCAF7-AB20-402F-AEDF-E1CEEB9773D4";
name = Regular;
paths = (
{
closed = 1;
nodes = (
"371 -106 LINE",
"371 -53 OFFCURVE",
"404 -24 OFFCURVE",
"462 0 CURVE",
"386 -1 LINE",
"322 -37 OFFCURVE",
"289 -86 OFFCURVE",
"289 -135 CURVE"
);
}
);
width = 532;
},
{
components = (
{
name = a;
},
{
name = elem.ogonekunder;
transform = "{1, 0, 0, 1, 268, 0}";
}
);
layerId = "005AA5DB-9C20-42D5-964E-7DFE1013E61C";
name = Bold;
paths = (
{
closed = 1;
nodes = (
"396 -77 LINE",
"396 -42 OFFCURVE",
"436 -7 OFFCURVE",
"530 0 CURVE",
"353 -12 LINE",
"315 -38 OFFCURVE",
"282 -80 OFFCURVE",
"282 -119 CURVE"
);
}
);
width = 560;
}
);
leftKerningGroup = a;
rightKerningGroup = n;
unicode = 0105;
},
{
glyphname = ae;
lastChange = "2015-07-04 01:34:10 +0000";
layers = (
{
components = (
{
disableAlignment = 1;
name = e;
transform = "{1, 0, 0, 1, 332, 0}";
}
);
layerId = "D0F50BF8-B137-4291-8B58-E185C78D1B48";
leftMetricsKey = "=a";
rightMetricsKey = "=e";
name = Light;
paths = (
{
closed = 1;
nodes = (
"275 -14 OFFCURVE",
"373 25 OFFCURVE",
"417 148 CURVE",
"406 170 LINE",
"364 59 OFFCURVE",
"290 9 OFFCURVE",
"219 9 CURVE SMOOTH",
"130 9 OFFCURVE",
"86 52 OFFCURVE",
"86 128 CURVE SMOOTH",
"86 235 OFFCURVE",
"166 265 OFFCURVE",
"267 265 CURVE SMOOTH",
"322 265 OFFCURVE",
"366 262 OFFCURVE",
"399 257 CURVE",
"399 277 LINE",
"366 284 OFFCURVE",
"318 288 OFFCURVE",
"268 288 CURVE SMOOTH",
"152 288 OFFCURVE",
"61 246 OFFCURVE",
"61 127 CURVE SMOOTH",
"61 28 OFFCURVE",
"124 -14 OFFCURVE",
"218 -14 CURVE SMOOTH"
);
},
{
closed = 1;
nodes = (
"411 383 LINE SMOOTH",
"411 486 OFFCURVE",
"352 532 OFFCURVE",
"257 532 CURVE SMOOTH",
"190 532 OFFCURVE",
"140 515 OFFCURVE",
"96 487 CURVE",
"106 468 LINE",
"152 495 OFFCURVE",
"194 509 OFFCURVE",
"252 509 CURVE SMOOTH",
"355 509 OFFCURVE",
"390 467 OFFCURVE",
"390 335 CURVE SMOOTH",
"390 271 LINE",
"411 268 LINE"
);
}
);
width = 821;
},
{
components = (
{
name = e;
transform = "{1, 0, 0, 1, 302, 0}";
}
);
layerId = "284DCAF7-AB20-402F-AEDF-E1CEEB9773D4";
leftMetricsKey = "=a";
rightMetricsKey = "=e";
name = Regular;
paths = (
{
closed = 1;
nodes = (
"289 -14 OFFCURVE",
"356 10 OFFCURVE",
"414 56 CURVE",
"384 125 LINE",
"350 83 OFFCURVE",
"291 56 OFFCURVE",
"237 56 CURVE SMOOTH",
"180 56 OFFCURVE",
"140 82 OFFCURVE",
"140 145 CURVE SMOOTH",
"140 212 OFFCURVE",
"201 241 OFFCURVE",
"272 241 CURVE SMOOTH",
"303 241 OFFCURVE",
"337 240 OFFCURVE",
"369 235 CURVE",
"369 300 LINE",
"338 306 OFFCURVE",
"306 309 OFFCURVE",
"277 309 CURVE SMOOTH",
"147 309 OFFCURVE",
"48 258 OFFCURVE",
"48 142 CURVE SMOOTH",
"48 29 OFFCURVE",
"124 -14 OFFCURVE",
"223 -14 CURVE SMOOTH"
);
},
{
closed = 1;
nodes = (
"429 315 LINE SMOOTH",
"429 479 OFFCURVE",
"396 534 OFFCURVE",
"267 534 CURVE SMOOTH",
"205 534 OFFCURVE",
"145 523 OFFCURVE",
"86 489 CURVE",
"111 431 LINE",
"158 454 OFFCURVE",
"207 464 OFFCURVE",
"248 464 CURVE SMOOTH",
"328 464 OFFCURVE",
"361 426 OFFCURVE",
"361 358 CURVE SMOOTH",
"361 277 LINE",
"429 278 LINE"
);
}
);
width = 832;
},
{
components = (
{
name = e;
transform = "{1, 0, 0, 1, 312, 0}";
}
);
layerId = "005AA5DB-9C20-42D5-964E-7DFE1013E61C";
name = Bold;
paths = (
{
closed = 1;
nodes = (
"313 -14 OFFCURVE",
"366 10 OFFCURVE",
"437 86 CURVE",
"376 149 LINE",
"348 125 OFFCURVE",
"306 116 OFFCURVE",
"274 116 CURVE SMOOTH",
"234 116 OFFCURVE",
"212 129 OFFCURVE",
"212 168 CURVE SMOOTH",
"212 204 OFFCURVE",
"247 221 OFFCURVE",
"302 221 CURVE SMOOTH",
"321 221 OFFCURVE",
"343 220 OFFCURVE",
"361 218 CURVE",
"361 318 LINE",
"335 323 OFFCURVE",
"304 326 OFFCURVE",
"272 326 CURVE SMOOTH",
"131 326 OFFCURVE",
"35 267 OFFCURVE",
"35 156 CURVE SMOOTH",
"35 38 OFFCURVE",
"120 -14 OFFCURVE",
"229 -14 CURVE SMOOTH"
);
},
{
closed = 1;
nodes = (
"485 265 LINE SMOOTH",
"499 460 OFFCURVE",
"440 538 OFFCURVE",
"285 538 CURVE SMOOTH",
"207 538 OFFCURVE",
"141 519 OFFCURVE",
"97 489 CURVE",
"123 374 LINE",
"172 397 OFFCURVE",
"206 402 OFFCURVE",
"251 402 CURVE SMOOTH",
"313 402 OFFCURVE",
"352 384 OFFCURVE",
"346 318 CURVE SMOOTH",
"343 287 LINE",
"484 252 LINE"
);
}
);
width = 865;
}
);
leftKerningGroup = a;
leftMetricsKey = a;
rightKerningGroup = e;
rightMetricsKey = e;
unicode = 00E6;
},
{
glyphname = b;
lastChange = "2015-07-04 01:34:10 +0000";
layers = (
{
components = (
{
name = elem.bwlRightSide;
transform = "{1, 0, 0, 1, 88, 0}";
}
);
layerId = "284DCAF7-AB20-402F-AEDF-E1CEEB9773D4";
leftMetricsKey = "=l";
rightMetricsKey = "=o";
name = Regular;
paths = (
{
closed = 1;
nodes = (
"176 12 LINE",
"176 760 LINE",
"88 750 LINE",
"88 12 LINE"
);
}
);
width = 580;
},
{
components = (
{
name = elem.bwlRightSide;
transform = "{1, 0, 0, 1, 59, 4}";
}
);
layerId = "005AA5DB-9C20-42D5-964E-7DFE1013E61C";
leftMetricsKey = "=l";
rightMetricsKey = "=o";
name = Bold;
paths = (
{
closed = 1;
nodes = (
"239 22 LINE",
"239 755 LINE",
"59 745 LINE",
"59 22 LINE"
);
}
);
width = 609;
},
{
components = (
{
name = elem.bwlRightSide;
transform = "{1, 0, 0, 1, 80, -4}";
}
);
layerId = "D0F50BF8-B137-4291-8B58-E185C78D1B48";
leftMetricsKey = "=l";
rightMetricsKey = "=o";
name = Light;
paths = (
{
closed = 1;
nodes = (
"124 16 LINE",
"124 760 LINE",
"100 754 LINE",
"100 16 LINE"
);
}
);
width = 538;
}
);
leftKerningGroup = h;
leftMetricsKey = "=l";
rightKerningGroup = o;
rightMetricsKey = "=o";
unicode = 0062;
},
{
glyphname = c;
lastChange = "2015-07-04 01:34:10 +0000";
layers = (
{
anchors = (
{
name = bottom;
position = "{283, 0}";
},
{
name = top;
position = "{283, 520}";
}
);
layerId = "284DCAF7-AB20-402F-AEDF-E1CEEB9773D4";
leftMetricsKey = "=o";
name = Regular;
paths = (
{
closed = 1;
nodes = (
"343 -14 OFFCURVE",
"393 -4 OFFCURVE",
"442 18 CURVE",
"426 78 LINE",
"372 62 OFFCURVE",
"337 56 OFFCURVE",
"296 56 CURVE SMOOTH",
"195 56 OFFCURVE",
"148 111 OFFCURVE",
"148 260 CURVE SMOOTH",
"148 420 OFFCURVE",
"205 464 OFFCURVE",
"308 464 CURVE SMOOTH",
"349 464 OFFCURVE",
"391 458 OFFCURVE",
"433 444 CURVE",
"448 505 LINE",
"416 522 OFFCURVE",
"366 534 OFFCURVE",
"315 534 CURVE SMOOTH",
"146 534 OFFCURVE",
"56 448 OFFCURVE",
"56 251 CURVE SMOOTH",
"56 58 OFFCURVE",
"140 -14 OFFCURVE",
"277 -14 CURVE SMOOTH"
);
}
);
width = 479;
},
{
anchors = (
{
name = bottom;
position = "{279, 0}";
},
{
name = top;
position = "{286, 520}";
}
);
layerId = "005AA5DB-9C20-42D5-964E-7DFE1013E61C";
leftMetricsKey = "=o";
name = Bold;
paths = (
{
closed = 1;
nodes = (
"373 -14 OFFCURVE",
"424 -1 OFFCURVE",
"476 29 CURVE",
"455 139 LINE",
"416 127 OFFCURVE",
"385 122 OFFCURVE",
"345 122 CURVE SMOOTH",
"270 122 OFFCURVE",
"210 159 OFFCURVE",
"210 259 CURVE SMOOTH",
"210 354 OFFCURVE",
"255 402 OFFCURVE",
"351 402 CURVE SMOOTH",
"389 402 OFFCURVE",
"424 398 OFFCURVE",
"463 385 CURVE",
"477 498 LINE",
"440 522 OFFCURVE",
"383 538 OFFCURVE",
"309 538 CURVE SMOOTH",
"145 538 OFFCURVE",
"30 447 OFFCURVE",
"30 261 CURVE SMOOTH",
"30 58 OFFCURVE",
"156 -14 OFFCURVE",
"298 -14 CURVE SMOOTH"
);
}
);
width = 495;
},
{
anchors = (
{
name = bottom;
position = "{254, 0}";
},
{
name = top;
position = "{251, 520}";
}
);
layerId = "D0F50BF8-B137-4291-8B58-E185C78D1B48";
leftMetricsKey = "=o";
name = Light;
paths = (
{
closed = 1;
nodes = (
"298 -14 OFFCURVE",
"347 -7 OFFCURVE",
"406 21 CURVE",
"399 41 LINE",
"353 19 OFFCURVE",
"300 9 OFFCURVE",
"251 9 CURVE SMOOTH",
"141 9 OFFCURVE",
"80 90 OFFCURVE",
"80 252 CURVE SMOOTH",
"80 430 OFFCURVE",
"152 507 OFFCURVE",
"282 507 CURVE SMOOTH",
"317 507 OFFCURVE",
"361 501 OFFCURVE",
"393 491 CURVE",
"400 511 LINE",
"368 522 OFFCURVE",
"323 530 OFFCURVE",
"287 530 CURVE SMOOTH",
"138 530 OFFCURVE",
"56 445 OFFCURVE",
"56 251 CURVE SMOOTH",
"56 66 OFFCURVE",
"128 -14 OFFCURVE",
"249 -14 CURVE SMOOTH"
);
}
);
width = 452;
}
);
leftKerningGroup = o;
leftMetricsKey = "=o";
rightKerningGroup = c;
unicode = 0063;
},
{
glyphname = d;
lastChange = "2015-07-04 01:34:10 +0000";
layers = (
{
anchors = (
{
name = center;
position = "{404, 629}";
},
{
name = topright;
position = "{568, 520}";
}
);
components = (
{
name = elem.bwlRightSide;
transform = "{-1, 0, 0, -1, 492, 520}";
}
);
layerId = "284DCAF7-AB20-402F-AEDF-E1CEEB9773D4";
leftMetricsKey = "=o";
rightMetricsKey = "=l";
name = Regular;
paths = (
{
closed = 1;
nodes = (
"492 12 LINE",
"492 760 LINE",
"404 750 LINE",
"404 12 LINE"
);
}
);
width = 580;
},
{
anchors = (
{
name = center;
position = "{419, 629}";
},
{
name = topright;
position = "{602, 520}";
}
);
components = (
{
name = elem.bwlRightSide;
transform = "{-1, 0, 0, -1, 550, 520}";
}
);
layerId = "005AA5DB-9C20-42D5-964E-7DFE1013E61C";
leftMetricsKey = "=o";
rightMetricsKey = "=l";
name = Bold;
paths = (
{
closed = 1;
nodes = (
"550 22 LINE",
"550 755 LINE",
"370 745 LINE",
"370 22 LINE"
);
}
);
width = 609;
},
{
anchors = (
{
name = center;
position = "{386, 629}";
},
{
name = topright;
position = "{518, 520}";
}
);
components = (
{
name = elem.bwlRightSide;
transform = "{-1, 0, 0, -1, 458, 520}";
}
);
layerId = "D0F50BF8-B137-4291-8B58-E185C78D1B48";
leftMetricsKey = "=o";
rightMetricsKey = "=l";
name = Light;
paths = (
{
closed = 1;
nodes = (
"438 17 LINE",
"438 760 LINE",
"414 754 LINE",
"414 17 LINE"
);
}
);
width = 538;
}
);
leftKerningGroup = o;
leftMetricsKey = "=o";
rightKerningGroup = l;
rightMetricsKey = "=l";
unicode = 0064;
},
{
glyphname = eth;
lastChange = "2015-07-04 01:34:10 +0000";
layers = (
{
layerId = "D0F50BF8-B137-4291-8B58-E185C78D1B48";
name = Light;
paths = (
{
closed = 1;
nodes = (
"371 -14 OFFCURVE",
"461 72 OFFCURVE",
"461 328 CURVE SMOOTH",
"461 458 OFFCURVE",
"428 643 OFFCURVE",
"211 760 CURVE",
"191 746 LINE",
"384 636 OFFCURVE",
"437 496 OFFCURVE",
"437 326 CURVE SMOOTH",
"437 107 OFFCURVE",
"370 9 OFFCURVE",
"252 9 CURVE SMOOTH",
"146 9 OFFCURVE",
"80 95 OFFCURVE",
"80 244 CURVE SMOOTH",
"80 432 OFFCURVE",
"193 501 OFFCURVE",
"312 501 CURVE SMOOTH",
"350 501 OFFCURVE",
"394 493 OFFCURVE",
"436 472 CURVE",
"426 492 LINE",
"398 513 OFFCURVE",
"357 524 OFFCURVE",
"310 524 CURVE SMOOTH",
"154 524 OFFCURVE",
"56 418 OFFCURVE",
"56 241 CURVE SMOOTH",
"56 80 OFFCURVE",
"128 -14 OFFCURVE",
"252 -14 CURVE SMOOTH"
);
},
{
closed = 1;
nodes = (
"406 682 LINE",
"406 703 LINE",
"227 638 LINE",
"227 617 LINE"
);
}
);
width = 519;
},
{
layerId = "284DCAF7-AB20-402F-AEDF-E1CEEB9773D4";
name = Regular;
paths = (
{
closed = 1;
nodes = (
"400 -14 OFFCURVE",
"524 49 OFFCURVE",
"524 326 CURVE SMOOTH",
"524 500 OFFCURVE",
"475 658 OFFCURVE",
"274 760 CURVE",
"205 718 LINE",
"404 621 OFFCURVE",
"437 492 OFFCURVE",
"436 330 CURVE SMOOTH",
"435 120 OFFCURVE",
"375 56 OFFCURVE",
"287 56 CURVE SMOOTH",
"203 56 OFFCURVE",
"148 119 OFFCURVE",
"148 248 CURVE SMOOTH",
"148 398 OFFCURVE",
"219 464 OFFCURVE",
"320 464 CURVE SMOOTH",
"368 464 OFFCURVE",
"408 456 OFFCURVE",
"444 443 CURVE",
"437 482 LINE",
"417 513 OFFCURVE",
"382 534 OFFCURVE",
"322 534 CURVE SMOOTH",
"159 534 OFFCURVE",
"56 421 OFFCURVE",
"56 244 CURVE SMOOTH",
"56 77 OFFCURVE",
"141 -14 OFFCURVE",
"279 -14 CURVE SMOOTH"
);
},
{
closed = 1;
nodes = (
"514 652 LINE",
"514 717 LINE",
"232 632 LINE",
"232 567 LINE"
);
}
);
width = 594;
},
{
layerId = "005AA5DB-9C20-42D5-964E-7DFE1013E61C";
leftMetricsKey = "=d";
name = Bold;
paths = (
{
closed = 1;
nodes = (
"451 -14 OFFCURVE",
"585 67 OFFCURVE",
"585 295 CURVE SMOOTH",
"585 500 OFFCURVE",
"518 658 OFFCURVE",
"386 760 CURVE",
"208 712 LINE",
"361 579 OFFCURVE",
"401 471 OFFCURVE",
"401 307 CURVE SMOOTH",
"401 183 OFFCURVE",
"378 120 OFFCURVE",
"305 120 CURVE SMOOTH",
"248 120 OFFCURVE",
"214 164 OFFCURVE",
"214 260 CURVE SMOOTH",
"214 348 OFFCURVE",
"240 408 OFFCURVE",
"340 408 CURVE SMOOTH",
"373 408 OFFCURVE",
"418 398 OFFCURVE",
"457 382 CURVE",
"457 499 LINE",
"436 519 OFFCURVE",
"370 538 OFFCURVE",
"330 538 CURVE SMOOTH",
"149 538 OFFCURVE",
"30 440 OFFCURVE",
"30 263 CURVE SMOOTH",
"30 67 OFFCURVE",
"143 -14 OFFCURVE",
"299 -14 CURVE SMOOTH"
);
},
{
closed = 1;
nodes = (
"571 631 LINE",
"571 711 LINE",
"188 640 LINE",
"188 560 LINE"
);
}
);
width = 625;
}
);
leftKerningGroup = eth;
leftMetricsKey = d;
rightKerningGroup = eth;
unicode = 00F0;
},
{
glyphname = e;
lastChange = "2015-06-30 14:30:30 +0000";
layers = (
{
anchors = (
{
name = bottom;
position = "{281, 0}";
},
{
name = ogonek;
position = "{311, 0}";
},
{
name = top;
position = "{266, 520}";
}
);
layerId = "284DCAF7-AB20-402F-AEDF-E1CEEB9773D4";
leftMetricsKey = "=o";
name = Regular;
paths = (
{
closed = 1;
nodes = (
"346 -14 OFFCURVE",
"403 -4 OFFCURVE",
"459 23 CURVE",
"438 85 LINE",
"394 67 OFFCURVE",
"352 58 OFFCURVE",
"292 58 CURVE SMOOTH",
"191 58 OFFCURVE",
"144 109 OFFCURVE",
"144 266 CURVE",
"146 290 LINE",
"149 425 OFFCURVE",
"196 464 OFFCURVE",
"280 464 CURVE SMOOTH",
"360 464 OFFCURVE",
"385 425 OFFCURVE",
"390 304 CURVE",
"128 304 LINE",
"128 238 LINE",
"475 238 LINE",
"475 270 OFFCURVE",
"475 295 OFFCURVE",
"473 328 CURVE SMOOTH",
"465 464 OFFCURVE",
"406 534 OFFCURVE",
"285 534 CURVE SMOOTH",
"145 534 OFFCURVE",
"56 454 OFFCURVE",
"56 250 CURVE SMOOTH",
"56 67 OFFCURVE",
"125 -14 OFFCURVE",
"287 -14 CURVE SMOOTH"
);
}
);
width = 530;
},
{
anchors = (
{
name = bottom;
position = "{304, 0}";
},
{
name = ogonek;
position = "{358, 0}";
},
{
name = top;
position = "{293, 520}";
}
);
layerId = "005AA5DB-9C20-42D5-964E-7DFE1013E61C";
leftMetricsKey = "=o";
name = Bold;
paths = (
{
closed = 1;
nodes = (
"372 -14 OFFCURVE",
"430 -2 OFFCURVE",
"494 29 CURVE",
"473 141 LINE",
"425 128 OFFCURVE",
"391 122 OFFCURVE",
"340 122 CURVE SMOOTH",
"243 122 OFFCURVE",
"203 164 OFFCURVE",
"203 266 CURVE",
"209 290 LINE",
"209 353 OFFCURVE",
"222 402 OFFCURVE",
"280 402 CURVE SMOOTH",
"324 402 OFFCURVE",
"336 360 OFFCURVE",
"339 316 CURVE",
"174 316 LINE",
"174 217 LINE",
"514 217 LINE",
"514 244 OFFCURVE",
"514 265 OFFCURVE",
"512 298 CURVE SMOOTH",
"505 424 OFFCURVE",
"447 538 OFFCURVE",
"286 538 CURVE SMOOTH",
"125 538 OFFCURVE",
"30 424 OFFCURVE",
"30 260 CURVE SMOOTH",
"30 67 OFFCURVE",
"135 -14 OFFCURVE",
"305 -14 CURVE SMOOTH"
);
}
);
width = 553;
},
{
anchors = (
{
name = bottom;
position = "{248, 0}";
},
{
name = ogonek;
position = "{356, 10}";
},
{
name = top;
position = "{247, 520}";
}
);
layerId = "D0F50BF8-B137-4291-8B58-E185C78D1B48";
leftMetricsKey = "=o";
name = Light;
paths = (
{
closed = 1;
nodes = (
"302 -14 OFFCURVE",
"351 -7 OFFCURVE",
"410 21 CURVE",
"403 41 LINE",
"357 19 OFFCURVE",
"304 9 OFFCURVE",
"255 9 CURVE SMOOTH",
"147 9 OFFCURVE",
"78 68 OFFCURVE",
"79 266 CURVE",
"79 280 LINE",
"84 431 OFFCURVE",
"147 507 OFFCURVE",
"254 507 CURVE SMOOTH",
"350 507 OFFCURVE",
"403 457 OFFCURVE",
"401 285 CURVE",
"68 285 LINE",
"68 263 LINE",
"425 263 LINE",
"425 295 OFFCURVE",
"425 310 OFFCURVE",
"424 343 CURVE SMOOTH",
"415 469 OFFCURVE",
"362 530 OFFCURVE",
"255 530 CURVE SMOOTH",
"138 530 OFFCURVE",
"56 449 OFFCURVE",
"56 255 CURVE SMOOTH",
"56 67 OFFCURVE",
"120 -14 OFFCURVE",
"253 -14 CURVE SMOOTH"
);
}
);
width = 489;
}
);
leftKerningGroup = o;
leftMetricsKey = "=o";
rightKerningGroup = e;
unicode = 0065;
},
{
glyphname = eogonek;
lastChange = "2015-06-30 14:30:14 +0000";
layers = (
{
components = (
{
name = e;
},
{
name = elem.ogonekunder;
transform = "{1, 0, 0, 1, -8, 0}";
}
);
layerId = "D0F50BF8-B137-4291-8B58-E185C78D1B48";
name = Light;
paths = (
{
closed = 1;
nodes = (
"303 -141 LINE",
"303 -82 OFFCURVE",
"338 -16 OFFCURVE",
"410 21 CURVE",
"381 20 LINE",
"327 -6 OFFCURVE",
"279 -70 OFFCURVE",
"279 -144 CURVE"
);
}
);
width = 481;
},
{
components = (
{
name = e;
},
{
name = elem.ogonekunder;
transform = "{1, 0, 0, 1, 245, 0}";
}
);
layerId = "284DCAF7-AB20-402F-AEDF-E1CEEB9773D4";
name = Regular;
paths = (
{
closed = 1;
nodes = (
"369 -106 LINE",
"369 -53 OFFCURVE",
"401 -3 OFFCURVE",
"459 23 CURVE",
"379 2 LINE",
"329 -32 OFFCURVE",
"287 -76 OFFCURVE",
"287 -135 CURVE"
);
}
);
width = 518;
},
{
components = (
{
name = e;
},
{
name = elem.ogonekunder;
transform = "{1, 0, 0, 1, 242, 0}";
}
);
layerId = "005AA5DB-9C20-42D5-964E-7DFE1013E61C";
name = Bold;
paths = (
{
closed = 1;
nodes = (
"370 -77 LINE",
"370 -33 OFFCURVE",
"422 -3 OFFCURVE",
"507 37 CURVE",
"397 9 LINE",
"319 -1 OFFCURVE",
"256 -60 OFFCURVE",
"256 -119 CURVE"
);
}
);
width = 557;
}
);
leftKerningGroup = o;
rightKerningGroup = e;
unicode = 0119;
},
{
glyphname = f;
lastChange = "2015-06-30 14:30:14 +0000";
layers = (
{
layerId = "284DCAF7-AB20-402F-AEDF-E1CEEB9773D4";
name = Regular;
paths = (
{
closed = 1;
nodes = (
"213 0 LINE",
"213 574 LINE SMOOTH",
"213 666 OFFCURVE",
"250 694 OFFCURVE",
"312 694 CURVE SMOOTH",
"330 694 OFFCURVE",
"347 691 OFFCURVE",
"363 684 CURVE",
"386 734 LINE",
"367 752 OFFCURVE",
"331 764 OFFCURVE",
"296 764 CURVE SMOOTH",
"207 764 OFFCURVE",
"131 700 OFFCURVE",
"126 598 CURVE SMOOTH",
"125 568 OFFCURVE",
"125 547 OFFCURVE",
"125 529 CURVE SMOOTH",
"125 0 LINE"
);
},
{
closed = 1;
nodes = (
"331 454 LINE",
"340 520 LINE",
"49 520 LINE",
"49 454 LINE"
);
}
);
width = 379;
},
{
layerId = "005AA5DB-9C20-42D5-964E-7DFE1013E61C";
name = Bold;
paths = (
{
closed = 1;
nodes = (
"284 0 LINE",
"284 548 LINE SMOOTH",
"284 601 OFFCURVE",
"316 628 OFFCURVE",
"360 628 CURVE SMOOTH",
"378 628 OFFCURVE",
"391 627 OFFCURVE",
"409 624 CURVE",
"427 737 LINE",
"396 754 OFFCURVE",
"351 764 OFFCURVE",
"309 764 CURVE SMOOTH",
"195 764 OFFCURVE",
"115 700 OFFCURVE",
"106 596 CURVE SMOOTH",
"104 572 OFFCURVE",
"104 561 OFFCURVE",
"104 537 CURVE SMOOTH",
"104 0 LINE"
);
},
{
closed = 1;
nodes = (
"381 394 LINE",
"399 524 LINE",
"28 524 LINE",
"28 394 LINE"
);
}
);
width = 414;
},
{
layerId = "D0F50BF8-B137-4291-8B58-E185C78D1B48";
name = Light;
paths = (
{
closed = 1;
nodes = (
"160 0 LINE",
"160 604 LINE SMOOTH",
"160 688 OFFCURVE",
"196 741 OFFCURVE",
"268 741 CURVE SMOOTH",
"289 741 OFFCURVE",
"305 737 OFFCURVE",
"319 729 CURVE",
"330 745 LINE",
"315 757 OFFCURVE",
"294 764 OFFCURVE",
"269 764 CURVE SMOOTH",
"186 764 OFFCURVE",
"140 701 OFFCURVE",
"137 616 CURVE SMOOTH",
"136 583 OFFCURVE",
"136 562 OFFCURVE",
"136 537 CURVE SMOOTH",
"136 0 LINE"
);
},
{
closed = 1;
nodes = (
"284 493 LINE",
"289 515 LINE",
"51 515 LINE",
"51 493 LINE"
);
}
);
width = 328;
}
);
leftKerningGroup = f;
rightKerningGroup = f;
unicode = 0066;
},
{
glyphname = g;
lastChange = "2015-07-04 01:23:52 +0000";
layers = (
{
anchors = (
{
name = bottom;
position = "{282, 0}";
},
{
name = top;
position = "{282, 520}";
}
);
layerId = "005AA5DB-9C20-42D5-964E-7DFE1013E61C";
name = Bold;
paths = (
{
closed = 1;
nodes = (
"418 -220 OFFCURVE",
"521 -152 OFFCURVE",
"521 -30 CURVE SMOOTH",
"521 13 OFFCURVE",
"505 52 OFFCURVE",
"459 100 CURVE SMOOTH",
"432 129 OFFCURVE",
"423 143 OFFCURVE",
"423 165 CURVE SMOOTH",
"423 186 OFFCURVE",
"428 196 OFFCURVE",
"453 222 CURVE",
"434 222 LINE",
"323 198 OFFCURVE",
"291 157 OFFCURVE",
"291 121 CURVE SMOOTH",
"291 104 OFFCURVE",
"294 96 OFFCURVE",
"302 81 CURVE",
"228 90 LINE",
"314 75 OFFCURVE",
"340 7 OFFCURVE",
"340 -22 CURVE SMOOTH",
"340 -76 OFFCURVE",
"309 -102 OFFCURVE",
"262 -102 CURVE SMOOTH",
"217 -102 OFFCURVE",
"186 -84 OFFCURVE",
"186 -31 CURVE SMOOTH",
"186 12 OFFCURVE",
"213 49 OFFCURVE",
"270 49 CURVE SMOOTH",
"320 49 OFFCURVE",
"351 35 OFFCURVE",
"366 20 CURVE",
"352 107 LINE",
"324 118 OFFCURVE",
"273 130 OFFCURVE",
"211 130 CURVE SMOOTH",
"101 130 OFFCURVE",
"-1 68 OFFCURVE",
"-1 -46 CURVE SMOOTH",
"-1 -169 OFFCURVE",
"114 -220 OFFCURVE",
"252 -220 CURVE SMOOTH"
);
},
{
closed = 1;
nodes = (
"406 152 OFFCURVE",
"505 237 OFFCURVE",
"505 328 CURVE SMOOTH",
"505 385 OFFCURVE",
"468 446 OFFCURVE",
"425 463 CURVE",
"406 515 OFFCURVE",
"352 538 OFFCURVE",
"275 538 CURVE SMOOTH",
"145 538 OFFCURVE",
"29 467 OFFCURVE",
"29 337 CURVE SMOOTH",
"29 215 OFFCURVE",
"132 152 OFFCURVE",
"261 152 CURVE SMOOTH"
);
},
{
closed = 1;
nodes = (
"219 261 OFFCURVE",
"190 289 OFFCURVE",
"190 343 CURVE SMOOTH",
"190 398 OFFCURVE",
"221 428 OFFCURVE",
"269 428 CURVE SMOOTH",
"316 428 OFFCURVE",
"344 398 OFFCURVE",
"344 345 CURVE SMOOTH",
"344 289 OFFCURVE",
"315 261 OFFCURVE",
"267 261 CURVE SMOOTH"
);
},
{
closed = 1;
nodes = (
"539 394 LINE",
"557 524 LINE",
"351 524 LINE",
"430 394 LINE"
);
}
);
width = 562;
},
{
anchors = (
{
name = bottom;
position = "{260, 0}";
},
{
name = top;
position = "{260, 520}";
}
);
layerId = "D0F50BF8-B137-4291-8B58-E185C78D1B48";
name = Light;
paths = (
{
closed = 1;
nodes = (
"370 -220 OFFCURVE",
"451 -142 OFFCURVE",
"451 -53 CURVE SMOOTH",
"451 21 OFFCURVE",
"400 64 OFFCURVE",
"368 89 CURVE SMOOTH",
"344 107 OFFCURVE",
"328 128 OFFCURVE",
"328 154 CURVE SMOOTH",
"328 188 OFFCURVE",
"343 208 OFFCURVE",
"369 235 CURVE",
"368 252 LINE",
"320 212 OFFCURVE",
"306 184 OFFCURVE",
"306 152 CURVE SMOOTH",
"306 120 OFFCURVE",
"325 95 OFFCURVE",
"356 79 CURVE",
"328 85 LINE",
"353 73 OFFCURVE",
"427 30 OFFCURVE",
"427 -54 CURVE SMOOTH",
"427 -132 OFFCURVE",
"361 -197 OFFCURVE",
"235 -197 CURVE SMOOTH",
"143 -197 OFFCURVE",
"67 -154 OFFCURVE",
"67 -59 CURVE SMOOTH",
"67 25 OFFCURVE",
"142 82 OFFCURVE",
"267 82 CURVE SMOOTH",
"302 82 OFFCURVE",
"342 76 OFFCURVE",
"375 63 CURVE",
"364 80 LINE",
"342 94 OFFCURVE",
"296 104 OFFCURVE",
"266 104 CURVE SMOOTH",
"142 104 OFFCURVE",
"43 47 OFFCURVE",
"43 -61 CURVE SMOOTH",
"43 -166 OFFCURVE",
"128 -220 OFFCURVE",
"232 -220 CURVE SMOOTH"
);
},
{
closed = 1;
nodes = (
"357 196 OFFCURVE",
"432 272 OFFCURVE",
"432 363 CURVE SMOOTH",
"432 422 OFFCURVE",
"405 468 OFFCURVE",
"365 499 CURVE",
"340 519 OFFCURVE",
"303 530 OFFCURVE",
"260 530 CURVE SMOOTH",
"155 530 OFFCURVE",
"75 458 OFFCURVE",
"75 359 CURVE SMOOTH",
"75 267 OFFCURVE",
"149 196 OFFCURVE",
"252 196 CURVE SMOOTH"
);
},
{
closed = 1;
nodes = (
"168 219 OFFCURVE",
"99 275 OFFCURVE",
"99 359 CURVE SMOOTH",
"99 448 OFFCURVE",
"172 507 OFFCURVE",
"258 507 CURVE SMOOTH",
"349 507 OFFCURVE",
"408 446 OFFCURVE",
"408 363 CURVE SMOOTH",
"408 270 OFFCURVE",
"338 219 OFFCURVE",
"255 219 CURVE SMOOTH"
);
},
{
closed = 1;
nodes = (
"454 494 LINE",
"459 516 LINE",
"328 516 LINE",
"357 494 LINE"
);
}
);
width = 520;
},
{
anchors = (
{
name = bottom;
position = "{273, 0}";
},
{
name = top;
position = "{273, 520}";
}
);
layerId = "284DCAF7-AB20-402F-AEDF-E1CEEB9773D4";
name = Regular;
paths = (
{
closed = 1;
nodes = (
"381 -220 OFFCURVE",
"481 -151 OFFCURVE",
"481 -40 CURVE SMOOTH",
"481 19 OFFCURVE",
"454 65 OFFCURVE",
"394 111 CURVE SMOOTH",
"369 130 OFFCURVE",
"358 150 OFFCURVE",
"358 171 CURVE SMOOTH",
"358 189 OFFCURVE",
"366 208 OFFCURVE",
"384 228 CURVE",
"316 214 LINE",
"291 190 OFFCURVE",
"281 166 OFFCURVE",
"281 145 CURVE SMOOTH",
"281 122 OFFCURVE",
"291 104 OFFCURVE",
"307 91 CURVE",
"256 85 LINE",
"351 71 OFFCURVE",
"391 27 OFFCURVE",
"391 -41 CURVE SMOOTH",
"391 -102 OFFCURVE",
"346 -150 OFFCURVE",
"252 -150 CURVE SMOOTH",
"167 -150 OFFCURVE",
"117 -111 OFFCURVE",
"117 -45 CURVE SMOOTH",
"117 24 OFFCURVE",
"175 56 OFFCURVE",
"269 56 CURVE SMOOTH",
"306 56 OFFCURVE",
"352 50 OFFCURVE",
"387 31 CURVE",
"338 80 LINE",
"306 106 OFFCURVE",
"278 114 OFFCURVE",
"231 114 CURVE SMOOTH",
"135 114 OFFCURVE",
"31 65 OFFCURVE",
"31 -55 CURVE SMOOTH",
"31 -166 OFFCURVE",
"116 -220 OFFCURVE",
"242 -220 CURVE SMOOTH"
);
},
{
closed = 1;
nodes = (
"367 186 OFFCURVE",
"454 259 OFFCURVE",
"454 360 CURVE SMOOTH",
"454 412 OFFCURVE",
"438 449 OFFCURVE",
"408 480 CURVE",
"376 513 OFFCURVE",
"314 532 OFFCURVE",
"262 532 CURVE SMOOTH",
"151 532 OFFCURVE",
"58 467 OFFCURVE",
"58 358 CURVE SMOOTH",
"58 248 OFFCURVE",
"145 186 OFFCURVE",
"256 186 CURVE SMOOTH"
);
},
{
closed = 1;
nodes = (
"202 252 OFFCURVE",
"144 283 OFFCURVE",
"144 358 CURVE SMOOTH",
"144 435 OFFCURVE",
"204 466 OFFCURVE",
"259 466 CURVE SMOOTH",
"314 466 OFFCURVE",
"368 435 OFFCURVE",
"368 360 CURVE SMOOTH",
"368 283 OFFCURVE",
"312 252 OFFCURVE",
"257 252 CURVE SMOOTH"
);
},
{
closed = 1;
nodes = (
"494 454 LINE",
"503 520 LINE",
"335 520 LINE",
"394 454 LINE"
);
}
);
width = 545;
},
{
anchors = (
{
name = bottom;
position = "{282, 0}";
},
{
name = top;
position = "{282, 520}";
}
);
associatedMasterId = "005AA5DB-9C20-42D5-964E-7DFE1013E61C";
layerId = "5BE794DF-2F50-4B01-9959-4D84DA7E530F";
name = "Bold Jun 28 15, 01:50";
paths = (
{
closed = 1;
nodes = (
"418 -220 OFFCURVE",
"521 -152 OFFCURVE",
"521 -30 CURVE SMOOTH",
"521 13 OFFCURVE",
"505 52 OFFCURVE",
"459 100 CURVE SMOOTH",
"432 129 OFFCURVE",
"423 143 OFFCURVE",
"423 165 CURVE SMOOTH",
"423 186 OFFCURVE",
"432 196 OFFCURVE",
"457 222 CURVE",
"434 222 LINE",
"323 198 OFFCURVE",
"291 157 OFFCURVE",
"291 121 CURVE SMOOTH",
"291 104 OFFCURVE",
"294 96 OFFCURVE",
"302 81 CURVE",
"228 90 LINE",
"314 75 OFFCURVE",
"340 7 OFFCURVE",
"340 -22 CURVE SMOOTH",
"340 -76 OFFCURVE",
"309 -102 OFFCURVE",
"262 -102 CURVE SMOOTH",
"217 -102 OFFCURVE",
"186 -82 OFFCURVE",
"186 -39 CURVE SMOOTH",
"186 4 OFFCURVE",
"213 29 OFFCURVE",
"270 29 CURVE SMOOTH",
"320 29 OFFCURVE",
"351 15 OFFCURVE",
"366 0 CURVE",
"352 84 LINE",
"324 96 OFFCURVE",
"283 110 OFFCURVE",
"191 110 CURVE SMOOTH",
"101 110 OFFCURVE",
"-1 57 OFFCURVE",
"-1 -52 CURVE SMOOTH",
"-1 -165 OFFCURVE",
"105 -220 OFFCURVE",
"252 -220 CURVE SMOOTH"
);
},
{
closed = 1;
nodes = (
"406 152 OFFCURVE",
"505 237 OFFCURVE",
"505 328 CURVE SMOOTH",
"505 385 OFFCURVE",
"468 446 OFFCURVE",
"425 463 CURVE",
"406 515 OFFCURVE",
"352 538 OFFCURVE",
"275 538 CURVE SMOOTH",
"145 538 OFFCURVE",
"29 467 OFFCURVE",
"29 337 CURVE SMOOTH",
"29 215 OFFCURVE",
"132 152 OFFCURVE",
"261 152 CURVE SMOOTH"
);
},
{
closed = 1;
nodes = (
"219 261 OFFCURVE",
"190 289 OFFCURVE",
"190 343 CURVE SMOOTH",
"190 398 OFFCURVE",
"221 428 OFFCURVE",
"269 428 CURVE SMOOTH",
"316 428 OFFCURVE",
"344 398 OFFCURVE",
"344 345 CURVE SMOOTH",
"344 289 OFFCURVE",
"315 261 OFFCURVE",
"267 261 CURVE SMOOTH"
);
},
{
closed = 1;
nodes = (
"539 394 LINE",
"557 524 LINE",
"351 524 LINE",
"430 394 LINE"
);
}
);
width = 562;
}
);
leftKerningGroup = g;
rightKerningGroup = g;
unicode = 0067;
},
{
glyphname = h;
lastChange = "2015-07-04 02:16:12 +0000";
layers = (
{
anchors = (
{
name = center;
position = "{176, 629}";
}
);
layerId = "284DCAF7-AB20-402F-AEDF-E1CEEB9773D4";
leftMetricsKey = "=l";
name = Regular;
paths = (
{
closed = 1;
nodes = (
"507 0 LINE",
"507 310 LINE SMOOTH",
"507 344 OFFCURVE",
"507 368 OFFCURVE",
"505 391 CURVE SMOOTH",
"495 500 OFFCURVE",
"432 534 OFFCURVE",
"335 534 CURVE SMOOTH",
"259 534 OFFCURVE",
"188 501 OFFCURVE",
"141 441 CURVE",
"167 401 LINE",
"204 446 OFFCURVE",
"248 464 OFFCURVE",
"301 464 CURVE SMOOTH",
"383 464 OFFCURVE",
"419 426 OFFCURVE",
"419 320 CURVE SMOOTH",
"419 0 LINE"
);
},
{
closed = 1;
nodes = (
"176 0 LINE",
"176 760 LINE",
"88 750 LINE",
"88 0 LINE"
);
}
);
width = 581;
},
{
anchors = (
{
name = center;
position = "{170, 629}";
}
);
layerId = "005AA5DB-9C20-42D5-964E-7DFE1013E61C";
leftMetricsKey = "=l";
name = Bold;
paths = (
{
closed = 1;
nodes = (
"580 0 LINE",
"580 284 LINE SMOOTH",
"580 318 OFFCURVE",
"580 352 OFFCURVE",
"578 375 CURVE SMOOTH",
"569 476 OFFCURVE",
"511 538 OFFCURVE",
"393 538 CURVE SMOOTH",
"307 538 OFFCURVE",
"216 485 OFFCURVE",
"146 415 CURVE",
"162 287 LINE",
"203 372 OFFCURVE",
"255 402 OFFCURVE",
"313 402 CURVE SMOOTH",
"376 402 OFFCURVE",
"400 371 OFFCURVE",
"400 294 CURVE SMOOTH",
"400 0 LINE"
);
},
{
closed = 1;
nodes = (
"239 0 LINE",
"239 755 LINE",
"59 745 LINE",
"59 0 LINE"
);
}
);
width = 630;
},
{
anchors = (
{
name = center;
position = "{152, 629}";
}
);
layerId = "D0F50BF8-B137-4291-8B58-E185C78D1B48";
leftMetricsKey = "=l";
name = Light;
paths = (
{
closed = 1;
nodes = (
"455 0 LINE",
"455 321 LINE SMOOTH",
"455 355 OFFCURVE",
"455 374 OFFCURVE",
"453 397 CURVE SMOOTH",
"444 490 OFFCURVE",
"385 530 OFFCURVE",
"286 530 CURVE SMOOTH",
"226 530 OFFCURVE",
"166 512 OFFCURVE",
"113 484 CURVE",
"113 460 LINE",
"178 492 OFFCURVE",
"228 507 OFFCURVE",
"279 507 CURVE SMOOTH",
"386 507 OFFCURVE",
"431 466 OFFCURVE",
"431 365 CURVE SMOOTH",
"431 0 LINE"
);
},
{
closed = 1;
nodes = (
"124 0 LINE",
"124 760 LINE",
"100 754 LINE",
"100 0 LINE"
);
}
);
width = 542;
}
);
leftKerningGroup = h;
leftMetricsKey = "=l";
rightKerningGroup = n;
rightMetricsKey = n;
unicode = 0068;
},
{
glyphname = idotless;
lastChange = "2015-07-04 01:34:10 +0000";
layers = (
{
anchors = (
{
name = ogonek;
position = "{202, 10}";
},
{
name = top;
position = "{112, 520}";
}
);
layerId = "D0F50BF8-B137-4291-8B58-E185C78D1B48";
leftMetricsKey = "=l";
rightMetricsKey = "=l";
name = Light;
paths = (
{
closed = 1;
nodes = (
"124 0 LINE",
"124 519 LINE",
"100 513 LINE",
"100 0 LINE"
);
}
);
width = 224;
},
{
anchors = (
{
name = ogonek;
position = "{244, 10}";
},
{
name = top;
position = "{132, 520}";
}
);
layerId = "284DCAF7-AB20-402F-AEDF-E1CEEB9773D4";
leftMetricsKey = "=l";
rightMetricsKey = "=l";
name = Regular;
paths = (
{
closed = 1;
nodes = (
"176 0 LINE",
"176 530 LINE",
"88 520 LINE",
"88 0 LINE"
);
}
);
width = 264;
},
{
anchors = (
{
name = ogonek;
position = "{197, 0}";
},
{
name = top;
position = "{149, 520}";
}
);
layerId = "005AA5DB-9C20-42D5-964E-7DFE1013E61C";
leftMetricsKey = "=l";
rightMetricsKey = "=l";
name = Bold;
paths = (
{
closed = 1;
nodes = (
"239 0 LINE",
"239 529 LINE",
"59 519 LINE",
"59 0 LINE"
);
}
);
width = 298;
}
);
leftKerningGroup = i;
leftMetricsKey = "=l";
rightKerningGroup = i;
rightMetricsKey = "=l";
unicode = 0131;
},
{
glyphname = iogonek;
lastChange = "2015-06-30 14:30:14 +0000";
layers = (
{
components = (
{
name = idotless;
},
{
name = elem.ogonekunder;
transform = "{1, 0, 0, 1, -276, 0}";
},
{
name = elem.dotaccent_another;
transform = "{1, 0, 0, 1, -38, 0}";
}
);
layerId = "D0F50BF8-B137-4291-8B58-E185C78D1B48";
name = Light;
paths = (
{
closed = 1;
nodes = (
"35 -141 LINE",
"35 -102 OFFCURVE",
"52 -57 OFFCURVE",
"124 0 CURVE",
"100 5 LINE",
"46 -41 OFFCURVE",
"11 -90 OFFCURVE",
"11 -144 CURVE"
);
}
);
width = 224;
},
{
components = (
{
name = idotless;
},
{
name = elem.ogonekunder;
transform = "{1, 0, 0, 1, -25, 0}";
},
{
name = elem.dotaccent_another;
transform = "{1, 0, 0, 1, -18, 0}";
}
);
layerId = "284DCAF7-AB20-402F-AEDF-E1CEEB9773D4";
name = Regular;
paths = (
{
closed = 1;
nodes = (
"99 -106 LINE",
"99 -53 OFFCURVE",
"129 -17 OFFCURVE",
"176 0 CURVE",
"88 0 LINE",
"40 -49 OFFCURVE",
"17 -94 OFFCURVE",
"17 -135 CURVE"
);
}
);
width = 280;
},
{
components = (
{
name = idotless;
},
{
name = elem.ogonekunder;
transform = "{1, 0, 0, 1, -5, 0}";
},
{
name = elem.dotaccent_another;
transform = "{1, 0, 0, 1, 5, 0}";
}
);
layerId = "005AA5DB-9C20-42D5-964E-7DFE1013E61C";
name = Bold;
paths = (
{
closed = 1;
nodes = (
"123 -77 LINE",
"123 -31 OFFCURVE",
"167 0 OFFCURVE",
"247 0 CURVE",
"66 0 LINE",
"25 -47 OFFCURVE",
"9 -79 OFFCURVE",
"9 -119 CURVE"
);
}
);
width = 324;
}
);
leftKerningGroup = i;
rightKerningGroup = i;
unicode = 012F;
},
{
glyphname = jdotless;
lastChange = "2015-07-01 16:06:28 +0000";
layers = (
{
anchors = (
{
name = top;
position = "{135, 520}";
}
);
layerId = "D0F50BF8-B137-4291-8B58-E185C78D1B48";
rightMetricsKey = "=l";
name = Light;
paths = (
{
closed = 1;
nodes = (
"120 -190 OFFCURVE",
"141 -143 OFFCURVE",
"145 -73 CURVE SMOOTH",
"147 -41 OFFCURVE",
"147 3 OFFCURVE",
"147 60 CURVE SMOOTH",
"147 528 LINE",
"123 522 LINE",
"123 -20 LINE SMOOTH",
"123 -127 OFFCURVE",
"102 -179 OFFCURVE",
"27 -197 CURVE",
"36 -220 LINE"
);
}
);
width = 247;
},
{
anchors = (
{
name = top;
position = "{142, 520}";
}
);
layerId = "284DCAF7-AB20-402F-AEDF-E1CEEB9773D4";
rightMetricsKey = "=l";
name = Regular;
paths = (
{
closed = 1;
nodes = (
"138 -197 OFFCURVE",
"181 -134 OFFCURVE",
"186 -43 CURVE SMOOTH",
"187 -21 OFFCURVE",
"187 13 OFFCURVE",
"187 40 CURVE SMOOTH",
"187 530 LINE",
"99 520 LINE",
"99 10 LINE SMOOTH",
"99 -92 OFFCURVE",
"81 -134 OFFCURVE",
"6 -152 CURVE",
"42 -220 LINE"
);
}
);
width = 275;
},
{
anchors = (
{
name = top;
position = "{163, 520}";
}
);
layerId = "005AA5DB-9C20-42D5-964E-7DFE1013E61C";
rightMetricsKey = "=l";
name = Bold;
paths = (
{
closed = 1;
nodes = (
"182 -225 OFFCURVE",
"246 -146 OFFCURVE",
"251 -33 CURVE SMOOTH",
"253 9 OFFCURVE",
"253 43 OFFCURVE",
"253 90 CURVE SMOOTH",
"253 529 LINE",
"73 519 LINE",
"73 40 LINE SMOOTH",
"73 -58 OFFCURVE",
"47 -90 OFFCURVE",
"-38 -92 CURVE",
"-19 -220 LINE"
);
}
);
width = 312;
}
);
leftKerningGroup = j;
rightKerningGroup = j;
rightMetricsKey = "=l";
unicode = 0237;
},
{
glyphname = k;
lastChange = "2015-07-04 01:34:10 +0000";
layers = (
{
anchors = (
{
name = bottom;
position = "{269, 0}";
}
);
layerId = "284DCAF7-AB20-402F-AEDF-E1CEEB9773D4";
leftMetricsKey = "=l";
name = Regular;
paths = (
{
closed = 1;
nodes = (
"525 0 LINE",
"256 308 LINE",
"258 257 LINE",
"515 520 LINE",
"423 534 LINE",
"186 268 LINE",
"406 0 LINE"
);
},
{
closed = 1;
nodes = (
"176 0 LINE",
"176 760 LINE",
"88 750 LINE",
"88 0 LINE"
);
}
);
width = 545;
},
{
anchors = (
{
name = bottom;
position = "{306, 0}";
}
);
layerId = "005AA5DB-9C20-42D5-964E-7DFE1013E61C";
leftMetricsKey = "=l";
name = Bold;
paths = (
{
closed = 1;
nodes = (
"620 0 LINE",
"383 315 LINE",
"382 264 LINE",
"611 520 LINE",
"418 534 LINE",
"221 265 LINE",
"393 0 LINE"
);
},
{
closed = 1;
nodes = (
"239 0 LINE",
"239 755 LINE",
"59 745 LINE",
"59 0 LINE"
);
}
);
width = 626;
},
{
anchors = (
{
name = bottom;
position = "{249, 0}";
}
);
layerId = "D0F50BF8-B137-4291-8B58-E185C78D1B48";
leftMetricsKey = "=l";
name = Light;
paths = (
{
closed = 1;
nodes = (
"463 0 LINE",
"175 282 LINE",
"177 268 LINE",
"448 516 LINE",
"415 520 LINE",
"150 273 LINE",
"426 0 LINE"
);
},
{
closed = 1;
nodes = (
"124 0 LINE",
"124 760 LINE",
"100 754 LINE",
"100 0 LINE"
);
}
);
width = 507;
}
);
leftKerningGroup = h;
leftMetricsKey = "=l";
rightKerningGroup = k;
unicode = 006B;
},
{
glyphname = l;
lastChange = "2015-06-30 14:30:14 +0000";
layers = (
{
anchors = (
{
name = bottom;
position = "{132, 0}";
},
{
name = center;
position = "{132, 372}";
},
{
name = top;
position = "{132, 740}";
},
{
name = topright;
position = "{252, 520}";
}
);
layerId = "284DCAF7-AB20-402F-AEDF-E1CEEB9773D4";
name = Regular;
paths = (
{
closed = 1;
nodes = (
"176 0 LINE",
"176 760 LINE",
"88 750 LINE",
"88 0 LINE"
);
}
);
width = 264;
},
{
anchors = (
{
name = bottom;
position = "{149, 0}";
},
{
name = center;
position = "{149, 372}";
},
{
name = top;
position = "{149, 740}";
},
{
name = topright;
position = "{291, 520}";
}
);
layerId = "005AA5DB-9C20-42D5-964E-7DFE1013E61C";
name = Bold;
paths = (
{
closed = 1;
nodes = (
"239 0 LINE",
"239 755 LINE",
"59 745 LINE",
"59 0 LINE"
);
}
);
width = 298;
},
{
anchors = (
{
name = bottom;
position = "{112, 0}";
},
{
name = center;
position = "{112, 372}";
},
{
name = top;
position = "{112, 740}";
},
{
name = topright;
position = "{214, 458}";
}
);
layerId = "D0F50BF8-B137-4291-8B58-E185C78D1B48";
name = Light;
paths = (
{
closed = 1;
nodes = (
"124 0 LINE",
"124 760 LINE",
"100 754 LINE",
"100 0 LINE"
);
}
);
width = 224;
}
);
leftKerningGroup = h;
rightKerningGroup = l;
unicode = 006C;
},
{
glyphname = m;
lastChange = "2015-07-04 02:16:20 +0000";
layers = (
{
layerId = "284DCAF7-AB20-402F-AEDF-E1CEEB9773D4";
leftMetricsKey = "=l";
rightMetricsKey = "=h";
name = Regular;
paths = (
{
closed = 1;
nodes = (
"818 0 LINE",
"818 310 LINE SMOOTH",
"818 344 OFFCURVE",
"818 368 OFFCURVE",
"816 391 CURVE SMOOTH",
"806 500 OFFCURVE",
"743 534 OFFCURVE",
"646 534 CURVE SMOOTH",
"570 534 OFFCURVE",
"502 501 OFFCURVE",
"452 441 CURVE",
"478 398 LINE",
"515 443 OFFCURVE",
"559 464 OFFCURVE",
"612 464 CURVE SMOOTH",
"694 464 OFFCURVE",
"730 426 OFFCURVE",
"730 320 CURVE SMOOTH",
"730 0 LINE"
);
},
{
closed = 1;
nodes = (
"176 0 LINE",
"176 530 LINE",
"88 520 LINE",
"88 0 LINE"
);
},
{
closed = 1;
nodes = (
"497 0 LINE",
"497 310 LINE SMOOTH",
"497 344 OFFCURVE",
"497 368 OFFCURVE",
"495 391 CURVE SMOOTH",
"485 500 OFFCURVE",
"422 534 OFFCURVE",
"325 534 CURVE SMOOTH",
"249 534 OFFCURVE",
"181 501 OFFCURVE",
"131 441 CURVE",
"157 401 LINE",
"194 446 OFFCURVE",
"238 464 OFFCURVE",
"291 464 CURVE SMOOTH",
"373 464 OFFCURVE",
"409 426 OFFCURVE",
"409 320 CURVE SMOOTH",
"409 0 LINE"
);
}
);
width = 892;
},
{
layerId = "005AA5DB-9C20-42D5-964E-7DFE1013E61C";
leftMetricsKey = "=h";
rightMetricsKey = "=n";
name = Bold;
paths = (
{
closed = 1;
nodes = (
"921 0 LINE",
"921 284 LINE SMOOTH",
"921 318 OFFCURVE",
"921 352 OFFCURVE",
"919 375 CURVE SMOOTH",
"910 476 OFFCURVE",
"852 538 OFFCURVE",
"734 538 CURVE SMOOTH",
"648 538 OFFCURVE",
"557 485 OFFCURVE",
"487 395 CURVE",
"513 287 LINE",
"544 362 OFFCURVE",
"606 402 OFFCURVE",
"654 402 CURVE SMOOTH",
"717 402 OFFCURVE",
"741 371 OFFCURVE",
"741 294 CURVE SMOOTH",
"741 0 LINE"
);
},
{
closed = 1;
nodes = (
"239 0 LINE",
"239 529 LINE",
"59 519 LINE",
"59 0 LINE"
);
},
{
closed = 1;
nodes = (
"580 0 LINE",
"580 284 LINE SMOOTH",
"580 318 OFFCURVE",
"580 352 OFFCURVE",
"578 375 CURVE SMOOTH",
"569 476 OFFCURVE",
"511 538 OFFCURVE",
"393 538 CURVE SMOOTH",
"307 538 OFFCURVE",
"216 485 OFFCURVE",
"146 395 CURVE",
"162 287 LINE",
"203 372 OFFCURVE",
"255 402 OFFCURVE",
"313 402 CURVE SMOOTH",
"376 402 OFFCURVE",
"400 371 OFFCURVE",
"400 294 CURVE SMOOTH",
"400 0 LINE"
);
}
);
width = 971;
},
{
layerId = "D0F50BF8-B137-4291-8B58-E185C78D1B48";
leftMetricsKey = "=n";
rightMetricsKey = "=h";
name = Light;
paths = (
{
closed = 1;
nodes = (
"726 0 LINE",
"726 321 LINE SMOOTH",
"726 355 OFFCURVE",
"726 374 OFFCURVE",
"724 397 CURVE SMOOTH",
"715 490 OFFCURVE",
"666 530 OFFCURVE",
"587 530 CURVE SMOOTH",
"513 530 OFFCURVE",
"463 518 OFFCURVE",
"389 478 CURVE",
"393 455 LINE",
"473 498 OFFCURVE",
"515 507 OFFCURVE",
"580 507 CURVE SMOOTH",
"657 507 OFFCURVE",
"702 466 OFFCURVE",
"702 365 CURVE SMOOTH",
"702 0 LINE"
);
},
{
closed = 1;
nodes = (
"124 0 LINE",
"124 519 LINE",
"100 513 LINE",
"100 0 LINE"
);
},
{
closed = 1;
nodes = (
"425 0 LINE",
"425 321 LINE SMOOTH",
"425 355 OFFCURVE",
"425 374 OFFCURVE",
"423 397 CURVE SMOOTH",
"414 490 OFFCURVE",
"365 530 OFFCURVE",
"276 530 CURVE SMOOTH",
"216 530 OFFCURVE",
"166 518 OFFCURVE",
"113 497 CURVE",
"113 478 LINE",
"176 498 OFFCURVE",
"218 507 OFFCURVE",
"269 507 CURVE SMOOTH",
"356 507 OFFCURVE",
"401 466 OFFCURVE",
"401 365 CURVE SMOOTH",
"401 0 LINE"
);
}
);
width = 813;
}
);
leftKerningGroup = n;
leftMetricsKey = h;
rightKerningGroup = n;
rightMetricsKey = "=n";
unicode = 006D;
},
{
glyphname = n;
lastChange = "2015-07-04 02:16:06 +0000";
layers = (
{
anchors = (
{
name = bottom;
position = "{294, 0}";
},
{
name = top;
position = "{294, 520}";
}
);
layerId = "284DCAF7-AB20-402F-AEDF-E1CEEB9773D4";
leftMetricsKey = "=l";
name = Regular;
paths = (
{
closed = 1;
nodes = (
"507 0 LINE",
"507 310 LINE SMOOTH",
"507 344 OFFCURVE",
"507 368 OFFCURVE",
"505 391 CURVE SMOOTH",
"495 500 OFFCURVE",
"432 534 OFFCURVE",
"335 534 CURVE SMOOTH",
"259 534 OFFCURVE",
"189 501 OFFCURVE",
"141 441 CURVE",
"167 401 LINE",
"204 446 OFFCURVE",
"248 464 OFFCURVE",
"301 464 CURVE SMOOTH",
"383 464 OFFCURVE",
"419 426 OFFCURVE",
"419 320 CURVE SMOOTH",
"419 0 LINE"
);
},
{
closed = 1;
nodes = (
"176 0 LINE",
"176 530 LINE",
"88 520 LINE",
"88 0 LINE"
);
}
);
width = 581;
},
{
anchors = (
{
name = bottom;
position = "{311, 0}";
},
{
name = top;
position = "{320, 520}";
}
);
layerId = "005AA5DB-9C20-42D5-964E-7DFE1013E61C";
name = Bold;
paths = (
{
closed = 1;
nodes = (
"580 0 LINE",
"580 284 LINE SMOOTH",
"580 318 OFFCURVE",
"580 352 OFFCURVE",
"578 375 CURVE SMOOTH",
"569 476 OFFCURVE",
"511 538 OFFCURVE",
"393 538 CURVE SMOOTH",
"307 538 OFFCURVE",
"216 485 OFFCURVE",
"146 405 CURVE",
"162 287 LINE",
"203 372 OFFCURVE",
"255 402 OFFCURVE",
"313 402 CURVE SMOOTH",
"376 402 OFFCURVE",
"400 371 OFFCURVE",
"400 294 CURVE SMOOTH",
"400 0 LINE"
);
},
{
closed = 1;
nodes = (
"239 0 LINE",
"239 529 LINE",
"59 519 LINE",
"59 0 LINE"
);
}
);
width = 630;
},
{
anchors = (
{
name = bottom;
position = "{277, 0}";
},
{
name = top;
position = "{264, 520}";
}
);
layerId = "D0F50BF8-B137-4291-8B58-E185C78D1B48";
leftMetricsKey = "=l";
name = Light;
paths = (
{
closed = 1;
nodes = (
"455 0 LINE",
"455 321 LINE SMOOTH",
"455 355 OFFCURVE",
"455 374 OFFCURVE",
"453 397 CURVE SMOOTH",
"444 490 OFFCURVE",
"385 530 OFFCURVE",
"286 530 CURVE SMOOTH",
"226 530 OFFCURVE",
"166 512 OFFCURVE",
"113 484 CURVE",
"113 460 LINE",
"178 492 OFFCURVE",
"228 507 OFFCURVE",
"279 507 CURVE SMOOTH",
"386 507 OFFCURVE",
"431 466 OFFCURVE",
"431 365 CURVE SMOOTH",
"431 0 LINE"
);
},
{
closed = 1;
nodes = (
"124 0 LINE",
"124 519 LINE",
"100 513 LINE",
"100 0 LINE"
);
}
);
width = 542;
}
);
leftKerningGroup = n;
leftMetricsKey = l;
rightKerningGroup = n;
unicode = 006E;
},
{
glyphname = eng;
lastChange = "2015-07-04 01:34:05 +0000";
layers = (
{
components = (
{
name = n;
}
);
layerId = "D0F50BF8-B137-4291-8B58-E185C78D1B48";
leftMetricsKey = "=n";
rightMetricsKey = "=n";
name = Light;
paths = (
{
closed = 1;
nodes = (
"407 -223 OFFCURVE",
"446 -167 OFFCURVE",
"452 -98 CURVE SMOOTH",
"455 -64 OFFCURVE",
"455 -35 OFFCURVE",
"455 0 CURVE",
"431 0 LINE",
"431 -30 LINE SMOOTH",
"431 -154 OFFCURVE",
"408 -195 OFFCURVE",
"312 -201 CURVE",
"312 -223 LINE"
);
}
);
width = 542;
},
{
components = (
{
name = n;
}
);
layerId = "284DCAF7-AB20-402F-AEDF-E1CEEB9773D4";
name = Regular;
paths = (
{
closed = 1;
nodes = (
"459 -229 OFFCURVE",
"497 -157 OFFCURVE",
"504 -88 CURVE SMOOTH",
"507 -54 OFFCURVE",
"507 -35 OFFCURVE",
"507 0 CURVE",
"419 0 LINE",
"419 -13 LINE SMOOTH",
"419 -115 OFFCURVE",
"400 -153 OFFCURVE",
"304 -153 CURVE",
"304 -223 LINE"
);
}
);
width = 581;
},
{
components = (
{
name = n;
}
);
layerId = "005AA5DB-9C20-42D5-964E-7DFE1013E61C";
rightMetricsKey = "=n";
name = Bold;
paths = (
{
closed = 1;
nodes = (
"507 -231 OFFCURVE",
"576 -177 OFFCURVE",
"585 -68 CURVE SMOOTH",
"587 -44 OFFCURVE",
"587 -27 OFFCURVE",
"587 0 CURVE",
"407 0 LINE",
"407 -4 LINE SMOOTH",
"407 -65 OFFCURVE",
"378 -83 OFFCURVE",
"312 -83 CURVE",
"312 -223 LINE"
);
}
);
width = 637;
}
);
leftKerningGroup = n;
rightKerningGroup = j;
rightMetricsKey = n;
unicode = 014B;
},
{
glyphname = oslash;
lastChange = "2015-07-04 01:34:08 +0000";
layers = (
{
components = (
{
name = o;
}
);
layerId = "D0F50BF8-B137-4291-8B58-E185C78D1B48";
name = Light;
paths = (
{
closed = 1;
nodes = (
"460 526 LINE",
"439 536 LINE",
"74 -10 LINE",
"95 -20 LINE"
);
}
);
width = 566;
},
{
components = (
{
name = o;
}
);
layerId = "284DCAF7-AB20-402F-AEDF-E1CEEB9773D4";
leftMetricsKey = "=o";
rightMetricsKey = "=o";
name = Regular;
paths = (
{
closed = 1;
nodes = (
"514 517 LINE",
"451 552 LINE",
"58 3 LINE",
"121 -32 LINE"
);
}
);
width = 596;
},
{
components = (
{
name = o;
}
);
layerId = "005AA5DB-9C20-42D5-964E-7DFE1013E61C";
name = Bold;
paths = (
{
closed = 1;
nodes = (
"542 530 LINE",
"446 560 LINE",
"82 -10 LINE",
"178 -40 LINE"
);
}
);
width = 640;
}
);
leftKerningGroup = o;
rightKerningGroup = o;
unicode = 00F8;
},
{
glyphname = oe;
lastChange = "2015-07-04 01:34:10 +0000";
layers = (
{
components = (
{
name = elem.o_half;
transform = "{1, 0, 0, 1, 17, -1}";
},
{
name = elem.o_half;
transform = "{1, 0, 0, -1, 17, 517}";
},
{
name = e;
transform = "{1, 0, 0, 1, 412, 0}";
}
);
layerId = "D0F50BF8-B137-4291-8B58-E185C78D1B48";
leftMetricsKey = "=o";
rightMetricsKey = "=e";
name = Light;
paths = (
{
closed = 1;
nodes = (
"490 258 LINE",
"490 375 OFFCURVE",
"449 529 OFFCURVE",
"277 529 CURVE",
"277 506 LINE",
"397 506 OFFCURVE",
"469 413 OFFCURVE",
"469 258 CURVE"
);
},
{
closed = 1;
nodes = (
"449 -13 OFFCURVE",
"490 141 OFFCURVE",
"490 258 CURVE",
"469 258 LINE",
"469 103 OFFCURVE",
"397 10 OFFCURVE",
"277 10 CURVE",
"277 -13 LINE"
);
}
);
width = 901;
},
{
components = (
{
name = elem.o_half;
transform = "{1, 0, 0, 1, 33, 0}";
},
{
name = elem.o_half;
transform = "{1, 0, 0, -1, 33, 520}";
},
{
name = e;
transform = "{1, 0, 0, 1, 394, 0}";
}
);
layerId = "284DCAF7-AB20-402F-AEDF-E1CEEB9773D4";
leftMetricsKey = "=o";
rightMetricsKey = "=e";
name = Regular;
paths = (
{
closed = 1;
nodes = (
"510 260 LINE",
"510 443 OFFCURVE",
"425 534 OFFCURVE",
"298 534 CURVE",
"298 464 LINE",
"397 464 OFFCURVE",
"448 393 OFFCURVE",
"448 260 CURVE"
);
},
{
closed = 1;
nodes = (
"425 -14 OFFCURVE",
"510 77 OFFCURVE",
"510 260 CURVE",
"448 260 LINE",
"448 127 OFFCURVE",
"397 56 OFFCURVE",
"298 56 CURVE",
"298 -14 LINE"
);
}
);
width = 924;
},
{
components = (
{
name = elem.o_half;
transform = "{1, 0, 0, 1, 5, 0}";
},
{
name = elem.o_half;
transform = "{1, 0, 0, -1, 5, 520}";
},
{
name = e;
transform = "{1, 0, 0, 1, 378, 0}";
}
);
layerId = "005AA5DB-9C20-42D5-964E-7DFE1013E61C";
leftMetricsKey = "=o";
rightMetricsKey = "=e";
name = Bold;
paths = (
{
closed = 1;
nodes = (
"562 260 LINE",
"562 449 OFFCURVE",
"432 538 OFFCURVE",
"310 538 CURVE",
"310 402 LINE",
"371 402 OFFCURVE",
"412 353 OFFCURVE",
"412 260 CURVE"
);
},
{
closed = 1;
nodes = (
"432 -18 OFFCURVE",
"562 71 OFFCURVE",
"562 260 CURVE",
"412 260 LINE",
"412 167 OFFCURVE",
"371 118 OFFCURVE",
"310 118 CURVE",
"310 -18 LINE"
);
}
);
width = 931;
}
);
leftKerningGroup = o;
leftMetricsKey = o;
rightKerningGroup = e;
rightMetricsKey = e;
unicode = 0153;
},
{
glyphname = p;
lastChange = "2015-07-04 01:34:10 +0000";
layers = (
{
components = (
{
name = elem.bwlRightSide;
transform = "{1, 0, 0, 1, 88, 0}";
}
);
layerId = "284DCAF7-AB20-402F-AEDF-E1CEEB9773D4";
leftMetricsKey = "=n";
rightMetricsKey = "=o";
name = Regular;
paths = (
{
closed = 1;
nodes = (
"176 -200 LINE",
"176 508 LINE",
"88 508 LINE",
"88 -210 LINE"
);
}
);
width = 580;
},
{
components = (
{
name = elem.bwlRightSide;
transform = "{1, 0, 0, 1, 59, 4}";
}
);
layerId = "005AA5DB-9C20-42D5-964E-7DFE1013E61C";
leftMetricsKey = "=l";
rightMetricsKey = "=o";
name = Bold;
paths = (
{
closed = 1;
nodes = (
"239 -201 LINE",
"239 502 LINE",
"59 502 LINE",
"59 -211 LINE"
);
}
);
width = 609;
},
{
components = (
{
name = elem.bwlRightSide;
transform = "{1, 0, 0, 1, 80, -4}";
}
);
layerId = "D0F50BF8-B137-4291-8B58-E185C78D1B48";
leftMetricsKey = "=n";
rightMetricsKey = "=o";
name = Light;
paths = (
{
closed = 1;
nodes = (
"124 -201 LINE",
"124 499 LINE",
"100 499 LINE",
"100 -207 LINE"
);
}
);
width = 538;
}
);
leftKerningGroup = p;
leftMetricsKey = "=l";
rightKerningGroup = o;
rightMetricsKey = "=o";
unicode = 0070;
},
{
glyphname = q;
lastChange = "2015-07-04 01:34:10 +0000";
layers = (
{
components = (
{
name = elem.bwlRightSide;
transform = "{-1, 0, 0, -1, 492, 520}";
}
);
layerId = "284DCAF7-AB20-402F-AEDF-E1CEEB9773D4";
leftMetricsKey = "=o";
rightMetricsKey = "=d";
name = Regular;
paths = (
{
closed = 1;
nodes = (
"492 -200 LINE",
"492 508 LINE",
"404 508 LINE",
"404 -210 LINE"
);
}
);
width = 580;
},
{
components = (
{
name = elem.bwlRightSide;
transform = "{-1, 0, 0, -1, 550, 521}";
}
);
layerId = "005AA5DB-9C20-42D5-964E-7DFE1013E61C";
leftMetricsKey = "=o";
rightMetricsKey = "=l";
name = Bold;
paths = (
{
closed = 1;
nodes = (
"550 -201 LINE",
"550 502 LINE",
"370 502 LINE",
"370 -211 LINE"
);
}
);
width = 609;
},
{
components = (
{
name = elem.bwlRightSide;
transform = "{-1, 0, 0, -1, 458, 520}";
}
);
layerId = "D0F50BF8-B137-4291-8B58-E185C78D1B48";
leftMetricsKey = "=o";
rightMetricsKey = "=d";
name = Light;
paths = (
{
closed = 1;
nodes = (
"438 -201 LINE",
"438 503 LINE",
"414 503 LINE",
"414 -207 LINE"
);
}
);
width = 538;
}
);
leftKerningGroup = o;
leftMetricsKey = "=o";
rightKerningGroup = q;
rightMetricsKey = "=l";
unicode = 0071;
},
{
glyphname = r;
lastChange = "2015-07-04 01:34:10 +0000";
layers = (
{
anchors = (
{
name = bottom;
position = "{132, 0}";
},
{
name = top;
position = "{200, 520}";
}
);
layerId = "284DCAF7-AB20-402F-AEDF-E1CEEB9773D4";
leftMetricsKey = "=h";
name = Regular;
paths = (
{
closed = 1;
nodes = (
"176 0 LINE",
"176 388 LINE",
"199 433 OFFCURVE",
"231 451 OFFCURVE",
"279 451 CURVE SMOOTH",
"304 451 OFFCURVE",
"320 449 OFFCURVE",
"339 444 CURVE",
"346 518 LINE",
"333 528 OFFCURVE",
"316 534 OFFCURVE",
"288 534 CURVE SMOOTH",
"245 534 OFFCURVE",
"201 514 OFFCURVE",
"176 457 CURVE",
"176 525 LINE",
"88 515 LINE",
"88 0 LINE"
);
}
);
width = 369;
},
{
anchors = (
{
name = bottom;
position = "{149, 0}";
},
{
name = top;
position = "{217, 520}";
}
);
layerId = "005AA5DB-9C20-42D5-964E-7DFE1013E61C";
leftMetricsKey = "=n";
name = Bold;
paths = (
{
closed = 1;
nodes = (
"239 0 LINE",
"239 339 LINE",
"265 374 OFFCURVE",
"303 392 OFFCURVE",
"357 392 CURVE SMOOTH",
"375 392 OFFCURVE",
"393 390 OFFCURVE",
"412 385 CURVE",
"424 516 LINE",
"410 528 OFFCURVE",
"386 538 OFFCURVE",
"355 538 CURVE SMOOTH",
"303 538 OFFCURVE",
"255 511 OFFCURVE",
"239 437 CURVE",
"239 529 LINE",
"59 519 LINE",
"59 0 LINE"
);
}
);
width = 434;
},
{
anchors = (
{
name = bottom;
position = "{112, 0}";
},
{
name = top;
position = "{174, 520}";
}
);
layerId = "D0F50BF8-B137-4291-8B58-E185C78D1B48";
leftMetricsKey = "=h";
name = Light;
paths = (
{
closed = 1;
nodes = (
"124 0 LINE",
"124 422 LINE",
"139 469 OFFCURVE",
"176 507 OFFCURVE",
"217 507 CURVE SMOOTH",
"236 507 OFFCURVE",
"248 503 OFFCURVE",
"258 497 CURVE",
"266 517 LINE",
"254 526 OFFCURVE",
"241 530 OFFCURVE",
"219 530 CURVE SMOOTH",
"183 530 OFFCURVE",
"151 510 OFFCURVE",
"124 463 CURVE",
"124 519 LINE",
"100 513 LINE",
"100 0 LINE"
);
}
);
width = 298;
}
);
leftKerningGroup = n;
leftMetricsKey = n;
rightKerningGroup = r;
unicode = 0072;
},
{
glyphname = s;
lastChange = "2015-06-30 14:30:14 +0000";
layers = (
{
anchors = (
{
name = bottom;
position = "{226, 0}";
},
{
name = top;
position = "{247, 520}";
}
);
layerId = "284DCAF7-AB20-402F-AEDF-E1CEEB9773D4";
name = Regular;
paths = (
{
closed = 1;
nodes = (
"321 -14 OFFCURVE",
"407 38 OFFCURVE",
"407 140 CURVE SMOOTH",
"407 229 OFFCURVE",
"348 266 OFFCURVE",
"260 304 CURVE SMOOTH",
"195 332 OFFCURVE",
"159 354 OFFCURVE",
"159 399 CURVE SMOOTH",
"159 442 OFFCURVE",
"188 464 OFFCURVE",
"242 464 CURVE SMOOTH",
"296 464 OFFCURVE",
"335 451 OFFCURVE",
"369 428 CURVE",
"398 490 LINE",
"358 519 OFFCURVE",
"311 534 OFFCURVE",
"247 534 CURVE SMOOTH",
"135 534 OFFCURVE",
"70 477 OFFCURVE",
"70 391 CURVE SMOOTH",
"70 310 OFFCURVE",
"128 272 OFFCURVE",
"204 240 CURVE SMOOTH",
"294 203 OFFCURVE",
"317 182 OFFCURVE",
"317 132 CURVE SMOOTH",
"317 86 OFFCURVE",
"284 56 OFFCURVE",
"221 56 CURVE SMOOTH",
"164 56 OFFCURVE",
"117 74 OFFCURVE",
"76 103 CURVE",
"39 45 LINE",
"83 5 OFFCURVE",
"140 -14 OFFCURVE",
"215 -14 CURVE SMOOTH"
);
}
);
width = 461;
},
{
anchors = (
{
name = bottom;
position = "{244, 0}";
},
{
name = top;
position = "{248, 520}";
}
);
layerId = "005AA5DB-9C20-42D5-964E-7DFE1013E61C";
name = Bold;
paths = (
{
closed = 1;
nodes = (
"347 -14 OFFCURVE",
"445 50 OFFCURVE",
"445 155 CURVE SMOOTH",
"445 229 OFFCURVE",
"411 274 OFFCURVE",
"316 315 CURVE SMOOTH",
"264 337 OFFCURVE",
"233 354 OFFCURVE",
"233 376 CURVE SMOOTH",
"233 395 OFFCURVE",
"251 412 OFFCURVE",
"285 412 CURVE SMOOTH",
"341 412 OFFCURVE",
"380 405 OFFCURVE",
"409 390 CURVE",
"426 500 LINE",
"386 525 OFFCURVE",
"337 538 OFFCURVE",
"270 538 CURVE SMOOTH",
"164 538 OFFCURVE",
"61 481 OFFCURVE",
"61 375 CURVE SMOOTH",
"61 283 OFFCURVE",
"114 251 OFFCURVE",
"197 213 CURVE SMOOTH",
"251 189 OFFCURVE",
"272 172 OFFCURVE",
"272 149 CURVE SMOOTH",
"272 127 OFFCURVE",
"257 112 OFFCURVE",
"218 112 CURVE SMOOTH",
"160 112 OFFCURVE",
"115 123 OFFCURVE",
"65 147 CURVE",
"40 34 LINE",
"85 2 OFFCURVE",
"153 -14 OFFCURVE",
"230 -14 CURVE SMOOTH"
);
}
);
width = 479;
},
{
anchors = (
{
name = bottom;
position = "{237, 0}";
},
{
name = top;
position = "{235, 520}";
}
);
layerId = "D0F50BF8-B137-4291-8B58-E185C78D1B48";
name = Light;
paths = (
{
closed = 1;
nodes = (
"305 -14 OFFCURVE",
"377 35 OFFCURVE",
"377 124 CURVE SMOOTH",
"377 206 OFFCURVE",
"327 237 OFFCURVE",
"227 286 CURVE SMOOTH",
"169 314 OFFCURVE",
"119 339 OFFCURVE",
"119 407 CURVE SMOOTH",
"119 472 OFFCURVE",
"172 511 OFFCURVE",
"249 511 CURVE SMOOTH",
"292 511 OFFCURVE",
"330 500 OFFCURVE",
"366 476 CURVE",
"376 496 LINE",
"346 515 OFFCURVE",
"303 534 OFFCURVE",
"247 534 CURVE SMOOTH",
"163 534 OFFCURVE",
"95 488 OFFCURVE",
"95 406 CURVE SMOOTH",
"95 322 OFFCURVE",
"163 288 OFFCURVE",
"213 264 CURVE SMOOTH",
"304 220 OFFCURVE",
"353 191 OFFCURVE",
"353 124 CURVE SMOOTH",
"353 47 OFFCURVE",
"290 9 OFFCURVE",
"211 9 CURVE SMOOTH",
"171 9 OFFCURVE",
"123 23 OFFCURVE",
"86 52 CURVE",
"75 33 LINE",
"118 0 OFFCURVE",
"167 -14 OFFCURVE",
"209 -14 CURVE SMOOTH"
);
}
);
width = 457;
}
);
leftKerningGroup = s;
rightKerningGroup = s;
unicode = 0073;
},
{
glyphname = germandbls;
lastChange = "2015-07-04 01:34:10 +0000";
layers = (
{
layerId = "D0F50BF8-B137-4291-8B58-E185C78D1B48";
leftMetricsKey = "=h";
name = Light;
paths = (
{
closed = 1;
nodes = (
"435 -14 OFFCURVE",
"501 62 OFFCURVE",
"501 149 CURVE SMOOTH",
"501 214 OFFCURVE",
"477 268 OFFCURVE",
"412 330 CURVE SMOOTH",
"364 375 OFFCURVE",
"348 401 OFFCURVE",
"348 433 CURVE SMOOTH",
"348 469 OFFCURVE",
"371 489 OFFCURVE",
"433 496 CURVE",
"448 527 OFFCURVE",
"453 555 OFFCURVE",
"453 589 CURVE SMOOTH",
"453 675 OFFCURVE",
"412 764 OFFCURVE",
"287 764 CURVE SMOOTH",
"180 764 OFFCURVE",
"112 680 OFFCURVE",
"103 576 CURVE SMOOTH",
"100 536 OFFCURVE",
"100 485 OFFCURVE",
"100 447 CURVE SMOOTH",
"100 0 LINE",
"124 0 LINE",
"124 524 LINE SMOOTH",
"124 678 OFFCURVE",
"203 741 OFFCURVE",
"281 741 CURVE SMOOTH",
"384 741 OFFCURVE",
"429 681 OFFCURVE",
"429 587 CURVE SMOOTH",
"429 558 OFFCURVE",
"426 537 OFFCURVE",
"416 509 CURVE",
"434 516 LINE",
"363 515 OFFCURVE",
"324 482 OFFCURVE",
"324 430 CURVE SMOOTH",
"324 397 OFFCURVE",
"338 373 OFFCURVE",
"394 316 CURVE SMOOTH",
"455 254 OFFCURVE",
"477 211 OFFCURVE",
"477 148 CURVE SMOOTH",
"477 59 OFFCURVE",
"409 9 OFFCURVE",
"327 9 CURVE SMOOTH",
"300 9 OFFCURVE",
"264 15 OFFCURVE",
"232 36 CURVE",
"220 18 LINE",
"245 -2 OFFCURVE",
"283 -14 OFFCURVE",
"325 -14 CURVE SMOOTH"
);
}
);
width = 561;
},
{
layerId = "284DCAF7-AB20-402F-AEDF-E1CEEB9773D4";
leftMetricsKey = "=h";
name = Regular;
paths = (
{
closed = 1;
nodes = (
"463 -14 OFFCURVE",
"559 41 OFFCURVE",
"559 174 CURVE SMOOTH",
"559 244 OFFCURVE",
"527 293 OFFCURVE",
"462 352 CURVE SMOOTH",
"419 391 OFFCURVE",
"397 416 OFFCURVE",
"397 434 CURVE SMOOTH",
"397 456 OFFCURVE",
"411 469 OFFCURVE",
"486 486 CURVE",
"501 517 OFFCURVE",
"509 551 OFFCURVE",
"509 585 CURVE SMOOTH",
"509 687 OFFCURVE",
"450 764 OFFCURVE",
"305 764 CURVE SMOOTH",
"175 764 OFFCURVE",
"106 690 OFFCURVE",
"93 586 CURVE SMOOTH",
"88 546 OFFCURVE",
"88 495 OFFCURVE",
"88 457 CURVE SMOOTH",
"88 0 LINE",
"176 0 LINE",
"176 544 LINE SMOOTH",
"176 647 OFFCURVE",
"228 694 OFFCURVE",
"303 694 CURVE SMOOTH",
"378 694 OFFCURVE",
"417 649 OFFCURVE",
"417 587 CURVE SMOOTH",
"417 558 OFFCURVE",
"414 537 OFFCURVE",
"404 509 CURVE",
"470 549 LINE",
"351 528 OFFCURVE",
"312 495 OFFCURVE",
"312 435 CURVE SMOOTH",
"312 397 OFFCURVE",
"329 371 OFFCURVE",
"400 299 CURVE SMOOTH",
"446 252 OFFCURVE",
"465 213 OFFCURVE",
"465 163 CURVE SMOOTH",
"465 104 OFFCURVE",
"431 56 OFFCURVE",
"361 56 CURVE SMOOTH",
"328 56 OFFCURVE",
"302 62 OFFCURVE",
"278 76 CURVE",
"248 18 LINE",
"273 -2 OFFCURVE",
"311 -14 OFFCURVE",
"353 -14 CURVE SMOOTH"
);
}
);
width = 614;
},
{
layerId = "005AA5DB-9C20-42D5-964E-7DFE1013E61C";
leftMetricsKey = "=h";
name = Bold;
paths = (
{
closed = 1;
nodes = (
"518 -14 OFFCURVE",
"618 47 OFFCURVE",
"618 177 CURVE SMOOTH",
"618 232 OFFCURVE",
"598 283 OFFCURVE",
"525 352 CURVE SMOOTH",
"485 390 OFFCURVE",
"466 412 OFFCURVE",
"466 433 CURVE SMOOTH",
"466 453 OFFCURVE",
"505 466 OFFCURVE",
"539 476 CURVE",
"554 507 OFFCURVE",
"562 541 OFFCURVE",
"562 575 CURVE SMOOTH",
"562 687 OFFCURVE",
"483 764 OFFCURVE",
"317 764 CURVE SMOOTH",
"160 764 OFFCURVE",
"78 680 OFFCURVE",
"65 576 CURVE SMOOTH",
"60 535 OFFCURVE",
"59 487 OFFCURVE",
"59 417 CURVE SMOOTH",
"59 0 LINE",
"239 0 LINE",
"239 524 LINE SMOOTH",
"239 595 OFFCURVE",
"273 620 OFFCURVE",
"316 620 CURVE SMOOTH",
"358 620 OFFCURVE",
"385 591 OFFCURVE",
"385 547 CURVE SMOOTH",
"385 526 OFFCURVE",
"381 505 OFFCURVE",
"372 473 CURVE",
"503 525 LINE",
"370 513 OFFCURVE",
"305 461 OFFCURVE",
"305 404 CURVE SMOOTH",
"305 367 OFFCURVE",
"330 337 OFFCURVE",
"393 279 CURVE SMOOTH",
"425 249 OFFCURVE",
"438 220 OFFCURVE",
"438 188 CURVE SMOOTH",
"438 149 OFFCURVE",
"410 126 OFFCURVE",
"365 126 CURVE SMOOTH",
"348 126 OFFCURVE",
"331 128 OFFCURVE",
"307 135 CURVE",
"281 8 LINE",
"317 -6 OFFCURVE",
"356 -14 OFFCURVE",
"396 -14 CURVE SMOOTH"
);
}
);
width = 657;
}
);
leftKerningGroup = h;
leftMetricsKey = h;
rightKerningGroup = germandbls;
unicode = 00DF;
},
{
glyphname = t;
lastChange = "2015-06-30 14:30:14 +0000";
layers = (
{
anchors = (
{
name = bottom;
position = "{237, 0}";
},
{
name = center;
position = "{188, 290}";
}
);
layerId = "284DCAF7-AB20-402F-AEDF-E1CEEB9773D4";
name = Regular;
paths = (
{
closed = 1;
nodes = (
"292 -14 OFFCURVE",
"328 -3 OFFCURVE",
"360 13 CURVE",
"344 70 LINE",
"319 61 OFFCURVE",
"301 58 OFFCURVE",
"284 58 CURVE SMOOTH",
"223 58 OFFCURVE",
"206 83 OFFCURVE",
"206 169 CURVE SMOOTH",
"206 650 LINE",
"118 636 LINE",
"118 174 LINE SMOOTH",
"118 146 OFFCURVE",
"118 119 OFFCURVE",
"120 92 CURVE SMOOTH",
"125 32 OFFCURVE",
"162 -14 OFFCURVE",
"245 -14 CURVE SMOOTH"
);
},
{
closed = 1;
nodes = (
"347 454 LINE",
"356 520 LINE",
"43 520 LINE",
"43 454 LINE"
);
}
);
width = 397;
},
{
anchors = (
{
name = bottom;
position = "{245, 0}";
},
{
name = center;
position = "{205, 270}";
}
);
layerId = "005AA5DB-9C20-42D5-964E-7DFE1013E61C";
name = Bold;
paths = (
{
closed = 1;
nodes = (
"322 -15 OFFCURVE",
"383 -1 OFFCURVE",
"426 19 CURVE",
"412 128 LINE",
"390 123 OFFCURVE",
"375 121 OFFCURVE",
"355 121 CURVE SMOOTH",
"296 121 OFFCURVE",
"279 146 OFFCURVE",
"279 224 CURVE SMOOTH",
"279 680 LINE",
"99 629 LINE",
"99 233 LINE SMOOTH",
"99 165 OFFCURVE",
"100 138 OFFCURVE",
"104 101 CURVE SMOOTH",
"111 31 OFFCURVE",
"157 -15 OFFCURVE",
"255 -15 CURVE SMOOTH"
);
},
{
closed = 1;
nodes = (
"411 394 LINE",
"429 524 LINE",
"23 524 LINE",
"23 394 LINE"
);
}
);
width = 452;
},
{
anchors = (
{
name = bottom;
position = "{215, 0}";
},
{
name = center;
position = "{155, 320}";
}
);
layerId = "D0F50BF8-B137-4291-8B58-E185C78D1B48";
name = Light;
paths = (
{
closed = 1;
nodes = (
"271 -14 OFFCURVE",
"295 -4 OFFCURVE",
"318 8 CURVE",
"310 25 LINE",
"287 14 OFFCURVE",
"265 9 OFFCURVE",
"238 9 CURVE SMOOTH",
"181 9 OFFCURVE",
"146 38 OFFCURVE",
"146 124 CURVE SMOOTH",
"146 675 LINE",
"122 669 LINE",
"122 184 LINE SMOOTH",
"122 136 OFFCURVE",
"122 117 OFFCURVE",
"124 90 CURVE SMOOTH",
"128 35 OFFCURVE",
"157 -14 OFFCURVE",
"235 -14 CURVE SMOOTH"
);
},
{
closed = 1;
nodes = (
"302 494 LINE",
"307 516 LINE",
"46 516 LINE",
"46 494 LINE"
);
}
);
width = 356;
}
);
leftKerningGroup = t;
rightKerningGroup = t;
unicode = 0074;
},
{
glyphname = u;
lastChange = "2015-07-04 02:17:56 +0000";
layers = (
{
anchors = (
{
name = ogonek;
position = "{418, 0}";
},
{
name = top;
position = "{279, 520}";
}
);
layerId = "284DCAF7-AB20-402F-AEDF-E1CEEB9773D4";
leftMetricsKey = "=|h-6";
rightMetricsKey = "=l";
name = Regular;
paths = (
{
closed = 1;
nodes = (
"316 -14 OFFCURVE",
"391 19 OFFCURVE",
"434 79 CURVE",
"408 119 LINE",
"371 74 OFFCURVE",
"327 56 OFFCURVE",
"274 56 CURVE SMOOTH",
"192 56 OFFCURVE",
"156 94 OFFCURVE",
"156 200 CURVE SMOOTH",
"156 525 LINE",
"68 515 LINE",
"68 210 LINE SMOOTH",
"68 176 OFFCURVE",
"68 152 OFFCURVE",
"70 129 CURVE SMOOTH",
"80 20 OFFCURVE",
"143 -14 OFFCURVE",
"240 -14 CURVE SMOOTH"
);
},
{
closed = 1;
nodes = (
"481 0 LINE",
"481 525 LINE",
"393 515 LINE",
"393 0 LINE"
);
}
);
width = 569;
},
{
anchors = (
{
name = ogonek;
position = "{522, 0}";
},
{
name = top;
position = "{310, 520}";
}
);
layerId = "005AA5DB-9C20-42D5-964E-7DFE1013E61C";
leftMetricsKey = "=|h-6";
rightMetricsKey = "=l";
name = Bold;
paths = (
{
closed = 1;
nodes = (
"317 -14 OFFCURVE",
"408 39 OFFCURVE",
"478 109 CURVE",
"462 237 LINE",
"421 152 OFFCURVE",
"369 122 OFFCURVE",
"311 122 CURVE SMOOTH",
"248 122 OFFCURVE",
"224 153 OFFCURVE",
"224 230 CURVE SMOOTH",
"224 529 LINE",
"44 519 LINE",
"44 240 LINE SMOOTH",
"44 206 OFFCURVE",
"44 172 OFFCURVE",
"46 149 CURVE SMOOTH",
"55 48 OFFCURVE",
"113 -14 OFFCURVE",
"231 -14 CURVE SMOOTH"
);
},
{
closed = 1;
nodes = (
"565 0 LINE",
"565 529 LINE",
"385 519 LINE",
"385 0 LINE"
);
}
);
width = 624;
},
{
anchors = (
{
name = ogonek;
position = "{436, 0}";
},
{
name = top;
position = "{265, 520}";
}
);
layerId = "D0F50BF8-B137-4291-8B58-E185C78D1B48";
leftMetricsKey = "=|h-6";
rightMetricsKey = "=d";
name = Light;
paths = (
{
closed = 1;
nodes = (
"310 -14 OFFCURVE",
"370 4 OFFCURVE",
"423 32 CURVE",
"423 56 LINE",
"358 24 OFFCURVE",
"308 9 OFFCURVE",
"257 9 CURVE SMOOTH",
"150 9 OFFCURVE",
"105 50 OFFCURVE",
"105 151 CURVE SMOOTH",
"105 519 LINE",
"81 513 LINE",
"81 195 LINE SMOOTH",
"81 161 OFFCURVE",
"81 142 OFFCURVE",
"83 119 CURVE SMOOTH",
"92 26 OFFCURVE",
"151 -14 OFFCURVE",
"250 -14 CURVE SMOOTH"
);
},
{
closed = 1;
nodes = (
"436 0 LINE",
"436 519 LINE",
"412 513 LINE",
"412 0 LINE"
);
}
);
width = 536;
}
);
leftKerningGroup = u;
leftMetricsKey = "=|h-6";
rightKerningGroup = u;
rightMetricsKey = l;
unicode = 0075;
},
{
glyphname = uogonek;
lastChange = "2015-06-30 14:30:14 +0000";
layers = (
{
components = (
{
name = u;
},
{
name = elem.ogonekunder;
transform = "{1, 0, 0, 1, 25, 0}";
}
);
layerId = "D0F50BF8-B137-4291-8B58-E185C78D1B48";
name = Light;
paths = (
{
closed = 1;
nodes = (
"336 -141 LINE",
"336 -102 OFFCURVE",
"353 -57 OFFCURVE",
"425 0 CURVE",
"401 5 LINE",
"347 -41 OFFCURVE",
"312 -90 OFFCURVE",
"312 -144 CURVE"
);
}
);
width = 541;
},
{
components = (
{
name = u;
},
{
name = elem.ogonekunder;
transform = "{1, 0, 0, 1, 280, 0}";
}
);
layerId = "284DCAF7-AB20-402F-AEDF-E1CEEB9773D4";
name = Regular;
paths = (
{
closed = 1;
nodes = (
"404 -106 LINE",
"404 -53 OFFCURVE",
"434 -17 OFFCURVE",
"481 0 CURVE",
"393 0 LINE",
"353 -41 OFFCURVE",
"322 -86 OFFCURVE",
"322 -135 CURVE"
);
}
);
width = 591;
},
{
components = (
{
name = u;
},
{
name = elem.ogonekunder;
transform = "{1, 0, 0, 1, 318, 0}";
}
);
layerId = "005AA5DB-9C20-42D5-964E-7DFE1013E61C";
name = Bold;
paths = (
{
closed = 1;
nodes = (
"446 -77 LINE",
"446 -31 OFFCURVE",
"490 0 OFFCURVE",
"570 0 CURVE",
"391 0 LINE",
"350 -47 OFFCURVE",
"332 -79 OFFCURVE",
"332 -119 CURVE"
);
}
);
width = 637;
}
);
leftKerningGroup = u;
rightKerningGroup = u;
unicode = 0173;
},
{
glyphname = v;
lastChange = "2015-06-30 14:30:14 +0000";
layers = (
{
layerId = "284DCAF7-AB20-402F-AEDF-E1CEEB9773D4";
name = Regular;
paths = (
{
closed = 1;
nodes = (
"296 0 LINE",
"510 520 LINE",
"421 520 LINE",
"248 56 LINE",
"277 56 LINE",
"115 520 LINE",
"16 520 LINE",
"222 0 LINE"
);
}
);
width = 533;
},
{
layerId = "005AA5DB-9C20-42D5-964E-7DFE1013E61C";
name = Bold;
paths = (
{
closed = 1;
nodes = (
"351 0 LINE",
"572 524 LINE",
"373 524 LINE",
"250 58 LINE",
"307 58 LINE",
"197 524 LINE",
"-12 524 LINE",
"197 0 LINE"
);
}
);
width = 570;
},
{
layerId = "D0F50BF8-B137-4291-8B58-E185C78D1B48";
name = Light;
paths = (
{
closed = 1;
nodes = (
"266 0 LINE",
"472 516 LINE",
"445 516 LINE",
"249 14 LINE",
"261 14 LINE",
"76 516 LINE",
"48 516 LINE",
"243 0 LINE"
);
}
);
width = 501;
}
);
leftKerningGroup = v;
rightKerningGroup = v;
unicode = 0076;
},
{
glyphname = w;
lastChange = "2015-07-04 01:34:10 +0000";
layers = (
{
anchors = (
{
name = top;
position = "{398, 520}";
}
);
layerId = "284DCAF7-AB20-402F-AEDF-E1CEEB9773D4";
leftMetricsKey = "=v+8";
rightMetricsKey = "=v+8";
name = Regular;
paths = (
{
closed = 1;
nodes = (
"264 0 LINE",
"415 434 LINE",
"374 434 LINE",
"517 0 LINE",
"594 0 LINE",
"764 520 LINE",
"677 520 LINE",
"545 57 LINE",
"573 58 LINE",
"427 512 LINE",
"370 512 LINE",
"217 65 LINE",
"241 64 LINE",
"124 520 LINE",
"24 520 LINE",
"186 0 LINE"
);
}
);
width = 795;
},
{
anchors = (
{
name = top;
position = "{408, 520}";
}
);
layerId = "005AA5DB-9C20-42D5-964E-7DFE1013E61C";
leftMetricsKey = "=v+4";
rightMetricsKey = "=v+4";
name = Bold;
paths = (
{
closed = 1;
nodes = (
"316 0 LINE",
"436 449 LINE",
"370 449 LINE",
"491 0 LINE",
"664 0 LINE",
"822 524 LINE",
"651 524 LINE",
"549 47 LINE",
"613 48 LINE",
"491 516 LINE",
"326 516 LINE",
"203 55 LINE",
"259 54 LINE",
"176 524 LINE",
"-8 524 LINE",
"142 0 LINE"
);
}
);
width = 824;
},
{
anchors = (
{
name = top;
position = "{403, 520}";
}
);
layerId = "D0F50BF8-B137-4291-8B58-E185C78D1B48";
leftMetricsKey = "=v+8";
rightMetricsKey = "=v+8";
name = Light;
paths = (
{
closed = 1;
nodes = (
"246 0 LINE",
"410 482 LINE",
"396 482 LINE",
"545 0 LINE",
"569 0 LINE",
"742 516 LINE",
"718 516 LINE",
"551 13 LINE",
"564 14 LINE",
"414 495 LINE",
"392 495 LINE",
"229 20 LINE",
"238 19 LINE",
"82 516 LINE",
"56 516 LINE",
"221 0 LINE"
);
}
);
width = 779;
}
);
leftKerningGroup = w;
leftMetricsKey = "=v+4";
rightKerningGroup = w;
rightMetricsKey = "=v+4";
unicode = 0077;
},
{
glyphname = x;
lastChange = "2015-06-30 14:30:14 +0000";
layers = (
{
layerId = "284DCAF7-AB20-402F-AEDF-E1CEEB9773D4";
name = Regular;
paths = (
{
closed = 1;
nodes = (
"134 0 LINE",
"285 245 LINE",
"237 245 LINE",
"389 0 LINE",
"496 0 LINE",
"310 267 LINE",
"497 520 LINE",
"391 520 LINE",
"241 281 LINE",
"288 280 LINE",
"149 520 LINE",
"41 520 LINE",
"218 260 LINE",
"32 0 LINE"
);
}
);
width = 535;
},
{
layerId = "005AA5DB-9C20-42D5-964E-7DFE1013E61C";
name = Bold;
paths = (
{
closed = 1;
nodes = (
"198 0 LINE",
"319 238 LINE",
"235 238 LINE",
"351 0 LINE",
"561 0 LINE",
"379 268 LINE",
"562 525 LINE",
"353 525 LINE",
"240 289 LINE",
"323 287 LINE",
"216 525 LINE",
"5 525 LINE",
"184 258 LINE",
"-7 0 LINE"
);
}
);
width = 569;
},
{
layerId = "D0F50BF8-B137-4291-8B58-E185C78D1B48";
name = Light;
paths = (
{
closed = 1;
nodes = (
"75 0 LINE",
"248 253 LINE",
"236 253 LINE",
"402 0 LINE",
"435 0 LINE",
"256 262 LINE",
"439 516 LINE",
"407 516 LINE",
"236 268 LINE",
"248 269 LINE",
"90 516 LINE",
"59 516 LINE",
"227 261 LINE",
"46 0 LINE"
);
}
);
width = 487;
}
);
leftKerningGroup = x;
rightKerningGroup = x;
unicode = 0078;
},
{
glyphname = y;
lastChange = "2015-07-04 01:34:10 +0000";
layers = (
{
anchors = (
{
name = top;
position = "{267, 520}";
}
);
layerId = "284DCAF7-AB20-402F-AEDF-E1CEEB9773D4";
leftMetricsKey = "=v";
rightMetricsKey = "=v";
name = Regular;
paths = (
{
closed = 1;
nodes = (
"185 -179 OFFCURVE",
"244 -107 OFFCURVE",
"322 72 CURVE SMOOTH",
"518 520 LINE",
"419 520 LINE",
"245 56 LINE",
"279 56 LINE",
"118 520 LINE",
"16 520 LINE",
"230 -7 LINE",
"219 30 LINE",
"178 -59 OFFCURVE",
"117 -114 OFFCURVE",
"30 -154 CURVE",
"76 -220 LINE"
);
}
);
width = 541;
},
{
anchors = (
{
name = top;
position = "{280, 520}";
}
);
layerId = "005AA5DB-9C20-42D5-964E-7DFE1013E61C";
leftMetricsKey = "=v";
rightMetricsKey = "=v";
name = Bold;
paths = (
{
closed = 1;
nodes = (
"206 -201 OFFCURVE",
"298 -107 OFFCURVE",
"372 64 CURVE SMOOTH",
"572 524 LINE",
"376 524 LINE",
"246 68 LINE",
"304 68 LINE",
"200 524 LINE",
"-12 524 LINE",
"208 -37 LINE",
"192 48 LINE",
"153 -21 OFFCURVE",
"102 -47 OFFCURVE",
"18 -69 CURVE",
"42 -220 LINE"
);
}
);
width = 570;
},
{
anchors = (
{
name = top;
position = "{249, 520}";
}
);
layerId = "D0F50BF8-B137-4291-8B58-E185C78D1B48";
name = Light;
paths = (
{
closed = 1;
nodes = (
"139 -193 OFFCURVE",
"205 -117 OFFCURVE",
"282 76 CURVE SMOOTH",
"458 516 LINE",
"432 516 LINE",
"233 12 LINE",
"247 10 LINE",
"71 516 LINE",
"44 516 LINE",
"232 -13 LINE",
"234 23 LINE",
"189 -90 OFFCURVE",
"120 -178 OFFCURVE",
"32 -199 CURVE",
"47 -219 LINE"
);
}
);
width = 487;
}
);
leftKerningGroup = y;
rightKerningGroup = y;
rightMetricsKey = "=v";
unicode = 0079;
},
{
glyphname = z;
lastChange = "2015-10-12 13:05:21 +0000";
layers = (
{
anchors = (
{
name = top;
position = "{262, 520}";
}
);
layerId = "284DCAF7-AB20-402F-AEDF-E1CEEB9773D4";
name = Regular;
paths = (
{
closed = 1;
nodes = (
"459 0 LINE",
"468 66 LINE",
"131 66 LINE",
"148 34 LINE",
"435 474 LINE",
"435 520 LINE",
"82 520 LINE",
"82 454 LINE",
"364 454 LINE",
"345 485 LINE",
"56 48 LINE",
"56 0 LINE"
);
}
);
width = 504;
},
{
anchors = (
{
name = top;
position = "{259, 520}";
}
);
layerId = "005AA5DB-9C20-42D5-964E-7DFE1013E61C";
name = Bold;
paths = (
{
closed = 1;
nodes = (
"473 0 LINE",
"491 130 LINE",
"104 130 LINE",
"187 34 LINE",
"459 432 LINE",
"459 524 LINE",
"46 524 LINE",
"46 394 LINE",
"338 394 LINE",
"310 489 LINE",
"32 84 LINE",
"32 0 LINE"
);
}
);
width = 512;
},
{
anchors = (
{
name = top;
position = "{243, 520}";
}
);
layerId = "D0F50BF8-B137-4291-8B58-E185C78D1B48";
name = Light;
paths = (
{
closed = 1;
nodes = (
"424 0 LINE",
"434 22 LINE",
"79 22 LINE",
"90 14 LINE",
"402 502 LINE",
"402 516 LINE",
"88 516 LINE",
"88 494 LINE",
"385 494 LINE",
"373 501 LINE",
"63 17 LINE",
"63 0 LINE"
);
}
);
width = 476;
}
);
leftKerningGroup = z;
rightKerningGroup = z;
unicode = 007A;
},
{
glyphname = one;
lastChange = "2015-06-30 14:30:14 +0000";
layers = (
{
layerId = "284DCAF7-AB20-402F-AEDF-E1CEEB9773D4";
name = Regular;
paths = (
{
closed = 1;
nodes = (
"410 0 LINE",
"410 750 LINE",
"337 750 LINE",
"101 633 LINE",
"131 574 LINE",
"352 664 LINE",
"320 688 LINE",
"320 0 LINE"
);
}
);
width = 572;
},
{
layerId = "005AA5DB-9C20-42D5-964E-7DFE1013E61C";
name = Bold;
paths = (
{
closed = 1;
nodes = (
"529 0 LINE",
"529 740 LINE",
"362 740 LINE",
"69 592 LINE",
"115 469 LINE",
"377 569 LINE",
"345 569 LINE",
"345 0 LINE"
);
}
);
width = 646;
},
{
associatedMasterId = "D0F50BF8-B137-4291-8B58-E185C78D1B48";
layerId = "D3EC50DA-490D-4C50-99CC-6B1C78354A1C";
width = 600;
},
{
layerId = "D0F50BF8-B137-4291-8B58-E185C78D1B48";
name = Light;
paths = (
{
closed = 1;
nodes = (
"362 0 LINE",
"362 740 LINE",
"341 740 LINE",
"118 613 LINE",
"127 594 LINE",
"350 716 LINE",
"338 716 LINE",
"338 0 LINE"
);
}
);
width = 540;
}
);
leftKerningGroup = one;
rightKerningGroup = one;
unicode = 0031;
},
{
glyphname = two;
lastChange = "2015-06-30 14:30:14 +0000";
layers = (
{
layerId = "284DCAF7-AB20-402F-AEDF-E1CEEB9773D4";
name = Regular;
paths = (
{
closed = 1;
nodes = (
"497 0 LINE",
"507 74 LINE",
"163 75 LINE",
"169 49 LINE",
"315 237 LINE SMOOTH",
"463 428 OFFCURVE",
"496 481 OFFCURVE",
"496 571 CURVE SMOOTH",
"496 684 OFFCURVE",
"411 754 OFFCURVE",
"284 754 CURVE SMOOTH",
"209 754 OFFCURVE",
"140 725 OFFCURVE",
"86 677 CURVE",
"120 624 LINE",
"175 662 OFFCURVE",
"215 678 OFFCURVE",
"266 678 CURVE SMOOTH",
"344 678 OFFCURVE",
"398 641 OFFCURVE",
"398 565 CURVE SMOOTH",
"398 481 OFFCURVE",
"354 414 OFFCURVE",
"242 272 CURVE SMOOTH",
"58 39 LINE",
"58 0 LINE"
);
}
);
width = 572;
},
{
layerId = "005AA5DB-9C20-42D5-964E-7DFE1013E61C";
name = Bold;
paths = (
{
closed = 1;
nodes = (
"577 0 LINE",
"597 136 LINE",
"235 137 LINE",
"242 49 LINE",
"380 210 LINE SMOOTH",
"528 383 OFFCURVE",
"570 452 OFFCURVE",
"570 540 CURVE SMOOTH",
"570 670 OFFCURVE",
"478 754 OFFCURVE",
"327 754 CURVE SMOOTH",
"242 754 OFFCURVE",
"159 727 OFFCURVE",
"96 686 CURVE",
"121 567 LINE",
"175 600 OFFCURVE",
"224 614 OFFCURVE",
"271 614 CURVE SMOOTH",
"344 614 OFFCURVE",
"385 580 OFFCURVE",
"385 512 CURVE SMOOTH",
"385 449 OFFCURVE",
"350 395 OFFCURVE",
"257 288 CURVE SMOOTH",
"67 68 LINE",
"67 0 LINE"
);
}
);
width = 646;
},
{
layerId = "D0F50BF8-B137-4291-8B58-E185C78D1B48";
name = Light;
paths = (
{
closed = 1;
nodes = (
"472 0 LINE",
"477 23 LINE",
"85 24 LINE",
"96 19 LINE",
"341 360 LINE SMOOTH",
"414 461 OFFCURVE",
"448 528 OFFCURVE",
"448 595 CURVE SMOOTH",
"448 694 OFFCURVE",
"383 754 OFFCURVE",
"270 754 CURVE SMOOTH",
"209 754 OFFCURVE",
"153 731 OFFCURVE",
"110 698 CURVE",
"120 681 LINE",
"157 707 OFFCURVE",
"210 731 OFFCURVE",
"269 731 CURVE SMOOTH",
"354 731 OFFCURVE",
"422 689 OFFCURVE",
"422 595 CURVE SMOOTH",
"422 531 OFFCURVE",
"394 471 OFFCURVE",
"322 372 CURVE SMOOTH",
"61 11 LINE",
"61 0 LINE"
);
}
);
width = 540;
}
);
leftKerningGroup = two;
rightKerningGroup = two;
unicode = 0032;
},
{
glyphname = three;
lastChange = "2015-06-30 14:30:14 +0000";
layers = (
{
layerId = "284DCAF7-AB20-402F-AEDF-E1CEEB9773D4";
name = Regular;
paths = (
{
closed = 1;
nodes = (
"359 -14 OFFCURVE",
"504 65 OFFCURVE",
"504 229 CURVE SMOOTH",
"504 317 OFFCURVE",
"461 411 OFFCURVE",
"273 418 CURVE",
"321 396 LINE",
"431 415 OFFCURVE",
"495 488 OFFCURVE",
"495 582 CURVE SMOOTH",
"495 691 OFFCURVE",
"411 754 OFFCURVE",
"292 754 CURVE SMOOTH",
"219 754 OFFCURVE",
"159 733 OFFCURVE",
"106 694 CURVE",
"133 637 LINE",
"181 667 OFFCURVE",
"230 678 OFFCURVE",
"272 678 CURVE SMOOTH",
"343 678 OFFCURVE",
"398 647 OFFCURVE",
"398 569 CURVE SMOOTH",
"398 498 OFFCURVE",
"353 435 OFFCURVE",
"286 435 CURVE SMOOTH",
"172 435 LINE",
"172 361 LINE",
"265 361 LINE SMOOTH",
"359 361 OFFCURVE",
"406 309 OFFCURVE",
"406 225 CURVE SMOOTH",
"406 123 OFFCURVE",
"338 62 OFFCURVE",
"223 62 CURVE SMOOTH",
"176 62 OFFCURVE",
"125 72 OFFCURVE",
"84 96 CURVE",
"53 40 LINE",
"89 4 OFFCURVE",
"162 -14 OFFCURVE",
"226 -14 CURVE SMOOTH"
);
}
);
width = 572;
},
{
associatedMasterId = "284DCAF7-AB20-402F-AEDF-E1CEEB9773D4";
layerId = "7F998B42-ACDA-4D58-A3FC-0211FBD606E9";
name = "Regular Nov 21 13, 15:14";
paths = (
{
closed = 1;
nodes = (
"223 704 OFFCURVE",
"165 690 OFFCURVE",
"99 652 CURVE",
"113 575 LINE",
"168 617 OFFCURVE",
"207 632 OFFCURVE",
"262 632 CURVE SMOOTH",
"352 632 OFFCURVE",
"404 592 OFFCURVE",
"404 505 CURVE SMOOTH",
"404 431 OFFCURVE",
"367 386 OFFCURVE",
"303 360 CURVE",
"192 359 LINE",
"192 288 LINE",
"229 288 LINE SMOOTH",
"325 288 OFFCURVE",
"414 241 OFFCURVE",
"414 118 CURVE SMOOTH",
"414 72 OFFCURVE",
"400 38 OFFCURVE",
"371 2 CURVE",
"332 -20 OFFCURVE",
"291 -32 OFFCURVE",
"245 -32 CURVE SMOOTH",
"174 -32 OFFCURVE",
"126 -23 OFFCURVE",
"63 17 CURVE",
"48 -60 LINE",
"101 -94 OFFCURVE",
"159 -104 OFFCURVE",
"230 -104 CURVE SMOOTH",
"388 -104 OFFCURVE",
"512 -17 OFFCURVE",
"512 130 CURVE SMOOTH",
"512 234.244 OFFCURVE",
"439.148 304.411 OFFCURVE",
"352.437 331.496 CURVE",
"448.69 362.513 OFFCURVE",
"502 436.037 OFFCURVE",
"502 513 CURVE SMOOTH",
"502 628 OFFCURVE",
"426 704 OFFCURVE",
"294 704 CURVE SMOOTH"
);
}
);
width = 578;
},
{
layerId = "005AA5DB-9C20-42D5-964E-7DFE1013E61C";
name = Bold;
paths = (
{
closed = 1;
nodes = (
"452 -14 OFFCURVE",
"579 73 OFFCURVE",
"579 216 CURVE SMOOTH",
"579 313 OFFCURVE",
"520 399 OFFCURVE",
"355 399 CURVE",
"356 381 LINE",
"467 381 OFFCURVE",
"570 437 OFFCURVE",
"570 558 CURVE SMOOTH",
"570 673 OFFCURVE",
"478 754 OFFCURVE",
"321 754 CURVE SMOOTH",
"231 754 OFFCURVE",
"148 727 OFFCURVE",
"99 695 CURVE",
"122 577 LINE",
"167 602 OFFCURVE",
"230 614 OFFCURVE",
"277 614 CURVE SMOOTH",
"347 614 OFFCURVE",
"385 587 OFFCURVE",
"385 538 CURVE SMOOTH",
"385 491 OFFCURVE",
"349 458 OFFCURVE",
"292 456 CURVE SMOOTH",
"203 453 LINE",
"203 325 LINE",
"277 323 LINE SMOOTH",
"358 321 OFFCURVE",
"390 280 OFFCURVE",
"390 228 CURVE SMOOTH",
"390 167 OFFCURVE",
"344 126 OFFCURVE",
"247 126 CURVE SMOOTH",
"201 126 OFFCURVE",
"142 135 OFFCURVE",
"93 155 CURVE",
"67 30 LINE",
"110 2 OFFCURVE",
"186 -14 OFFCURVE",
"266 -14 CURVE SMOOTH"
);
}
);
width = 646;
},
{
layerId = "D0F50BF8-B137-4291-8B58-E185C78D1B48";
name = Light;
paths = (
{
closed = 1;
nodes = (
"352 -14 OFFCURVE",
"470 72 OFFCURVE",
"470 216 CURVE SMOOTH",
"470 292 OFFCURVE",
"429 397 OFFCURVE",
"286 407 CURVE",
"301 396 LINE",
"405 415 OFFCURVE",
"458 502 OFFCURVE",
"458 581 CURVE SMOOTH",
"458 693 OFFCURVE",
"375 754 OFFCURVE",
"280 754 CURVE SMOOTH",
"217 754 OFFCURVE",
"155 735 OFFCURVE",
"106 698 CURVE",
"117 681 LINE",
"169 716 OFFCURVE",
"218 731 OFFCURVE",
"275 731 CURVE SMOOTH",
"367 731 OFFCURVE",
"434 674 OFFCURVE",
"434 582 CURVE SMOOTH",
"434 492 OFFCURVE",
"366 409 OFFCURVE",
"259 409 CURVE SMOOTH",
"189 409 LINE",
"189 386 LINE",
"257 386 LINE SMOOTH",
"394 386 OFFCURVE",
"444 301 OFFCURVE",
"444 215 CURVE SMOOTH",
"444 82 OFFCURVE",
"341 9 OFFCURVE",
"222 9 CURVE SMOOTH",
"161 9 OFFCURVE",
"120 18 OFFCURVE",
"68 43 CURVE",
"61 22 LINE",
"112 -6 OFFCURVE",
"156 -14 OFFCURVE",
"218 -14 CURVE SMOOTH"
);
}
);
width = 540;
}
);
leftKerningGroup = three;
rightKerningGroup = three;
unicode = 0033;
},
{
glyphname = four;
lastChange = "2015-06-30 14:30:14 +0000";
layers = (
{
layerId = "284DCAF7-AB20-402F-AEDF-E1CEEB9773D4";
name = Regular;
paths = (
{
closed = 1;
nodes = (
"450 0 LINE",
"450 740 LINE",
"372 740 LINE",
"29 243 LINE",
"29 205 LINE",
"370 206 LINE",
"370 280 LINE",
"114 280 LINE",
"119 246 LINE",
"388 643 LINE",
"360 643 LINE",
"360 239 LINE",
"360 0 LINE"
);
},
{
closed = 1;
nodes = (
"539 206 LINE",
"549 280 LINE",
"440 280 LINE",
"440 206 LINE"
);
}
);
width = 572;
},
{
layerId = "005AA5DB-9C20-42D5-964E-7DFE1013E61C";
name = Bold;
paths = (
{
closed = 1;
nodes = (
"545 0 LINE",
"545 740 LINE",
"339 740 LINE",
"26 244 LINE",
"26 176 LINE",
"374 176 LINE",
"374 312 LINE",
"144 312 LINE",
"185 247 LINE",
"426 639 LINE",
"368 637 LINE",
"360 244 LINE",
"360 0 LINE"
);
},
{
closed = 1;
nodes = (
"620 176 LINE",
"630 312 LINE",
"535 312 LINE",
"535 176 LINE"
);
}
);
width = 646;
},
{
layerId = "D0F50BF8-B137-4291-8B58-E185C78D1B48";
name = Light;
paths = (
{
closed = 1;
nodes = (
"399 0 LINE",
"399 742 LINE",
"374 742 LINE",
"36 243 LINE",
"36 232 LINE",
"379 233 LINE",
"379 256 LINE",
"61 256 LINE",
"67 247 LINE",
"384 716 LINE",
"375 716 LINE",
"375 245 LINE",
"375 0 LINE"
);
},
{
closed = 1;
nodes = (
"502 233 LINE",
"507 256 LINE",
"395 256 LINE",
"395 233 LINE"
);
}
);
width = 540;
}
);
leftKerningGroup = four;
rightKerningGroup = four;
unicode = 0034;
},
{
glyphname = five;
lastChange = "2015-06-30 14:30:14 +0000";
layers = (
{
layerId = "284DCAF7-AB20-402F-AEDF-E1CEEB9773D4";
name = Regular;
paths = (
{
closed = 1;
nodes = (
"365 -14 OFFCURVE",
"502 62 OFFCURVE",
"502 226 CURVE SMOOTH",
"502 386 OFFCURVE",
"376 452 OFFCURVE",
"235 452 CURVE SMOOTH",
"159 452 LINE",
"195 412 LINE",
"223 666 LINE",
"484 666 LINE",
"494 740 LINE",
"151 740 LINE",
"112 397 LINE",
"134 377 LINE",
"207 377 LINE SMOOTH",
"336 377 OFFCURVE",
"405 324 OFFCURVE",
"404 214 CURVE SMOOTH",
"403 121 OFFCURVE",
"337 62 OFFCURVE",
"240 62 CURVE SMOOTH",
"181 62 OFFCURVE",
"135 74 OFFCURVE",
"92 98 CURVE",
"62 41 LINE",
"102 7 OFFCURVE",
"164 -14 OFFCURVE",
"239 -14 CURVE SMOOTH"
);
}
);
width = 572;
},
{
layerId = "005AA5DB-9C20-42D5-964E-7DFE1013E61C";
name = Bold;
paths = (
{
closed = 1;
nodes = (
"442 -14 OFFCURVE",
"580 75 OFFCURVE",
"580 243 CURVE SMOOTH",
"580 403 OFFCURVE",
"461 478 OFFCURVE",
"309 478 CURVE SMOOTH",
"206 478 LINE",
"271 387 LINE",
"307 604 LINE",
"557 604 LINE",
"575 740 LINE",
"158 740 LINE",
"99 381 LINE",
"137 342 LINE",
"231 342 LINE SMOOTH",
"341 342 OFFCURVE",
"396 300 OFFCURVE",
"396 232 CURVE SMOOTH",
"396 163 OFFCURVE",
"345 126 OFFCURVE",
"269 126 CURVE SMOOTH",
"209 126 OFFCURVE",
"160 134 OFFCURVE",
"95 162 CURVE",
"63 40 LINE",
"123 3 OFFCURVE",
"192 -14 OFFCURVE",
"277 -14 CURVE SMOOTH"
);
}
);
width = 646;
},
{
layerId = "D0F50BF8-B137-4291-8B58-E185C78D1B48";
name = Light;
paths = (
{
closed = 1;
nodes = (
"361 -14 OFFCURVE",
"463 84 OFFCURVE",
"463 217 CURVE SMOOTH",
"463 368 OFFCURVE",
"365 447 OFFCURVE",
"200 447 CURVE SMOOTH",
"136 447 LINE",
"144 434 LINE",
"178 719 LINE",
"457 719 LINE",
"462 742 LINE",
"158 742 LINE",
"121 431 LINE",
"129 424 LINE",
"196 424 LINE SMOOTH",
"367 424 OFFCURVE",
"437 340 OFFCURVE",
"437 217 CURVE SMOOTH",
"437 105 OFFCURVE",
"354 9 OFFCURVE",
"223 9 CURVE SMOOTH",
"170 9 OFFCURVE",
"131 16 OFFCURVE",
"78 39 CURVE",
"71 20 LINE",
"123 -7 OFFCURVE",
"169 -14 OFFCURVE",
"222 -14 CURVE SMOOTH"
);
}
);
width = 540;
}
);
leftKerningGroup = five;
rightKerningGroup = five;
unicode = 0035;
},
{
glyphname = six;
lastChange = "2015-06-30 14:30:14 +0000";
layers = (
{
layerId = "284DCAF7-AB20-402F-AEDF-E1CEEB9773D4";
name = Regular;
paths = (
{
closed = 1;
nodes = (
"422 -14 OFFCURVE",
"530 74 OFFCURVE",
"530 227 CURVE SMOOTH",
"530 359 OFFCURVE",
"446 453 OFFCURVE",
"312 453 CURVE SMOOTH",
"253 453 OFFCURVE",
"184 434 OFFCURVE",
"144 382 CURVE",
"151 381 LINE",
"156 552 OFFCURVE",
"229 678 OFFCURVE",
"376 678 CURVE SMOOTH",
"410 678 OFFCURVE",
"444 673 OFFCURVE",
"484 658 CURVE",
"511 714 LINE",
"481 739 OFFCURVE",
"428 754 OFFCURVE",
"363 754 CURVE SMOOTH",
"134 754 OFFCURVE",
"55 541 OFFCURVE",
"55 324 CURVE SMOOTH",
"55 77 OFFCURVE",
"159 -14 OFFCURVE",
"291 -14 CURVE SMOOTH"
);
},
{
closed = 1;
nodes = (
"212 62 OFFCURVE",
"149 154 OFFCURVE",
"149 284 CURVE SMOOTH",
"149 300 OFFCURVE",
"149 311 OFFCURVE",
"150 324 CURVE",
"188 364 OFFCURVE",
"243 377 OFFCURVE",
"292 377 CURVE SMOOTH",
"370 377 OFFCURVE",
"432 325 OFFCURVE",
"432 221 CURVE SMOOTH",
"432 126 OFFCURVE",
"382 62 OFFCURVE",
"300 62 CURVE SMOOTH"
);
}
);
width = 572;
},
{
layerId = "005AA5DB-9C20-42D5-964E-7DFE1013E61C";
name = Bold;
paths = (
{
closed = 1;
nodes = (
"479 -15 OFFCURVE",
"610 83 OFFCURVE",
"610 258 CURVE SMOOTH",
"610 400 OFFCURVE",
"522 499 OFFCURVE",
"388 499 CURVE SMOOTH",
"330 499 OFFCURVE",
"271 482 OFFCURVE",
"239 434 CURVE",
"246 399 LINE",
"246 505 OFFCURVE",
"282 613 OFFCURVE",
"419 613 CURVE SMOOTH",
"468 613 OFFCURVE",
"517 605 OFFCURVE",
"551 590 CURVE",
"581 707 LINE",
"541 738 OFFCURVE",
"476 754 OFFCURVE",
"405 754 CURVE SMOOTH",
"170 754 OFFCURVE",
"56 561 OFFCURVE",
"56 322 CURVE SMOOTH",
"56 80 OFFCURVE",
"171 -15 OFFCURVE",
"327 -15 CURVE SMOOTH"
);
},
{
closed = 1;
nodes = (
"279 126 OFFCURVE",
"240 182 OFFCURVE",
"240 279 CURVE SMOOTH",
"240 295 OFFCURVE",
"240 317 OFFCURVE",
"242 336 CURVE",
"264 352 OFFCURVE",
"301 358 OFFCURVE",
"327 358 CURVE SMOOTH",
"391 358 OFFCURVE",
"426 315 OFFCURVE",
"426 245 CURVE SMOOTH",
"426 173 OFFCURVE",
"390 126 OFFCURVE",
"336 126 CURVE SMOOTH"
);
}
);
width = 646;
},
{
layerId = "D0F50BF8-B137-4291-8B58-E185C78D1B48";
name = Light;
paths = (
{
closed = 1;
nodes = (
"407 -14 OFFCURVE",
"494 90 OFFCURVE",
"494 231 CURVE SMOOTH",
"494 366 OFFCURVE",
"402 457 OFFCURVE",
"284 457 CURVE SMOOTH",
"209 457 OFFCURVE",
"136 431 OFFCURVE",
"94 386 CURVE",
"97 381 LINE",
"106 559 OFFCURVE",
"173 731 OFFCURVE",
"347 731 CURVE SMOOTH",
"394 731 OFFCURVE",
"431 722 OFFCURVE",
"475 698 CURVE",
"483 716 LINE",
"449 740 OFFCURVE",
"400 754 OFFCURVE",
"347 754 CURVE SMOOTH",
"135 754 OFFCURVE",
"71 523 OFFCURVE",
"71 331 CURVE SMOOTH",
"71 90 OFFCURVE",
"154 -14 OFFCURVE",
"283 -14 CURVE SMOOTH"
);
},
{
closed = 1;
nodes = (
"173 9 OFFCURVE",
"95 99 OFFCURVE",
"95 331 CURVE SMOOTH",
"95 343 OFFCURVE",
"95 355 OFFCURVE",
"96 365 CURVE",
"139 405 OFFCURVE",
"201 434 OFFCURVE",
"279 434 CURVE SMOOTH",
"392 434 OFFCURVE",
"468 351 OFFCURVE",
"468 230 CURVE SMOOTH",
"468 86 OFFCURVE",
"379 9 OFFCURVE",
"284 9 CURVE SMOOTH"
);
}
);
width = 540;
}
);
leftKerningGroup = six;
rightKerningGroup = six;
unicode = 0036;
},
{
glyphname = seven;
lastChange = "2015-06-30 14:30:14 +0000";
layers = (
{
layerId = "284DCAF7-AB20-402F-AEDF-E1CEEB9773D4";
name = Regular;
paths = (
{
closed = 1;
nodes = (
"229 0 LINE",
"294 238 OFFCURVE",
"383 458 OFFCURVE",
"549 697 CURVE",
"549 740 LINE",
"77 740 LINE",
"67 666 LINE",
"491 666 LINE",
"461 695 LINE",
"303 479 OFFCURVE",
"216 262 OFFCURVE",
"133 0 CURVE"
);
}
);
width = 572;
},
{
associatedMasterId = "284DCAF7-AB20-402F-AEDF-E1CEEB9773D4";
layerId = "08B076DE-68EF-4539-8CD6-7EBB183FA574";
name = "UltraLight [100]";
paths = (
{
closed = 1;
nodes = (
"76 690 LINE",
"66 668 LINE",
"444.903 668 LINE",
"277.631 439.106 OFFCURVE",
"172.895 192.959 OFFCURVE",
"104 -59 CURVE",
"128 -64 LINE",
"203 220 OFFCURVE",
"308 436 OFFCURVE",
"474 673 CURVE",
"474 690 LINE"
);
}
);
width = 510;
},
{
layerId = "005AA5DB-9C20-42D5-964E-7DFE1013E61C";
name = Bold;
paths = (
{
closed = 1;
nodes = (
"328 0 LINE",
"363 252 OFFCURVE",
"452 461 OFFCURVE",
"628 675 CURVE",
"628 740 LINE",
"76 740 LINE",
"56 599 LINE",
"500 599 LINE",
"485 692 LINE",
"277 469 OFFCURVE",
"189 278 OFFCURVE",
"136 0 CURVE"
);
}
);
width = 646;
},
{
layerId = "D0F50BF8-B137-4291-8B58-E185C78D1B48";
name = Light;
paths = (
{
closed = 1;
nodes = (
"191 0 LINE",
"233 241 OFFCURVE",
"374 551 OFFCURVE",
"524 729 CURVE",
"524 740 LINE",
"72 740 LINE",
"67 717 LINE",
"487 717 LINE",
"488 721 LINE",
"336 522 OFFCURVE",
"227 288 OFFCURVE",
"165 0 CURVE"
);
}
);
width = 540;
}
);
leftKerningGroup = seven;
rightKerningGroup = seven;
unicode = 0037;
},
{
glyphname = eight;
lastChange = "2015-06-30 14:30:14 +0000";
layers = (
{
layerId = "284DCAF7-AB20-402F-AEDF-E1CEEB9773D4";
name = Regular;
paths = (
{
closed = 1;
nodes = (
"417 -14 OFFCURVE",
"520 71 OFFCURVE",
"520 189 CURVE SMOOTH",
"520 297 OFFCURVE",
"449 356 OFFCURVE",
"352 403 CURVE",
"222 445 OFFCURVE",
"186 509 OFFCURVE",
"186 567 CURVE SMOOTH",
"186 634 OFFCURVE",
"235 680 OFFCURVE",
"302 680 CURVE SMOOTH",
"372 680 OFFCURVE",
"412 629 OFFCURVE",
"412 563 CURVE SMOOTH",
"412 500 OFFCURVE",
"375 441 OFFCURVE",
"275 406 CURVE",
"342 375 LINE",
"445 413 OFFCURVE",
"507 482 OFFCURVE",
"507 573 CURVE SMOOTH",
"507 672 OFFCURVE",
"434 754 OFFCURVE",
"308 754 CURVE SMOOTH",
"183 754 OFFCURVE",
"92 673 OFFCURVE",
"92 562 CURVE SMOOTH",
"92 475 OFFCURVE",
"149 410 OFFCURVE",
"230 376 CURVE",
"387 302 OFFCURVE",
"426 258 OFFCURVE",
"426 186 CURVE SMOOTH",
"426 111 OFFCURVE",
"370 60 OFFCURVE",
"287 60 CURVE SMOOTH",
"199 60 OFFCURVE",
"147 114 OFFCURVE",
"147 203 CURVE SMOOTH",
"147 291 OFFCURVE",
"208 344 OFFCURVE",
"308 387 CURVE",
"258 413 LINE",
"134 378 OFFCURVE",
"53 300 OFFCURVE",
"53 187 CURVE SMOOTH",
"53 59 OFFCURVE",
"143 -14 OFFCURVE",
"276 -14 CURVE SMOOTH"
);
}
);
width = 572;
},
{
layerId = "005AA5DB-9C20-42D5-964E-7DFE1013E61C";
name = Bold;
paths = (
{
closed = 1;
nodes = (
"484 -15 OFFCURVE",
"596 83 OFFCURVE",
"596 214 CURVE SMOOTH",
"596 344 OFFCURVE",
"489 401 OFFCURVE",
"383 438 CURVE",
"307 460 OFFCURVE",
"265 497 OFFCURVE",
"265 546 CURVE SMOOTH",
"265 582 OFFCURVE",
"292 614 OFFCURVE",
"329 614 CURVE SMOOTH",
"372 614 OFFCURVE",
"400 583 OFFCURVE",
"400 538 CURVE SMOOTH",
"400 490 OFFCURVE",
"374 447 OFFCURVE",
"307 430 CURVE",
"403 388 LINE",
"501 402 OFFCURVE",
"577 460 OFFCURVE",
"577 566 CURVE SMOOTH",
"577 668 OFFCURVE",
"500 754 OFFCURVE",
"340 754 CURVE SMOOTH",
"176 754 OFFCURVE",
"86 661 OFFCURVE",
"86 546 CURVE SMOOTH",
"86 445 OFFCURVE",
"157 372 OFFCURVE",
"223 352 CURVE",
"380 283 OFFCURVE",
"412 249 OFFCURVE",
"412 202 CURVE SMOOTH",
"412 156 OFFCURVE",
"380 126 OFFCURVE",
"325 126 CURVE SMOOTH",
"270 126 OFFCURVE",
"234 168 OFFCURVE",
"234 221 CURVE SMOOTH",
"234 295 OFFCURVE",
"279 335 OFFCURVE",
"371 373 CURVE",
"261 390 LINE",
"143 381 OFFCURVE",
"50 318 OFFCURVE",
"50 197 CURVE SMOOTH",
"50 59 OFFCURVE",
"162 -15 OFFCURVE",
"317 -15 CURVE SMOOTH"
);
}
);
width = 646;
},
{
layerId = "D0F50BF8-B137-4291-8B58-E185C78D1B48";
name = Light;
paths = (
{
closed = 1;
nodes = (
"389 -14 OFFCURVE",
"485 64 OFFCURVE",
"485 183 CURVE SMOOTH",
"485 278 OFFCURVE",
"415 349 OFFCURVE",
"310 385 CURVE",
"180 430 OFFCURVE",
"121 484 OFFCURVE",
"121 578 CURVE SMOOTH",
"121 657 OFFCURVE",
"186 731 OFFCURVE",
"283 731 CURVE SMOOTH",
"386 731 OFFCURVE",
"443 656 OFFCURVE",
"443 577 CURVE SMOOTH",
"443 495 OFFCURVE",
"386 422 OFFCURVE",
"286 390 CURVE",
"314 381 LINE",
"414 419 OFFCURVE",
"468 495 OFFCURVE",
"468 577 CURVE SMOOTH",
"468 672 OFFCURVE",
"400 754 OFFCURVE",
"282 754 CURVE SMOOTH",
"173 754 OFFCURVE",
"96 668 OFFCURVE",
"96 578 CURVE SMOOTH",
"96 492 OFFCURVE",
"140 436 OFFCURVE",
"239 390 CURVE",
"388 339 OFFCURVE",
"459 281 OFFCURVE",
"459 183 CURVE SMOOTH",
"459 60 OFFCURVE",
"358 9 OFFCURVE",
"268 9 CURVE SMOOTH",
"173 9 OFFCURVE",
"82 64 OFFCURVE",
"82 186 CURVE SMOOTH",
"82 289 OFFCURVE",
"150 358 OFFCURVE",
"258 389 CURVE",
"230 398 LINE",
"130 371 OFFCURVE",
"56 288 OFFCURVE",
"56 185 CURVE SMOOTH",
"56 48 OFFCURVE",
"155 -14 OFFCURVE",
"268 -14 CURVE SMOOTH"
);
}
);
width = 540;
}
);
leftKerningGroup = eight;
rightKerningGroup = eight;
unicode = 0038;
},
{
export = 0;
glyphname = zero.osf;
lastChange = "2015-07-01 16:06:28 +0000";
layers = (
{
layerId = "D0F50BF8-B137-4291-8B58-E185C78D1B48";
name = Light;
paths = (
{
closed = 1;
nodes = (
"401 -14 OFFCURVE",
"456 98 OFFCURVE",
"456 258 CURVE SMOOTH",
"456 418 OFFCURVE",
"399 530 OFFCURVE",
"270 530 CURVE",
"270 507 LINE",
"378 507 OFFCURVE",
"430 415 OFFCURVE",
"430 258 CURVE SMOOTH",
"430 101 OFFCURVE",
"378 9 OFFCURVE",
"270 9 CURVE",
"270 -14 LINE"
);
},
{
closed = 1;
nodes = (
"270 9 LINE",
"162 9 OFFCURVE",
"110 101 OFFCURVE",
"110 258 CURVE SMOOTH",
"110 415 OFFCURVE",
"162 507 OFFCURVE",
"270 507 CURVE",
"270 530 LINE",
"141 530 OFFCURVE",
"84 418 OFFCURVE",
"84 258 CURVE SMOOTH",
"84 98 OFFCURVE",
"139 -14 OFFCURVE",
"270 -14 CURVE"
);
}
);
width = 540;
},
{
layerId = "284DCAF7-AB20-402F-AEDF-E1CEEB9773D4";
name = Regular;
paths = (
{
closed = 1;
nodes = (
"439 -14 OFFCURVE",
"505 104 OFFCURVE",
"505 260 CURVE SMOOTH",
"505 416 OFFCURVE",
"437 534 OFFCURVE",
"285 534 CURVE",
"285 460 LINE",
"376 460 OFFCURVE",
"411 371 OFFCURVE",
"411 260 CURVE SMOOTH",
"411 149 OFFCURVE",
"376 60 OFFCURVE",
"285 60 CURVE",
"285 -14 LINE"
);
},
{
closed = 1;
nodes = (
"285 60 LINE",
"194 60 OFFCURVE",
"159 149 OFFCURVE",
"159 260 CURVE SMOOTH",
"159 371 OFFCURVE",
"194 460 OFFCURVE",
"285 460 CURVE",
"285 534 LINE",
"133 534 OFFCURVE",
"65 416 OFFCURVE",
"65 260 CURVE SMOOTH",
"65 104 OFFCURVE",
"131 -14 OFFCURVE",
"285 -14 CURVE"
);
}
);
width = 570;
},
{
layerId = "005AA5DB-9C20-42D5-964E-7DFE1013E61C";
name = Bold;
paths = (
{
closed = 1;
nodes = (
"496 -14 OFFCURVE",
"582 106 OFFCURVE",
"582 262 CURVE SMOOTH",
"582 418 OFFCURVE",
"494 538 OFFCURVE",
"322 538 CURVE",
"322 398 LINE",
"369 398 OFFCURVE",
"398 363 OFFCURVE",
"398 262 CURVE SMOOTH",
"398 161 OFFCURVE",
"369 126 OFFCURVE",
"322 126 CURVE",
"322 -14 LINE"
);
},
{
closed = 1;
nodes = (
"322 126 LINE",
"275 126 OFFCURVE",
"246 161 OFFCURVE",
"246 262 CURVE SMOOTH",
"246 363 OFFCURVE",
"275 398 OFFCURVE",
"322 398 CURVE",
"322 538 LINE",
"150 538 OFFCURVE",
"62 418 OFFCURVE",
"62 262 CURVE SMOOTH",
"62 106 OFFCURVE",
"148 -14 OFFCURVE",
"322 -14 CURVE"
);
}
);
width = 645;
}
);
leftKerningGroup = zero.osf;
rightKerningGroup = zero.osf;
},
{
export = 0;
glyphname = one.osf;
lastChange = "2015-07-01 16:06:28 +0000";
layers = (
{
layerId = "D0F50BF8-B137-4291-8B58-E185C78D1B48";
name = Light;
paths = (
{
closed = 1;
nodes = (
"342 0 LINE",
"342 516 LINE",
"321 516 LINE",
"98 389 LINE",
"107 370 LINE",
"330 492 LINE",
"318 492 LINE",
"318 0 LINE"
);
}
);
width = 540;
},
{
layerId = "284DCAF7-AB20-402F-AEDF-E1CEEB9773D4";
name = Regular;
paths = (
{
closed = 1;
nodes = (
"415 0 LINE",
"415 520 LINE",
"342 520 LINE",
"106 403 LINE",
"136 344 LINE",
"357 434 LINE",
"325 458 LINE",
"325 0 LINE"
);
}
);
width = 570;
},
{
layerId = "005AA5DB-9C20-42D5-964E-7DFE1013E61C";
name = Bold;
paths = (
{
closed = 1;
nodes = (
"535 0 LINE",
"535 524 LINE",
"368 524 LINE",
"75 376 LINE",
"121 253 LINE",
"383 353 LINE",
"351 353 LINE",
"351 0 LINE"
);
}
);
width = 645;
}
);
leftKerningGroup = one.osf;
rightKerningGroup = one.osf;
},
{
export = 0;
glyphname = two.osf;
lastChange = "2015-07-01 16:06:28 +0000";
layers = (
{
layerId = "D0F50BF8-B137-4291-8B58-E185C78D1B48";
name = Light;
paths = (
{
closed = 1;
nodes = (
"440 0 LINE",
"445 23 LINE",
"103 24 LINE",
"116 19 LINE",
"254 146 LINE SMOOTH",
"366 249 OFFCURVE",
"413 316 OFFCURVE",
"413 386 CURVE SMOOTH",
"413 468 OFFCURVE",
"357 530 OFFCURVE",
"253 530 CURVE SMOOTH",
"188 530 OFFCURVE",
"136 505 OFFCURVE",
"96 474 CURVE",
"106 457 LINE",
"142 483 OFFCURVE",
"193 507 OFFCURVE",
"252 507 CURVE SMOOTH",
"332 507 OFFCURVE",
"387 462 OFFCURVE",
"387 385 CURVE SMOOTH",
"387 319 OFFCURVE",
"346 262 OFFCURVE",
"236 160 CURVE SMOOTH",
"75 11 LINE",
"75 0 LINE"
);
}
);
width = 540;
},
{
layerId = "284DCAF7-AB20-402F-AEDF-E1CEEB9773D4";
name = Regular;
paths = (
{
closed = 1;
nodes = (
"486 0 LINE",
"496 74 LINE",
"199 75 LINE",
"199 49 LINE",
"297 138 LINE SMOOTH",
"415 246 OFFCURVE",
"461 300 OFFCURVE",
"461 378 CURVE SMOOTH",
"461 467 OFFCURVE",
"394 534 OFFCURVE",
"284 534 CURVE SMOOTH",
"214 534 OFFCURVE",
"148 512 OFFCURVE",
"104 470 CURVE",
"128 407 LINE",
"170 440 OFFCURVE",
"218 459 OFFCURVE",
"269 459 CURVE SMOOTH",
"327 459 OFFCURVE",
"367 428 OFFCURVE",
"367 370 CURVE SMOOTH",
"367 319 OFFCURVE",
"335 273 OFFCURVE",
"251 193 CURVE SMOOTH",
"90 39 LINE",
"91 0 LINE"
);
}
);
width = 570;
},
{
layerId = "005AA5DB-9C20-42D5-964E-7DFE1013E61C";
name = Bold;
paths = (
{
closed = 1;
nodes = (
"573 0 LINE",
"583 136 LINE",
"249 137 LINE",
"246 57 LINE",
"324 109 LINE SMOOTH",
"488 218 OFFCURVE",
"526 277 OFFCURVE",
"526 366 CURVE SMOOTH",
"526 472 OFFCURVE",
"441 538 OFFCURVE",
"317 538 CURVE SMOOTH",
"226 538 OFFCURVE",
"146 514 OFFCURVE",
"85 463 CURVE",
"127 351 LINE",
"178 384 OFFCURVE",
"221 398 OFFCURVE",
"270 398 CURVE SMOOTH",
"315 398 OFFCURVE",
"342 369 OFFCURVE",
"342 330 CURVE SMOOTH",
"342 287 OFFCURVE",
"309 236 OFFCURVE",
"201 156 CURVE SMOOTH",
"83 68 LINE",
"83 0 LINE"
);
}
);
width = 645;
}
);
leftKerningGroup = two.osf;
rightKerningGroup = two.osf;
},
{
export = 0;
glyphname = three.osf;
lastChange = "2015-07-01 16:06:28 +0000";
layers = (
{
layerId = "D0F50BF8-B137-4291-8B58-E185C78D1B48";
name = Light;
paths = (
{
closed = 1;
nodes = (
"321 -220 OFFCURVE",
"443 -141 OFFCURVE",
"443 -1 CURVE SMOOTH",
"443 90 OFFCURVE",
"397 182 OFFCURVE",
"257 192 CURVE",
"272 178 LINE",
"374 198 OFFCURVE",
"433 271 OFFCURVE",
"433 359 CURVE SMOOTH",
"433 457 OFFCURVE",
"359 530 OFFCURVE",
"252 530 CURVE SMOOTH",
"197 530 OFFCURVE",
"136 511 OFFCURVE",
"88 474 CURVE",
"99 457 LINE",
"148 492 OFFCURVE",
"201 507 OFFCURVE",
"248 507 CURVE SMOOTH",
"344 507 OFFCURVE",
"409 447 OFFCURVE",
"409 358 CURVE SMOOTH",
"409 266 OFFCURVE",
"334 194 OFFCURVE",
"231 194 CURVE SMOOTH",
"163 194 LINE",
"163 171 LINE",
"230 171 LINE SMOOTH",
"365 171 OFFCURVE",
"419 94 OFFCURVE",
"419 0 CURVE SMOOTH",
"419 -123 OFFCURVE",
"318 -197 OFFCURVE",
"192 -197 CURVE SMOOTH",
"145 -197 OFFCURVE",
"90 -187 OFFCURVE",
"40 -160 CURVE",
"42 -184 LINE",
"83 -208 OFFCURVE",
"140 -220 OFFCURVE",
"191 -220 CURVE SMOOTH"
);
}
);
width = 540;
},
{
layerId = "284DCAF7-AB20-402F-AEDF-E1CEEB9773D4";
name = Regular;
paths = (
{
closed = 1;
nodes = (
"335 -220 OFFCURVE",
"479 -141 OFFCURVE",
"479 18 CURVE SMOOTH",
"479 117 OFFCURVE",
"423 199 OFFCURVE",
"248 205 CURVE",
"295 181 LINE",
"406 201 OFFCURVE",
"459 268 OFFCURVE",
"459 357 CURVE SMOOTH",
"459 469 OFFCURVE",
"374 534 OFFCURVE",
"255 534 CURVE SMOOTH",
"192 534 OFFCURVE",
"127 516 OFFCURVE",
"80 474 CURVE",
"98 411 LINE",
"139 442 OFFCURVE",
"183 458 OFFCURVE",
"236 458 CURVE SMOOTH",
"325 458 OFFCURVE",
"365 413 OFFCURVE",
"365 345 CURVE SMOOTH",
"365 276 OFFCURVE",
"323 220 OFFCURVE",
"260 220 CURVE SMOOTH",
"149 220 LINE",
"149 146 LINE",
"246 146 LINE SMOOTH",
"332 146 OFFCURVE",
"381 95 OFFCURVE",
"381 15 CURVE SMOOTH",
"381 -75 OFFCURVE",
"319 -144 OFFCURVE",
"177 -144 CURVE SMOOTH",
"132 -144 OFFCURVE",
"74 -137 OFFCURVE",
"33 -121 CURVE",
"40 -195 LINE",
"74 -212 OFFCURVE",
"119 -220 OFFCURVE",
"171 -220 CURVE SMOOTH"
);
}
);
width = 570;
},
{
layerId = "005AA5DB-9C20-42D5-964E-7DFE1013E61C";
name = Bold;
paths = (
{
closed = 1;
nodes = (
"448 -220 OFFCURVE",
"565 -119 OFFCURVE",
"565 16 CURVE SMOOTH",
"565 107 OFFCURVE",
"508 196 OFFCURVE",
"354 196 CURVE",
"361 172 LINE",
"454 172 OFFCURVE",
"557 248 OFFCURVE",
"557 347 CURVE SMOOTH",
"557 467 OFFCURVE",
"462 538 OFFCURVE",
"312 538 CURVE SMOOTH",
"225 538 OFFCURVE",
"140 508 OFFCURVE",
"92 475 CURVE",
"124 361 LINE",
"166 385 OFFCURVE",
"221 398 OFFCURVE",
"278 398 CURVE SMOOTH",
"338 398 OFFCURVE",
"373 361 OFFCURVE",
"373 317 CURVE SMOOTH",
"373 274 OFFCURVE",
"340 242 OFFCURVE",
"287 240 CURVE SMOOTH",
"205 237 LINE",
"205 109 LINE",
"272 107 LINE SMOOTH",
"348 105 OFFCURVE",
"377 68 OFFCURVE",
"377 13 CURVE SMOOTH",
"377 -38 OFFCURVE",
"331 -80 OFFCURVE",
"235 -80 CURVE SMOOTH",
"181 -80 OFFCURVE",
"129 -72 OFFCURVE",
"57 -34 CURVE",
"63 -173 LINE",
"115 -206 OFFCURVE",
"177 -220 OFFCURVE",
"249 -220 CURVE SMOOTH"
);
}
);
width = 645;
}
);
leftKerningGroup = three.osf;
rightKerningGroup = three.osf;
},
{
export = 0;
glyphname = four.osf;
lastChange = "2015-07-01 16:06:28 +0000";
layers = (
{
layerId = "D0F50BF8-B137-4291-8B58-E185C78D1B48";
name = Light;
paths = (
{
closed = 1;
nodes = (
"451 61 LINE",
"456 84 LINE",
"47 84 LINE",
"57 78 LINE",
"357 507 LINE",
"339 516 LINE",
"25 71 LINE",
"25 60 LINE"
);
},
{
closed = 1;
nodes = (
"363 -180 LINE",
"363 516 LINE",
"339 516 LINE",
"339 70 LINE",
"339 -186 LINE"
);
}
);
width = 540;
},
{
layerId = "284DCAF7-AB20-402F-AEDF-E1CEEB9773D4";
name = Regular;
paths = (
{
closed = 1;
nodes = (
"527 36 LINE",
"537 110 LINE",
"118 110 LINE",
"113 70 LINE",
"430 520 LINE",
"345 520 LINE",
"32 84 LINE",
"32 35 LINE"
);
},
{
closed = 1;
nodes = (
"440 -201 LINE",
"440 520 LINE",
"350 520 LINE",
"350 75 LINE",
"350 -213 LINE"
);
}
);
width = 570;
},
{
layerId = "005AA5DB-9C20-42D5-964E-7DFE1013E61C";
name = Bold;
paths = (
{
closed = 1;
nodes = (
"595 0 LINE",
"605 136 LINE",
"156 136 LINE",
"170 74 LINE",
"458 524 LINE",
"318 524 LINE",
"15 68 LINE",
"15 0 LINE"
);
},
{
closed = 1;
nodes = (
"526 -195 LINE",
"526 524 LINE",
"347 524 LINE",
"342 94 LINE",
"342 -215 LINE"
);
}
);
width = 645;
}
);
leftKerningGroup = four.osf;
rightKerningGroup = four.osf;
},
{
export = 0;
glyphname = five.osf;
lastChange = "2015-07-01 16:06:28 +0000";
layers = (
{
layerId = "D0F50BF8-B137-4291-8B58-E185C78D1B48";
name = Light;
paths = (
{
closed = 1;
nodes = (
"346 -220 OFFCURVE",
"447 -128 OFFCURVE",
"447 -7 CURVE SMOOTH",
"447 142 OFFCURVE",
"335 209 OFFCURVE",
"184 209 CURVE SMOOTH",
"122 209 LINE",
"130 196 LINE",
"170 493 LINE",
"431 493 LINE",
"436 516 LINE",
"150 516 LINE",
"107 193 LINE",
"115 186 LINE",
"180 186 LINE SMOOTH",
"335 186 OFFCURVE",
"421 116 OFFCURVE",
"421 -7 CURVE SMOOTH",
"421 -114 OFFCURVE",
"337 -197 OFFCURVE",
"206 -197 CURVE SMOOTH",
"155 -197 OFFCURVE",
"112 -186 OFFCURVE",
"61 -162 CURVE",
"63 -186 LINE",
"109 -211 OFFCURVE",
"153 -220 OFFCURVE",
"205 -220 CURVE SMOOTH"
);
}
);
width = 540;
},
{
layerId = "284DCAF7-AB20-402F-AEDF-E1CEEB9773D4";
name = Regular;
paths = (
{
closed = 1;
nodes = (
"363 -220 OFFCURVE",
"490 -136 OFFCURVE",
"490 17 CURVE SMOOTH",
"490 166 OFFCURVE",
"370 236 OFFCURVE",
"203 236 CURVE SMOOTH",
"145 236 LINE",
"180 196 LINE",
"213 446 LINE",
"461 446 LINE",
"471 520 LINE",
"136 520 LINE",
"93 191 LINE",
"120 161 LINE",
"195 160 LINE SMOOTH",
"326 158 OFFCURVE",
"392 103 OFFCURVE",
"392 9 CURVE SMOOTH",
"392 -81 OFFCURVE",
"326 -140 OFFCURVE",
"206 -140 CURVE SMOOTH",
"160 -140 OFFCURVE",
"105 -133 OFFCURVE",
"55 -113 CURVE",
"71 -195 LINE",
"110 -214 OFFCURVE",
"152 -220 OFFCURVE",
"200 -220 CURVE SMOOTH"
);
}
);
width = 570;
},
{
layerId = "005AA5DB-9C20-42D5-964E-7DFE1013E61C";
name = Bold;
paths = (
{
closed = 1;
nodes = (
"436 -220 OFFCURVE",
"569 -118 OFFCURVE",
"569 30 CURVE SMOOTH",
"569 184 OFFCURVE",
"455 266 OFFCURVE",
"307 266 CURVE SMOOTH",
"206 266 LINE",
"270 175 LINE",
"306 388 LINE",
"546 388 LINE",
"564 524 LINE",
"157 524 LINE",
"98 169 LINE",
"136 130 LINE",
"228 131 LINE SMOOTH",
"333 132 OFFCURVE",
"385 88 OFFCURVE",
"385 20 CURVE SMOOTH",
"385 -38 OFFCURVE",
"337 -80 OFFCURVE",
"257 -80 CURVE SMOOTH",
"193 -80 OFFCURVE",
"121 -64 OFFCURVE",
"68 -36 CURVE",
"74 -175 LINE",
"123 -206 OFFCURVE",
"183 -220 OFFCURVE",
"263 -220 CURVE SMOOTH"
);
}
);
width = 645;
}
);
leftKerningGroup = five.osf;
rightKerningGroup = five.osf;
},
{
export = 0;
glyphname = six.osf;
lastChange = "2015-07-01 16:06:28 +0000";
layers = (
{
layerId = "D0F50BF8-B137-4291-8B58-E185C78D1B48";
name = Light;
paths = (
{
closed = 1;
nodes = (
"386 -14 OFFCURVE",
"477 92 OFFCURVE",
"477 224 CURVE SMOOTH",
"477 346 OFFCURVE",
"392 442 OFFCURVE",
"267 442 CURVE SMOOTH",
"184 442 OFFCURVE",
"95 397 OFFCURVE",
"64 307 CURVE",
"68 298 LINE",
"86 497 OFFCURVE",
"232 702 OFFCURVE",
"515 734 CURVE",
"503 754 LINE",
"232 722 OFFCURVE",
"42 516 OFFCURVE",
"42 250 CURVE SMOOTH",
"42 80 OFFCURVE",
"123 -14 OFFCURVE",
"255 -14 CURVE SMOOTH"
);
},
{
closed = 1;
nodes = (
"172 9 OFFCURVE",
"67 64 OFFCURVE",
"67 246 CURVE SMOOTH",
"67 257 OFFCURVE",
"68 277 OFFCURVE",
"70 289 CURVE",
"109 373 OFFCURVE",
"179 419 OFFCURVE",
"263 419 CURVE SMOOTH",
"381 419 OFFCURVE",
"451 329 OFFCURVE",
"451 222 CURVE SMOOTH",
"451 94 OFFCURVE",
"362 9 OFFCURVE",
"257 9 CURVE SMOOTH"
);
}
);
width = 540;
},
{
layerId = "284DCAF7-AB20-402F-AEDF-E1CEEB9773D4";
name = Regular;
paths = (
{
closed = 1;
nodes = (
"408 -14 OFFCURVE",
"509 84 OFFCURVE",
"509 224 CURVE SMOOTH",
"509 350 OFFCURVE",
"427 448 OFFCURVE",
"292 448 CURVE SMOOTH",
"231 448 OFFCURVE",
"168 419 OFFCURVE",
"134 353 CURVE",
"140 336 LINE",
"166 544 OFFCURVE",
"305 653 OFFCURVE",
"508 682 CURVE",
"480 754 LINE",
"196 712 OFFCURVE",
"41 503 OFFCURVE",
"41 270 CURVE SMOOTH",
"41 88 OFFCURVE",
"135 -14 OFFCURVE",
"272 -14 CURVE SMOOTH"
);
},
{
closed = 1;
nodes = (
"188 66 OFFCURVE",
"135 139 OFFCURVE",
"135 256 CURVE SMOOTH",
"135 277 OFFCURVE",
"135 288 OFFCURVE",
"138 311 CURVE",
"173 348 OFFCURVE",
"223 368 OFFCURVE",
"268 368 CURVE SMOOTH",
"356 368 OFFCURVE",
"415 325 OFFCURVE",
"415 210 CURVE SMOOTH",
"415 125 OFFCURVE",
"357 66 OFFCURVE",
"282 66 CURVE SMOOTH"
);
}
);
width = 570;
},
{
layerId = "005AA5DB-9C20-42D5-964E-7DFE1013E61C";
name = Bold;
paths = (
{
closed = 1;
nodes = (
"466 -14 OFFCURVE",
"594 82 OFFCURVE",
"594 244 CURVE SMOOTH",
"594 372 OFFCURVE",
"506 473 OFFCURVE",
"373 473 CURVE SMOOTH",
"315 473 OFFCURVE",
"256 458 OFFCURVE",
"224 413 CURVE",
"231 376 LINE",
"231 467 OFFCURVE",
"392 594 OFFCURVE",
"593 614 CURVE",
"559 754 LINE",
"314 728 OFFCURVE",
"41 578 OFFCURVE",
"41 277 CURVE SMOOTH",
"41 78 OFFCURVE",
"156 -14 OFFCURVE",
"311 -14 CURVE SMOOTH"
);
},
{
closed = 1;
nodes = (
"266 126 OFFCURVE",
"225 172 OFFCURVE",
"225 261 CURVE SMOOTH",
"225 276 OFFCURVE",
"225 291 OFFCURVE",
"228 316 CURVE",
"250 328 OFFCURVE",
"286 333 OFFCURVE",
"311 333 CURVE SMOOTH",
"375 333 OFFCURVE",
"410 293 OFFCURVE",
"410 231 CURVE SMOOTH",
"410 168 OFFCURVE",
"376 126 OFFCURVE",
"322 126 CURVE SMOOTH"
);
}
);
width = 645;
}
);
leftKerningGroup = six.osf;
rightKerningGroup = six.osf;
},
{
export = 0;
glyphname = seven.osf;
lastChange = "2015-07-01 16:06:28 +0000";
layers = (
{
layerId = "D0F50BF8-B137-4291-8B58-E185C78D1B48";
name = Light;
paths = (
{
closed = 1;
nodes = (
"108 -206 LINE",
"158 35 OFFCURVE",
"313 337 OFFCURVE",
"478 505 CURVE",
"478 516 LINE",
"56 516 LINE",
"51 493 LINE",
"438 493 LINE",
"438 497 LINE",
"271 298 OFFCURVE",
"149 76 OFFCURVE",
"81 -212 CURVE"
);
}
);
width = 540;
},
{
layerId = "284DCAF7-AB20-402F-AEDF-E1CEEB9773D4";
name = Regular;
paths = (
{
closed = 1;
nodes = (
"196 -204 LINE",
"231 34 OFFCURVE",
"341 240 OFFCURVE",
"517 477 CURVE",
"517 520 LINE",
"54 520 LINE",
"44 446 LINE",
"459 446 LINE",
"434 475 LINE",
"256 261 OFFCURVE",
"143 58 OFFCURVE",
"90 -214 CURVE"
);
}
);
width = 570;
},
{
layerId = "005AA5DB-9C20-42D5-964E-7DFE1013E61C";
name = Bold;
paths = (
{
closed = 1;
nodes = (
"293 -196 LINE",
"328 34 OFFCURVE",
"437 263 OFFCURVE",
"613 460 CURVE",
"613 523 LINE",
"79 523 LINE",
"61 383 LINE",
"485 383 LINE",
"470 478 LINE",
"262 268 OFFCURVE",
"154 36 OFFCURVE",
"101 -216 CURVE"
);
}
);
width = 645;
}
);
leftKerningGroup = seven.osf;
rightKerningGroup = seven.osf;
},
{
export = 0;
glyphname = eight.osf;
lastChange = "2015-07-01 16:06:28 +0000";
layers = (
{
layerId = "D0F50BF8-B137-4291-8B58-E185C78D1B48";
name = Light;
paths = (
{
closed = 1;
nodes = (
"379 -14 OFFCURVE",
"482 70 OFFCURVE",
"482 183 CURVE SMOOTH",
"482 293 OFFCURVE",
"393 369 OFFCURVE",
"298 401 CURVE",
"170 435 OFFCURVE",
"113 505 OFFCURVE",
"113 585 CURVE SMOOTH",
"113 668 OFFCURVE",
"182 731 OFFCURVE",
"271 731 CURVE SMOOTH",
"367 731 OFFCURVE",
"426 661 OFFCURVE",
"426 584 CURVE SMOOTH",
"426 502 OFFCURVE",
"360 433 OFFCURVE",
"272 404 CURVE",
"297 392 LINE",
"390 430 OFFCURVE",
"450 502 OFFCURVE",
"450 584 CURVE SMOOTH",
"450 673 OFFCURVE",
"381 754 OFFCURVE",
"271 754 CURVE SMOOTH",
"169 754 OFFCURVE",
"89 678 OFFCURVE",
"89 584 CURVE SMOOTH",
"89 509 OFFCURVE",
"133 441 OFFCURVE",
"225 403 CURVE",
"365 362 OFFCURVE",
"456 289 OFFCURVE",
"456 184 CURVE SMOOTH",
"456 76 OFFCURVE",
"360 9 OFFCURVE",
"258 9 CURVE SMOOTH",
"152 9 OFFCURVE",
"58 80 OFFCURVE",
"58 189 CURVE SMOOTH",
"58 309 OFFCURVE",
"161 374 OFFCURVE",
"246 403 CURVE",
"220 412 LINE",
"125 386 OFFCURVE",
"32 301 OFFCURVE",
"32 188 CURVE SMOOTH",
"32 57 OFFCURVE",
"140 -14 OFFCURVE",
"258 -14 CURVE SMOOTH"
);
}
);
width = 540;
},
{
layerId = "284DCAF7-AB20-402F-AEDF-E1CEEB9773D4";
name = Regular;
paths = (
{
closed = 1;
nodes = (
"418 -14 OFFCURVE",
"530 66 OFFCURVE",
"530 192 CURVE SMOOTH",
"530 299 OFFCURVE",
"445 375 OFFCURVE",
"348 410 CURVE",
"219 452 OFFCURVE",
"182 503 OFFCURVE",
"182 573 CURVE SMOOTH",
"182 637 OFFCURVE",
"231 680 OFFCURVE",
"292 680 CURVE SMOOTH",
"366 680 OFFCURVE",
"411 630 OFFCURVE",
"411 565 CURVE SMOOTH",
"411 487 OFFCURVE",
"365 433 OFFCURVE",
"281 413 CURVE",
"339 382 LINE",
"431 406 OFFCURVE",
"505 474 OFFCURVE",
"505 569 CURVE SMOOTH",
"505 666 OFFCURVE",
"435 754 OFFCURVE",
"296 754 CURVE SMOOTH",
"176 754 OFFCURVE",
"88 669 OFFCURVE",
"88 569 CURVE SMOOTH",
"88 478 OFFCURVE",
"141 422 OFFCURVE",
"227 383 CURVE",
"359 331 OFFCURVE",
"436 274 OFFCURVE",
"436 187 CURVE SMOOTH",
"436 109 OFFCURVE",
"370 60 OFFCURVE",
"287 60 CURVE SMOOTH",
"204 60 OFFCURVE",
"134 120 OFFCURVE",
"134 209 CURVE SMOOTH",
"134 309 OFFCURVE",
"201 356 OFFCURVE",
"305 394 CURVE",
"254 420 LINE",
"137 394 OFFCURVE",
"40 315 OFFCURVE",
"40 194 CURVE SMOOTH",
"40 56 OFFCURVE",
"151 -14 OFFCURVE",
"281 -14 CURVE SMOOTH"
);
}
);
width = 570;
},
{
layerId = "005AA5DB-9C20-42D5-964E-7DFE1013E61C";
name = Bold;
paths = (
{
closed = 1;
nodes = (
"485 -14 OFFCURVE",
"605 79 OFFCURVE",
"605 204 CURVE SMOOTH",
"605 334 OFFCURVE",
"510 402 OFFCURVE",
"380 443 CURVE",
"302 468 OFFCURVE",
"267 510 OFFCURVE",
"267 555 CURVE SMOOTH",
"267 584 OFFCURVE",
"290 615 OFFCURVE",
"327 615 CURVE SMOOTH",
"370 615 OFFCURVE",
"394 583 OFFCURVE",
"394 540 CURVE SMOOTH",
"394 498 OFFCURVE",
"350 451 OFFCURVE",
"284 436 CURVE",
"381 388 LINE",
"477 399 OFFCURVE",
"574 464 OFFCURVE",
"574 565 CURVE SMOOTH",
"574 663 OFFCURVE",
"497 754 OFFCURVE",
"335 754 CURVE SMOOTH",
"183 754 OFFCURVE",
"87 659 OFFCURVE",
"87 559 CURVE SMOOTH",
"87 463 OFFCURVE",
"162 398 OFFCURVE",
"231 375 CURVE",
"384 306 OFFCURVE",
"421 252 OFFCURVE",
"421 207 CURVE SMOOTH",
"421 158 OFFCURVE",
"386 126 OFFCURVE",
"325 126 CURVE SMOOTH",
"270 126 OFFCURVE",
"223 164 OFFCURVE",
"223 226 CURVE SMOOTH",
"223 322 OFFCURVE",
"299 343 OFFCURVE",
"389 378 CURVE",
"279 402 LINE",
"162 396 OFFCURVE",
"39 336 OFFCURVE",
"39 200 CURVE SMOOTH",
"39 56 OFFCURVE",
"163 -14 OFFCURVE",
"320 -14 CURVE SMOOTH"
);
}
);
width = 645;
}
);
leftKerningGroup = eight.osf;
rightKerningGroup = eight.osf;
},
{
glyphname = fraction;
lastChange = "2015-06-30 14:30:14 +0000";
layers = (
{
layerId = "284DCAF7-AB20-402F-AEDF-E1CEEB9773D4";
name = Regular;
paths = (
{
closed = 1;
nodes = (
"31 -30 LINE",
"684 750 LINE",
"593 750 LINE",
"-60 -30 LINE"
);
}
);
width = 624;
},
{
layerId = "005AA5DB-9C20-42D5-964E-7DFE1013E61C";
name = Bold;
paths = (
{
closed = 1;
nodes = (
"86 -30 LINE",
"739 750 LINE",
"593 750 LINE",
"-60 -30 LINE"
);
}
);
width = 679;
},
{
associatedMasterId = "D0F50BF8-B137-4291-8B58-E185C78D1B48";
layerId = "D3EC50DA-490D-4C50-99CC-6B1C78354A1C";
width = 600;
},
{
layerId = "D0F50BF8-B137-4291-8B58-E185C78D1B48";
name = Light;
paths = (
{
closed = 1;
nodes = (
"-29 -30 LINE",
"624 750 LINE",
"593 750 LINE",
"-60 -30 LINE"
);
}
);
width = 564;
}
);
leftKerningGroup = fraction;
rightKerningGroup = fraction;
unicode = 2044;
},
{
glyphname = asterisk;
lastChange = "2015-06-30 14:30:14 +0000";
layers = (
{
layerId = "284DCAF7-AB20-402F-AEDF-E1CEEB9773D4";
name = Regular;
paths = (
{
closed = 1;
nodes = (
"280 228 LINE",
"377 73 LINE",
"438 118 LINE",
"326 254 LINE",
"483 294 LINE",
"460 365 LINE",
"307 302 LINE",
"317 481 LINE",
"243 481 LINE",
"253 302 LINE",
"100 365 LINE",
"77 294 LINE",
"234 254 LINE",
"122 118 LINE",
"183 73 LINE"
);
}
);
width = 560;
},
{
layerId = "005AA5DB-9C20-42D5-964E-7DFE1013E61C";
name = Bold;
paths = (
{
closed = 1;
nodes = (
"271 229 LINE",
"347 101 LINE",
"439 168 LINE",
"340 279 LINE",
"486 312 LINE",
"451 419 LINE",
"314 361 LINE",
"328 509 LINE",
"214 509 LINE",
"228 361 LINE",
"91 419 LINE",
"56 312 LINE",
"202 279 LINE",
"103 168 LINE",
"195 101 LINE"
);
}
);
width = 542;
},
{
associatedMasterId = "D0F50BF8-B137-4291-8B58-E185C78D1B48";
layerId = "D3EC50DA-490D-4C50-99CC-6B1C78354A1C";
width = 600;
},
{
layerId = "D0F50BF8-B137-4291-8B58-E185C78D1B48";
name = Light;
paths = (
{
closed = 1;
nodes = (
"280 250 LINE",
"387 98 LINE",
"408 113 LINE",
"296 261 LINE",
"474 316 LINE",
"466 341 LINE",
"290 280 LINE",
"293 467 LINE",
"267 467 LINE",
"270 280 LINE",
"94 341 LINE",
"86 316 LINE",
"264 261 LINE",
"152 113 LINE",
"173 98 LINE"
);
}
);
width = 540;
}
);
leftKerningGroup = asterisk;
rightKerningGroup = asterisk;
unicode = 002A;
},
{
glyphname = bullet;
lastChange = "2015-06-30 14:30:14 +0000";
layers = (
{
layerId = "284DCAF7-AB20-402F-AEDF-E1CEEB9773D4";
name = Regular;
paths = (
{
closed = 1;
nodes = (
"114 220 OFFCURVE",
"182 220 OFFCURVE",
"216 228 CURVE",
"216 383 LINE",
"182 391 OFFCURVE",
"114 391 OFFCURVE",
"80 383 CURVE",
"80 228 LINE"
);
}
);
width = 296;
},
{
layerId = "005AA5DB-9C20-42D5-964E-7DFE1013E61C";
name = Bold;
paths = (
{
closed = 1;
nodes = (
"114 257 OFFCURVE",
"230 257 OFFCURVE",
"282 268 CURVE",
"282 472 LINE",
"230 483 OFFCURVE",
"114 483 OFFCURVE",
"62 472 CURVE",
"62 268 LINE"
);
}
);
width = 344;
},
{
associatedMasterId = "D0F50BF8-B137-4291-8B58-E185C78D1B48";
layerId = "D3EC50DA-490D-4C50-99CC-6B1C78354A1C";
width = 600;
},
{
layerId = "D0F50BF8-B137-4291-8B58-E185C78D1B48";
name = Light;
paths = (
{
closed = 1;
nodes = (
"101 215 OFFCURVE",
"113 215 OFFCURVE",
"124 218 CURVE",
"124 393 LINE",
"113 396 OFFCURVE",
"101 396 OFFCURVE",
"90 393 CURVE",
"90 218 LINE"
);
}
);
width = 214;
}
);
leftKerningGroup = period;
rightKerningGroup = period;
unicode = 2022;
},
{
glyphname = comma;
lastChange = "2015-06-30 14:30:14 +0000";
layers = (
{
layerId = "284DCAF7-AB20-402F-AEDF-E1CEEB9773D4";
name = Regular;
paths = (
{
closed = 1;
nodes = (
"67 -164 LINE",
"134 -89 OFFCURVE",
"174 -3 OFFCURVE",
"168 115 CURVE",
"144 116 OFFCURVE",
"100 110 OFFCURVE",
"78 101 CURVE",
"80 -6 OFFCURVE",
"53 -84 OFFCURVE",
"-2 -164 CURVE"
);
}
);
width = 304;
},
{
layerId = "005AA5DB-9C20-42D5-964E-7DFE1013E61C";
name = Bold;
paths = (
{
closed = 1;
nodes = (
"126 -206 LINE",
"203 -113 OFFCURVE",
"253 -2 OFFCURVE",
"244 164 CURVE",
"207 165 OFFCURVE",
"105 150 OFFCURVE",
"66 134 CURVE",
"77 31 OFFCURVE",
"63 -72 OFFCURVE",
"-9 -206 CURVE"
);
}
);
width = 339;
},
{
layerId = "D0F50BF8-B137-4291-8B58-E185C78D1B48";
name = Light;
paths = (
{
closed = 1;
nodes = (
"35 -165 LINE",
"99 -58 OFFCURVE",
"117 11 OFFCURVE",
"102 115 CURVE",
"95 115 OFFCURVE",
"84 111 OFFCURVE",
"78 106 CURVE",
"95 10 OFFCURVE",
"72 -62 OFFCURVE",
"12 -165 CURVE"
);
}
);
width = 156;
}
);
leftKerningGroup = period;
rightKerningGroup = period;
unicode = 002C;
},
{
glyphname = exclam;
lastChange = "2015-07-04 01:36:33 +0000";
layers = (
{
components = (
{
name = period;
transform = "{1, 0, 0, 1, 5, 0}";
}
);
layerId = "284DCAF7-AB20-402F-AEDF-E1CEEB9773D4";
name = Regular;
paths = (
{
closed = 1;
nodes = (
"174 210 LINE",
"186 740 LINE",
"80 740 LINE",
"92 210 LINE"
);
}
);
width = 266;
},
{
components = (
{
name = period;
transform = "{1, 0, 0, 1, -14, 0}";
}
);
layerId = "005AA5DB-9C20-42D5-964E-7DFE1013E61C";
name = Bold;
paths = (
{
closed = 1;
nodes = (
"217 250 LINE",
"227 740 LINE",
"45 740 LINE",
"55 250 LINE"
);
}
);
width = 272;
},
{
associatedMasterId = "D0F50BF8-B137-4291-8B58-E185C78D1B48";
layerId = "D3EC50DA-490D-4C50-99CC-6B1C78354A1C";
width = 600;
},
{
components = (
{
name = period;
transform = "{1, 0, 0, 1, 41, 0}";
}
);
layerId = "D0F50BF8-B137-4291-8B58-E185C78D1B48";
name = Light;
paths = (
{
closed = 1;
nodes = (
"123 210 LINE",
"126 740 LINE",
"100 740 LINE",
"103 210 LINE"
);
}
);
width = 226;
}
);
leftKerningGroup = exclam;
rightKerningGroup = exclam;
unicode = 0021;
},
{
glyphname = numbersign;
lastChange = "2015-06-30 14:30:14 +0000";
layers = (
{
layerId = "284DCAF7-AB20-402F-AEDF-E1CEEB9773D4";
name = Regular;
paths = (
{
closed = 1;
nodes = (
"326 0 LINE",
"469 690 LINE",
"398 690 LINE",
"340 411 LINE",
"337 395 LINE",
"315 288 LINE",
"312 274 LINE",
"255 0 LINE"
);
},
{
closed = 1;
nodes = (
"479 239 LINE",
"479 301 LINE",
"68 301 LINE",
"68 239 LINE"
);
},
{
closed = 1;
nodes = (
"167 0 LINE",
"226 282 LINE",
"229 296 LINE",
"251 405 LINE",
"254 418 LINE",
"310 690 LINE",
"239 690 LINE",
"96 0 LINE"
);
},
{
closed = 1;
nodes = (
"504 389 LINE",
"504 451 LINE",
"93 451 LINE",
"93 389 LINE"
);
}
);
width = 572;
},
{
layerId = "005AA5DB-9C20-42D5-964E-7DFE1013E61C";
name = Bold;
paths = (
{
closed = 1;
nodes = (
"388 0 LINE",
"531 690 LINE",
"417 690 LINE",
"362 424 LINE",
"364 404 LINE",
"335 266 LINE",
"323 238 LINE",
"274 0 LINE"
);
},
{
closed = 1;
nodes = (
"541 198 LINE",
"541 302 LINE",
"81 302 LINE",
"81 198 LINE"
);
},
{
closed = 1;
nodes = (
"223 0 LINE",
"273 240 LINE",
"274 272 LINE",
"303 414 LINE",
"312 429 LINE",
"366 690 LINE",
"252 690 LINE",
"109 0 LINE"
);
},
{
closed = 1;
nodes = (
"566 388 LINE",
"566 492 LINE",
"106 492 LINE",
"106 388 LINE"
);
}
);
width = 646;
},
{
associatedMasterId = "D0F50BF8-B137-4291-8B58-E185C78D1B48";
layerId = "D3EC50DA-490D-4C50-99CC-6B1C78354A1C";
width = 600;
},
{
layerId = "D0F50BF8-B137-4291-8B58-E185C78D1B48";
name = Light;
paths = (
{
closed = 1;
nodes = (
"276 0 LINE",
"419 690 LINE",
"396 690 LINE",
"340 420 LINE",
"339 413 LINE",
"309 274 LINE",
"308 268 LINE",
"253 0 LINE"
);
},
{
closed = 1;
nodes = (
"439 260 LINE",
"439 282 LINE",
"76 282 LINE",
"76 260 LINE"
);
},
{
closed = 1;
nodes = (
"137 0 LINE",
"193 272 LINE",
"194 278 LINE",
"223 414 LINE",
"224 419 LINE",
"280 690 LINE",
"257 690 LINE",
"114 0 LINE"
);
},
{
closed = 1;
nodes = (
"464 409 LINE",
"464 431 LINE",
"101 431 LINE",
"101 409 LINE"
);
}
);
width = 540;
}
);
leftKerningGroup = numbersign;
rightKerningGroup = numbersign;
unicode = 0023;
},
{
glyphname = period;
lastChange = "2015-06-30 14:30:14 +0000";
layers = (
{
layerId = "284DCAF7-AB20-402F-AEDF-E1CEEB9773D4";
name = Regular;
paths = (
{
closed = 1;
nodes = (
"104 -6 OFFCURVE",
"152 -6 OFFCURVE",
"176 0 CURVE",
"176 115 LINE",
"152 121 OFFCURVE",
"104 121 OFFCURVE",
"80 115 CURVE",
"80 0 LINE"
);
}
);
width = 304;
},
{
layerId = "005AA5DB-9C20-42D5-964E-7DFE1013E61C";
name = Bold;
paths = (
{
closed = 1;
nodes = (
"102 -7 OFFCURVE",
"198 -7 OFFCURVE",
"240 0 CURVE",
"240 164 LINE",
"198 171 OFFCURVE",
"102 171 OFFCURVE",
"60 164 CURVE",
"60 0 LINE"
);
}
);
width = 339;
},
{
associatedMasterId = "D0F50BF8-B137-4291-8B58-E185C78D1B48";
layerId = "D3EC50DA-490D-4C50-99CC-6B1C78354A1C";
width = 600;
},
{
layerId = "D0F50BF8-B137-4291-8B58-E185C78D1B48";
name = Light;
paths = (
{
closed = 1;
nodes = (
"66 -2 OFFCURVE",
"78 -2 OFFCURVE",
"84 0 CURVE",
"84 115 LINE",
"78 117 OFFCURVE",
"66 117 OFFCURVE",
"60 115 CURVE",
"60 0 LINE"
);
}
);
width = 162;
}
);
leftKerningGroup = period;
rightKerningGroup = period;
unicode = 002E;
},
{
glyphname = question;
lastChange = "2015-07-04 01:37:00 +0000";
layers = (
{
components = (
{
name = period;
transform = "{1, 0, 0, 1, 78, 0}";
}
);
layerId = "284DCAF7-AB20-402F-AEDF-E1CEEB9773D4";
name = Regular;
paths = (
{
closed = 1;
nodes = (
"250 210 LINE",
"250 375 LINE",
"221 312 LINE",
"350 332 OFFCURVE",
"444 426 OFFCURVE",
"444 544 CURVE SMOOTH",
"444 679 OFFCURVE",
"351 754 OFFCURVE",
"219 754 CURVE SMOOTH",
"148 754 OFFCURVE",
"73 726 OFFCURVE",
"20 678 CURVE",
"57 618 LINE",
"99 656 OFFCURVE",
"153 678 OFFCURVE",
"208 678 CURVE SMOOTH",
"281 678 OFFCURVE",
"350 638 OFFCURVE",
"350 540 CURVE SMOOTH",
"350 425 OFFCURVE",
"255 376 OFFCURVE",
"162 369 CURVE",
"162 210 LINE"
);
}
);
width = 477;
},
{
components = (
{
name = period;
transform = "{1, 0, 0, 1, 78, 0}";
}
);
layerId = "005AA5DB-9C20-42D5-964E-7DFE1013E61C";
name = Bold;
paths = (
{
closed = 1;
nodes = (
"309 250 LINE",
"323 408 LINE",
"248 308 LINE",
"410 308 OFFCURVE",
"495 423 OFFCURVE",
"495 533 CURVE SMOOTH",
"495 653 OFFCURVE",
"418 759 OFFCURVE",
"240 759 CURVE SMOOTH",
"153 759 OFFCURVE",
"67 733 OFFCURVE",
"4 682 CURVE",
"67 568 LINE",
"112 603 OFFCURVE",
"154 619 OFFCURVE",
"199 619 CURVE SMOOTH",
"264 619 OFFCURVE",
"311 583 OFFCURVE",
"311 516 CURVE SMOOTH",
"311 455 OFFCURVE",
"272 392 OFFCURVE",
"141 381 CURVE",
"145 250 LINE"
);
}
);
width = 521;
},
{
components = (
{
name = period;
transform = "{1, 0, 0, 1, 129, 0}";
}
);
layerId = "D0F50BF8-B137-4291-8B58-E185C78D1B48";
name = Light;
paths = (
{
closed = 1;
nodes = (
"212 210 LINE",
"212 376 LINE",
"205 361 LINE",
"309 390 OFFCURVE",
"392 466 OFFCURVE",
"392 577 CURVE SMOOTH",
"392 685 OFFCURVE",
"316 754 OFFCURVE",
"200 754 CURVE SMOOTH",
"139 754 OFFCURVE",
"82 731 OFFCURVE",
"37 691 CURVE",
"51 674 LINE",
"94 710 OFFCURVE",
"139 731 OFFCURVE",
"200 731 CURVE SMOOTH",
"295 731 OFFCURVE",
"366 676 OFFCURVE",
"366 575 CURVE SMOOTH",
"366 478 OFFCURVE",
"292 409 OFFCURVE",
"190 381 CURVE",
"190 210 LINE"
);
}
);
width = 449;
},
{
associatedMasterId = "D0F50BF8-B137-4291-8B58-E185C78D1B48";
components = (
{
name = period;
transform = "{1, 0, 0, 1, 98, 0}";
}
);
layerId = "E48B4480-4411-49ED-8D37-B625E69B5B00";
name = "Light Jun 26 15, 07:20";
paths = (
{
closed = 1;
nodes = (
"181 210 LINE",
"181 225 LINE SMOOTH",
"181 299 OFFCURVE",
"194 314 OFFCURVE",
"272 401 CURVE SMOOTH",
"318 452 OFFCURVE",
"355 499 OFFCURVE",
"355 572 CURVE SMOOTH",
"355 659 OFFCURVE",
"303 752 OFFCURVE",
"189 752 CURVE SMOOTH",
"132 752 OFFCURVE",
"79 733 OFFCURVE",
"35 687 CURVE",
"50 672 LINE",
"93 713 OFFCURVE",
"132 729 OFFCURVE",
"183 729 CURVE SMOOTH",
"277 729 OFFCURVE",
"329 659 OFFCURVE",
"329 572 CURVE SMOOTH",
"329 506 OFFCURVE",
"299 463 OFFCURVE",
"255 415 CURVE SMOOTH",
"180 334 OFFCURVE",
"159 309 OFFCURVE",
"159 241 CURVE SMOOTH",
"159 210 LINE"
);
}
);
width = 420;
}
);
leftKerningGroup = question;
rightKerningGroup = question;
unicode = 003F;
},
{
glyphname = quotesingle;
lastChange = "2015-06-30 14:30:14 +0000";
layers = (
{
layerId = "284DCAF7-AB20-402F-AEDF-E1CEEB9773D4";
name = Regular;
paths = (
{
closed = 1;
nodes = (
"120 455 LINE",
"127 720 LINE",
"103 726 OFFCURVE",
"63 726 OFFCURVE",
"39 720 CURVE",
"46 455 LINE"
);
}
);
width = 166;
},
{
layerId = "005AA5DB-9C20-42D5-964E-7DFE1013E61C";
name = Bold;
paths = (
{
closed = 1;
nodes = (
"212 422 LINE",
"219 720 LINE",
"195 726 OFFCURVE",
"63 726 OFFCURVE",
"39 720 CURVE",
"46 422 LINE"
);
}
);
width = 258;
},
{
associatedMasterId = "D0F50BF8-B137-4291-8B58-E185C78D1B48";
layerId = "D3EC50DA-490D-4C50-99CC-6B1C78354A1C";
width = 600;
},
{
layerId = "D0F50BF8-B137-4291-8B58-E185C78D1B48";
name = Light;
paths = (
{
closed = 1;
nodes = (
"61 455 LINE",
"63 720 LINE",
"57 722 OFFCURVE",
"45 722 OFFCURVE",
"39 720 CURVE",
"41 455 LINE"
);
}
);
width = 102;
}
);
leftKerningGroup = quotesingle;
rightKerningGroup = quotesingle;
unicode = 0027;
},
{
glyphname = slash;
lastChange = "2015-07-01 16:04:43 +0000";
layers = (
{
layerId = "284DCAF7-AB20-402F-AEDF-E1CEEB9773D4";
name = Regular;
paths = (
{
closed = 1;
nodes = (
"96 -30 LINE",
"319 750 LINE",
"247 750 LINE",
"24 -30 LINE"
);
}
);
width = 343;
},
{
layerId = "005AA5DB-9C20-42D5-964E-7DFE1013E61C";
name = Bold;
paths = (
{
closed = 1;
nodes = (
"140 -30 LINE",
"363 750 LINE",
"247 750 LINE",
"24 -30 LINE"
);
}
);
width = 387;
},
{
associatedMasterId = "D0F50BF8-B137-4291-8B58-E185C78D1B48";
layerId = "D3EC50DA-490D-4C50-99CC-6B1C78354A1C";
width = 600;
},
{
layerId = "D0F50BF8-B137-4291-8B58-E185C78D1B48";
name = Light;
paths = (
{
closed = 1;
nodes = (
"67 -30 LINE",
"290 750 LINE",
"266 750 LINE",
"43 -30 LINE"
);
}
);
width = 333;
}
);
leftKerningGroup = slash;
rightKerningGroup = slash;
unicode = 002F;
},
{
glyphname = underscore;
lastChange = "2015-06-30 14:30:14 +0000";
layers = (
{
layerId = "284DCAF7-AB20-402F-AEDF-E1CEEB9773D4";
name = Regular;
paths = (
{
closed = 1;
nodes = (
"408 -92 LINE",
"408 -26 LINE",
"92 -26 LINE",
"92 -92 LINE"
);
}
);
width = 500;
},
{
layerId = "005AA5DB-9C20-42D5-964E-7DFE1013E61C";
name = Bold;
paths = (
{
closed = 1;
nodes = (
"408 -134 LINE",
"408 -30 LINE",
"92 -30 LINE",
"92 -134 LINE"
);
}
);
width = 500;
},
{
associatedMasterId = "D0F50BF8-B137-4291-8B58-E185C78D1B48";
layerId = "D3EC50DA-490D-4C50-99CC-6B1C78354A1C";
width = 600;
},
{
layerId = "D0F50BF8-B137-4291-8B58-E185C78D1B48";
name = Light;
paths = (
{
closed = 1;
nodes = (
"408 -52 LINE",
"408 -30 LINE",
"92 -30 LINE",
"92 -52 LINE"
);
}
);
width = 500;
}
);
leftKerningGroup = underscore;
rightKerningGroup = underscore;
unicode = 005F;
},
{
glyphname = braceleft;
lastChange = "2015-06-30 14:30:14 +0000";
layers = (
{
layerId = "284DCAF7-AB20-402F-AEDF-E1CEEB9773D4";
name = Regular;
paths = (
{
closed = 1;
nodes = (
"125 332 LINE",
"186 329 OFFCURVE",
"225 368 OFFCURVE",
"225 445 CURVE SMOOTH",
"225 474 OFFCURVE",
"222 506 OFFCURVE",
"216 558 CURVE SMOOTH",
"211 603 OFFCURVE",
"210 621 OFFCURVE",
"210 636 CURVE SMOOTH",
"210 672 OFFCURVE",
"236 689 OFFCURVE",
"280 689 CURVE SMOOTH",
"292 689 LINE",
"292 755 LINE",
"281 755 LINE SMOOTH",
"185 755 OFFCURVE",
"140 721 OFFCURVE",
"140 644 CURVE SMOOTH",
"140 619 OFFCURVE",
"141 599 OFFCURVE",
"147 548 CURVE SMOOTH",
"153 493 OFFCURVE",
"155 466 OFFCURVE",
"155 442 CURVE SMOOTH",
"155 394 OFFCURVE",
"136 372 OFFCURVE",
"76 366 CURVE",
"76 300 LINE"
);
},
{
closed = 1;
nodes = (
"292 -89 LINE",
"292 -23 LINE",
"280 -23 LINE SMOOTH",
"241 -23 OFFCURVE",
"210 -6 OFFCURVE",
"210 30 CURVE SMOOTH",
"210 45 OFFCURVE",
"211 63 OFFCURVE",
"216 108 CURVE SMOOTH",
"222 160 OFFCURVE",
"225 192 OFFCURVE",
"225 221 CURVE SMOOTH",
"225 298 OFFCURVE",
"186 337 OFFCURVE",
"125 334 CURVE",
"76 366 LINE",
"76 300 LINE",
"136 294 OFFCURVE",
"155 272 OFFCURVE",
"155 224 CURVE SMOOTH",
"155 200 OFFCURVE",
"153 173 OFFCURVE",
"147 118 CURVE SMOOTH",
"141 67 OFFCURVE",
"140 47 OFFCURVE",
"140 22 CURVE SMOOTH",
"140 -55 OFFCURVE",
"185 -89 OFFCURVE",
"281 -89 CURVE SMOOTH"
);
}
);
width = 327;
},
{
layerId = "005AA5DB-9C20-42D5-964E-7DFE1013E61C";
name = Bold;
paths = (
{
closed = 1;
nodes = (
"181 332 LINE",
"242 329 OFFCURVE",
"282 368 OFFCURVE",
"282 425 CURVE SMOOTH",
"282 457 OFFCURVE",
"278 488 OFFCURVE",
"272 538 CURVE SMOOTH",
"268 571 OFFCURVE",
"266 590 OFFCURVE",
"266 606 CURVE SMOOTH",
"266 636 OFFCURVE",
"277 651 OFFCURVE",
"336 651 CURVE SMOOTH",
"348 651 LINE",
"348 755 LINE",
"337 755 LINE SMOOTH",
"211 755 OFFCURVE",
"154 731 OFFCURVE",
"154 634 CURVE SMOOTH",
"154 619 OFFCURVE",
"155 599 OFFCURVE",
"161 548 CURVE SMOOTH",
"167 493 OFFCURVE",
"169 470 OFFCURVE",
"169 452 CURVE SMOOTH",
"169 407 OFFCURVE",
"154 391 OFFCURVE",
"90 385 CURVE",
"90 281 LINE"
);
},
{
closed = 1;
nodes = (
"348 -89 LINE",
"348 15 LINE",
"336 15 LINE SMOOTH",
"277 15 OFFCURVE",
"264 30 OFFCURVE",
"264 60 CURVE SMOOTH",
"264 76 OFFCURVE",
"266 95 OFFCURVE",
"270 128 CURVE SMOOTH",
"276 178 OFFCURVE",
"280 209 OFFCURVE",
"280 241 CURVE SMOOTH",
"280 298 OFFCURVE",
"242 337 OFFCURVE",
"181 334 CURVE",
"90 385 LINE",
"90 281 LINE",
"154 275 OFFCURVE",
"169 259 OFFCURVE",
"169 214 CURVE SMOOTH",
"169 196 OFFCURVE",
"167 173 OFFCURVE",
"161 118 CURVE SMOOTH",
"155 67 OFFCURVE",
"154 47 OFFCURVE",
"154 32 CURVE SMOOTH",
"154 -65 OFFCURVE",
"211 -89 OFFCURVE",
"337 -89 CURVE SMOOTH"
);
}
);
width = 394;
},
{
associatedMasterId = "D0F50BF8-B137-4291-8B58-E185C78D1B48";
layerId = "D3EC50DA-490D-4C50-99CC-6B1C78354A1C";
width = 600;
},
{
layerId = "D0F50BF8-B137-4291-8B58-E185C78D1B48";
name = Light;
paths = (
{
closed = 1;
nodes = (
"115 332 LINE",
"182 334 OFFCURVE",
"209 377 OFFCURVE",
"209 443 CURVE SMOOTH",
"209 476 OFFCURVE",
"206 506 OFFCURVE",
"200 558 CURVE SMOOTH",
"195 603 OFFCURVE",
"194 621 OFFCURVE",
"194 636 CURVE SMOOTH",
"194 703 OFFCURVE",
"218 733 OFFCURVE",
"264 733 CURVE SMOOTH",
"276 733 LINE",
"276 755 LINE",
"265 755 LINE SMOOTH",
"215 755 OFFCURVE",
"170 731 OFFCURVE",
"170 634 CURVE SMOOTH",
"170 619 OFFCURVE",
"171 599 OFFCURVE",
"177 548 CURVE SMOOTH",
"183 493 OFFCURVE",
"185 466 OFFCURVE",
"185 442 CURVE SMOOTH",
"185 386 OFFCURVE",
"166 351 OFFCURVE",
"106 345 CURVE",
"106 321 LINE"
);
},
{
closed = 1;
nodes = (
"276 -89 LINE",
"276 -67 LINE",
"264 -67 LINE SMOOTH",
"218 -71 OFFCURVE",
"194 -37 OFFCURVE",
"194 30 CURVE SMOOTH",
"194 45 OFFCURVE",
"195 63 OFFCURVE",
"200 108 CURVE SMOOTH",
"206 160 OFFCURVE",
"209 190 OFFCURVE",
"209 223 CURVE SMOOTH",
"209 289 OFFCURVE",
"182 332 OFFCURVE",
"115 334 CURVE",
"106 345 LINE",
"106 321 LINE",
"166 315 OFFCURVE",
"185 280 OFFCURVE",
"185 224 CURVE SMOOTH",
"185 200 OFFCURVE",
"183 173 OFFCURVE",
"177 118 CURVE SMOOTH",
"171 67 OFFCURVE",
"170 47 OFFCURVE",
"170 32 CURVE SMOOTH",
"170 -65 OFFCURVE",
"215 -89 OFFCURVE",
"265 -89 CURVE SMOOTH"
);
}
);
width = 318;
}
);
leftKerningGroup = braceleft;
rightKerningGroup = braceleft;
unicode = 007B;
},
{
glyphname = bracketleft;
lastChange = "2015-06-30 14:30:14 +0000";
layers = (
{
layerId = "284DCAF7-AB20-402F-AEDF-E1CEEB9773D4";
name = Regular;
paths = (
{
closed = 1;
nodes = (
"192 -80 LINE",
"192 746 LINE",
"122 746 LINE",
"122 -80 LINE"
);
},
{
closed = 1;
nodes = (
"316 -80 LINE",
"316 -14 LINE",
"122 -14 LINE",
"122 -80 LINE"
);
},
{
closed = 1;
nodes = (
"316 680 LINE",
"316 746 LINE",
"122 746 LINE",
"122 680 LINE"
);
}
);
width = 368;
},
{
layerId = "005AA5DB-9C20-42D5-964E-7DFE1013E61C";
name = Bold;
paths = (
{
closed = 1;
nodes = (
"234 -80 LINE",
"234 746 LINE",
"122 746 LINE",
"122 -80 LINE"
);
},
{
closed = 1;
nodes = (
"406 -80 LINE",
"406 24 LINE",
"122 24 LINE",
"122 -80 LINE"
);
},
{
closed = 1;
nodes = (
"406 642 LINE",
"406 746 LINE",
"122 746 LINE",
"122 642 LINE"
);
}
);
width = 450;
},
{
associatedMasterId = "D0F50BF8-B137-4291-8B58-E185C78D1B48";
layerId = "D3EC50DA-490D-4C50-99CC-6B1C78354A1C";
width = 600;
},
{
layerId = "D0F50BF8-B137-4291-8B58-E185C78D1B48";
name = Light;
paths = (
{
closed = 1;
nodes = (
"134 -80 LINE",
"134 746 LINE",
"110 746 LINE",
"110 -80 LINE"
);
},
{
closed = 1;
nodes = (
"242 -80 LINE",
"242 -58 LINE",
"110 -58 LINE",
"110 -80 LINE"
);
},
{
closed = 1;
nodes = (
"242 724 LINE",
"242 746 LINE",
"110 746 LINE",
"110 724 LINE"
);
}
);
width = 274;
}
);
leftKerningGroup = bracketleft;
rightKerningGroup = bracketleft;
unicode = 005B;
},
{
glyphname = parenleft;
lastChange = "2015-06-30 14:30:14 +0000";
layers = (
{
layerId = "284DCAF7-AB20-402F-AEDF-E1CEEB9773D4";
name = Regular;
paths = (
{
closed = 1;
nodes = (
"309 -45 LINE",
"228 50 OFFCURVE",
"170 150 OFFCURVE",
"170 340 CURVE SMOOTH",
"170 530 OFFCURVE",
"228 630 OFFCURVE",
"309 725 CURVE",
"253 760 LINE",
"161 667 OFFCURVE",
"98 558 OFFCURVE",
"98 340 CURVE SMOOTH",
"98 122 OFFCURVE",
"161 13 OFFCURVE",
"253 -80 CURVE"
);
}
);
width = 363;
},
{
layerId = "005AA5DB-9C20-42D5-964E-7DFE1013E61C";
name = Bold;
paths = (
{
closed = 1;
nodes = (
"333 -15 LINE",
"255 50 OFFCURVE",
"199 150 OFFCURVE",
"199 340 CURVE SMOOTH",
"199 530 OFFCURVE",
"255 630 OFFCURVE",
"333 695 CURVE",
"253 760 LINE",
"154 667 OFFCURVE",
"83 558 OFFCURVE",
"83 340 CURVE SMOOTH",
"83 122 OFFCURVE",
"154 13 OFFCURVE",
"253 -80 CURVE"
);
}
);
width = 377;
},
{
associatedMasterId = "D0F50BF8-B137-4291-8B58-E185C78D1B48";
layerId = "D3EC50DA-490D-4C50-99CC-6B1C78354A1C";
width = 600;
},
{
layerId = "D0F50BF8-B137-4291-8B58-E185C78D1B48";
name = Light;
paths = (
{
closed = 1;
nodes = (
"271 -63 LINE",
"175 31 OFFCURVE",
"122 142 OFFCURVE",
"122 340 CURVE SMOOTH",
"122 538 OFFCURVE",
"173 639 OFFCURVE",
"271 743 CURVE",
"253 760 LINE",
"161 667 OFFCURVE",
"98 558 OFFCURVE",
"98 340 CURVE SMOOTH",
"98 122 OFFCURVE",
"161 13 OFFCURVE",
"253 -80 CURVE"
);
}
);
width = 298;
}
);
leftKerningGroup = parenleft;
rightKerningGroup = parenleft;
unicode = 0028;
},
{
glyphname = emdash;
lastChange = "2015-06-30 14:30:14 +0000";
layers = (
{
layerId = "284DCAF7-AB20-402F-AEDF-E1CEEB9773D4";
name = Regular;
paths = (
{
closed = 1;
nodes = (
"908 257 LINE",
"908 323 LINE",
"92 323 LINE",
"92 257 LINE"
);
}
);
width = 1000;
},
{
layerId = "005AA5DB-9C20-42D5-964E-7DFE1013E61C";
name = Bold;
paths = (
{
closed = 1;
nodes = (
"908 238 LINE",
"908 342 LINE",
"92 342 LINE",
"92 238 LINE"
);
}
);
width = 1000;
},
{
associatedMasterId = "D0F50BF8-B137-4291-8B58-E185C78D1B48";
layerId = "D3EC50DA-490D-4C50-99CC-6B1C78354A1C";
width = 600;
},
{
layerId = "D0F50BF8-B137-4291-8B58-E185C78D1B48";
name = Light;
paths = (
{
closed = 1;
nodes = (
"908 280 LINE",
"908 302 LINE",
"92 302 LINE",
"92 280 LINE"
);
}
);
width = 1000;
}
);
leftKerningGroup = hyphen;
rightKerningGroup = hyphen;
unicode = 2014;
},
{
glyphname = endash;
lastChange = "2015-06-30 14:30:14 +0000";
layers = (
{
layerId = "284DCAF7-AB20-402F-AEDF-E1CEEB9773D4";
name = Regular;
paths = (
{
closed = 1;
nodes = (
"408 257 LINE",
"408 323 LINE",
"92 323 LINE",
"92 257 LINE"
);
}
);
width = 500;
},
{
layerId = "005AA5DB-9C20-42D5-964E-7DFE1013E61C";
name = Bold;
paths = (
{
closed = 1;
nodes = (
"408 238 LINE",
"408 342 LINE",
"92 342 LINE",
"92 238 LINE"
);
}
);
width = 500;
},
{
associatedMasterId = "D0F50BF8-B137-4291-8B58-E185C78D1B48";
layerId = "D3EC50DA-490D-4C50-99CC-6B1C78354A1C";
width = 600;
},
{
layerId = "D0F50BF8-B137-4291-8B58-E185C78D1B48";
name = Light;
paths = (
{
closed = 1;
nodes = (
"408 280 LINE",
"408 302 LINE",
"92 302 LINE",
"92 280 LINE"
);
}
);
width = 500;
}
);
leftKerningGroup = hyphen;
rightKerningGroup = hyphen;
unicode = 2013;
},
{
glyphname = hyphen;
lastChange = "2015-06-30 14:30:14 +0000";
layers = (
{
layerId = "284DCAF7-AB20-402F-AEDF-E1CEEB9773D4";
name = Regular;
paths = (
{
closed = 1;
nodes = (
"296 257 LINE",
"296 323 LINE",
"92 323 LINE",
"92 257 LINE"
);
}
);
width = 388;
},
{
layerId = "005AA5DB-9C20-42D5-964E-7DFE1013E61C";
name = Bold;
paths = (
{
closed = 1;
nodes = (
"326 238 LINE",
"326 342 LINE",
"92 342 LINE",
"92 238 LINE"
);
}
);
width = 418;
},
{
associatedMasterId = "D0F50BF8-B137-4291-8B58-E185C78D1B48";
layerId = "D3EC50DA-490D-4C50-99CC-6B1C78354A1C";
width = 600;
},
{
layerId = "D0F50BF8-B137-4291-8B58-E185C78D1B48";
name = Light;
paths = (
{
closed = 1;
nodes = (
"296 280 LINE",
"296 302 LINE",
"92 302 LINE",
"92 280 LINE"
);
}
);
width = 388;
}
);
leftKerningGroup = hyphen;
rightKerningGroup = hyphen;
unicode = 002D;
},
{
glyphname = guilsinglleft;
lastChange = "2015-06-30 14:30:14 +0000";
layers = (
{
layerId = "284DCAF7-AB20-402F-AEDF-E1CEEB9773D4";
name = Regular;
paths = (
{
closed = 1;
nodes = (
"272 112 LINE",
"155 248 LINE",
"272 384 LINE",
"229 414 LINE",
"68 248 LINE",
"229 82 LINE"
);
}
);
width = 318;
},
{
layerId = "005AA5DB-9C20-42D5-964E-7DFE1013E61C";
name = Bold;
paths = (
{
closed = 1;
nodes = (
"331 122 LINE",
"228 248 LINE",
"331 374 LINE",
"266 424 LINE",
"95 248 LINE",
"266 72 LINE"
);
}
);
width = 385;
},
{
associatedMasterId = "D0F50BF8-B137-4291-8B58-E185C78D1B48";
layerId = "D3EC50DA-490D-4C50-99CC-6B1C78354A1C";
width = 600;
},
{
layerId = "D0F50BF8-B137-4291-8B58-E185C78D1B48";
name = Light;
paths = (
{
closed = 1;
nodes = (
"264 102 LINE",
"119 248 LINE",
"264 394 LINE",
"249 409 LINE",
"88 248 LINE",
"249 88 LINE"
);
}
);
width = 324;
}
);
leftKerningGroup = guillemotleft;
rightKerningGroup = guillemotleft;
unicode = 2039;
},
{
glyphname = quoteright;
lastChange = "2015-06-30 14:30:14 +0000";
layers = (
{
layerId = "284DCAF7-AB20-402F-AEDF-E1CEEB9773D4";
name = Regular;
paths = (
{
closed = 1;
nodes = (
"82 475 LINE",
"149 550 OFFCURVE",
"189 636 OFFCURVE",
"183 754 CURVE",
"159 755 OFFCURVE",
"115 749 OFFCURVE",
"93 740 CURVE",
"95 633 OFFCURVE",
"68 555 OFFCURVE",
"13 475 CURVE"
);
}
);
width = 243;
},
{
layerId = "005AA5DB-9C20-42D5-964E-7DFE1013E61C";
name = Bold;
paths = (
{
closed = 1;
nodes = (
"162 385 LINE",
"239 478 OFFCURVE",
"289 589 OFFCURVE",
"280 755 CURVE",
"243 756 OFFCURVE",
"141 741 OFFCURVE",
"102 725 CURVE",
"113 622 OFFCURVE",
"99 519 OFFCURVE",
"27 385 CURVE"
);
}
);
width = 370;
},
{
associatedMasterId = "D0F50BF8-B137-4291-8B58-E185C78D1B48";
layerId = "D3EC50DA-490D-4C50-99CC-6B1C78354A1C";
width = 600;
},
{
layerId = "D0F50BF8-B137-4291-8B58-E185C78D1B48";
name = Light;
paths = (
{
closed = 1;
nodes = (
"35 474 LINE",
"99 581 OFFCURVE",
"117 650 OFFCURVE",
"102 754 CURVE",
"95 754 OFFCURVE",
"84 750 OFFCURVE",
"78 745 CURVE",
"95 649 OFFCURVE",
"72 577 OFFCURVE",
"12 474 CURVE"
);
}
);
width = 177.996;
}
);
leftKerningGroup = quotedblleft;
rightKerningGroup = quotedblleft;
unicode = 2019;
},
